<svg width="7000" height="488" viewBox="0 0 7000 488" fill="none" xmlns="http://www.w3.org/2000/svg">
<path d="M1902.87 71.9805C1897.27 71.9805 1890.67 70.3809 1886.67 75.1798C1886.07 75.9796 1885.17 76.9794 1884.67 77.8792C1884.27 78.679 1884.47 79.7787 1884.07 80.5786C1882.87 82.7781 1881.07 81.8783 1878.47 82.0782C1873.27 82.4781 1871.47 84.8776 1867.27 87.577C1864.27 89.4765 1861.57 90.5763 1857.88 90.3763C1854.08 90.1764 1852.08 88.2768 1849.48 85.7774C1847.88 84.1778 1846.18 81.8783 1843.78 81.2784C1842.38 80.9785 1840.88 81.2784 1839.48 81.2784C1834.58 81.3784 1829.68 81.0785 1824.78 81.2784C1821.08 81.3784 1817.48 81.8783 1813.89 82.0782C1810.09 82.2782 1806.39 81.8783 1802.79 82.978C1801.49 83.3779 1800.39 83.5779 1799.19 83.7778C1796.69 84.1777 1796.79 84.2777 1795.09 86.2773C1794.29 87.1771 1792.69 89.2766 1791.39 89.7765C1790.39 90.1764 1787.49 89.6765 1786.49 89.6765C1779.19 89.6765 1771.99 88.6767 1764.7 88.8767C1762.2 88.9767 1760.5 89.1766 1758.8 87.1771C1757.2 85.2775 1757.5 83.078 1756.2 81.2784C1754.1 78.1791 1746.3 79.4788 1743.3 79.7787C1732.7 80.9785 1721.51 81.0785 1710.91 79.4788C1709.41 79.2789 1708.41 78.779 1707.01 78.779C1703.91 78.679 1700.21 80.4786 1697.21 80.7785C1690.91 81.5783 1682.82 85.1775 1677.92 81.2784C1676.82 80.3786 1677.82 78.1791 1676.52 77.2793C1675.82 76.8794 1672.92 77.0794 1672.32 76.9794C1671.42 76.7794 1670.62 76.4795 1669.62 76.2796C1666.82 75.8796 1664.72 75.4797 1661.52 75.4797C1656.32 75.4797 1651.22 75.5797 1646.02 75.4797C1641.72 75.3798 1637.63 74.38 1633.43 73.9801C1631.33 73.7801 1629.83 74.38 1628.33 72.6804C1626.63 70.7808 1626.83 68.5813 1624.03 67.8815C1622.53 67.4816 1620.23 67.8815 1618.73 67.8815C1616.33 67.8815 1613.93 67.8815 1611.63 68.7813C1611.13 68.9812 1611.13 69.4811 1610.53 69.6811C1610.03 69.781 1609.43 69.6811 1608.83 69.781C1605.23 70.7808 1602.33 74.28 1599.13 76.0796C1595.54 78.0791 1591.34 78.479 1587.44 79.4788C1582.04 80.9785 1577.14 83.4779 1571.44 83.7778C1564.54 84.1777 1557.54 84.4777 1550.85 85.7774C1549.05 86.1773 1547.35 86.2773 1545.55 86.1773C1542.05 86.0773 1539.75 86.6772 1536.55 88.2768C1534.45 89.2766 1532.55 89.6765 1530.45 90.4763C1529.95 90.6763 1529.35 91.2761 1528.75 91.2761C1528.25 91.2761 1528.05 91.1762 1527.55 91.0762C1527.15 90.9762 1526.85 90.5763 1526.45 90.3763C1524.65 89.5765 1522.65 89.4765 1520.75 89.1766C1518.85 88.9767 1517.15 88.5767 1515.45 87.7769C1514.85 87.477 1514.45 87.0771 1513.75 86.8771C1512.45 86.5772 1510.75 87.1771 1509.36 87.0771C1507.16 86.9771 1505.76 86.1773 1503.86 85.2775C1500.36 83.6779 1498.06 83.5779 1494.36 83.5779C1492.76 83.5779 1490.76 83.278 1489.26 83.6779C1486.96 84.3777 1485.56 85.8774 1482.86 85.1775C1479.36 84.2777 1478.66 81.0785 1477.16 78.3791C1476.36 76.9794 1477.26 77.0794 1475.46 76.8794C1473.76 76.6795 1471.76 76.8794 1470.06 76.8794C1465.46 76.7794 1461.57 77.5793 1457.07 78.479C1451.67 79.5788 1446.07 80.2786 1440.67 80.8785C1435.57 81.4784 1430.47 82.3782 1425.17 82.7781C1419.88 83.078 1416.48 78.9789 1411.28 78.479C1405.08 77.7792 1397.58 78.2791 1392.08 81.0785C1390.68 81.7783 1389.38 82.878 1387.88 83.278C1386.28 83.6779 1385.28 83.278 1383.78 82.978C1379.58 82.1782 1374.79 82.7781 1370.59 82.7781C1367.69 82.7781 1364.89 82.7781 1361.99 82.7781C1360.29 82.7781 1358.09 82.3782 1356.39 82.6781C1355.29 82.878 1356.59 82.4781 1354.69 83.278C1352.39 84.2777 1350.89 84.9776 1348.29 85.2775C1340.49 86.0773 1332.9 87.8769 1325.2 89.2766C1321.6 89.9764 1318.4 90.2764 1314.7 90.2764C1312.3 90.2764 1308.7 92.1759 1306.5 90.7762C1304 89.2766 1304.7 84.8776 1304 82.3782C1302.6 77.8792 1299.6 77.5793 1295.5 78.879C1291 80.2786 1286.61 82.4781 1281.71 81.6783C1278.61 81.0785 1276.11 78.9789 1273.01 78.479C1269.51 77.9792 1265.91 79.3788 1262.51 79.6788C1259.91 79.9787 1256.91 79.8787 1254.41 80.8785C1250.21 82.5781 1247.21 84.6776 1242.52 84.7776C1239.42 84.7776 1236.32 84.6776 1233.22 84.7776C1226.62 84.9776 1221.92 84.2777 1216.02 81.6783C1214.12 80.8785 1212.82 79.6788 1210.72 79.4788C1207.02 79.1789 1203.22 81.8783 1199.93 82.878C1197.63 83.5779 1194.83 82.878 1192.53 83.6779C1190.43 84.3777 1189.73 85.6774 1187.43 85.9773C1185.23 86.2773 1182.93 85.8774 1180.73 86.5772C1178.83 87.1771 1177.53 88.7767 1176.13 89.4765C1175.13 89.8764 1172.53 89.9764 1172.13 89.9764C1169.43 90.3763 1166.73 91.2761 1164.03 90.9762C1159.04 90.3763 1154.84 86.2773 1150.94 83.4779C1146.34 80.1787 1142.74 78.2791 1137.24 78.3791C1133.64 78.4791 1130.04 78.3791 1126.44 78.3791C1122.54 78.3791 1119.04 78.579 1115.35 79.3788C1111.55 80.1787 1107.85 78.9789 1104.35 80.4786C1102.05 81.4784 1100.35 83.8778 1097.95 84.5777C1096.25 85.0775 1094.45 84.7776 1092.75 84.6776C1090.25 84.6776 1087.75 84.6776 1085.25 84.6776C1082.85 84.6776 1080.35 84.7776 1077.95 84.6776C1075.15 84.5777 1075.05 83.278 1072.75 82.3782C1067.36 80.3786 1060.76 80.6786 1054.66 80.8785C1051.76 80.9785 1049.36 81.8783 1046.56 82.1782C1043.96 82.4781 1041.06 82.1782 1038.36 82.1782C1033.26 82.1782 1028.26 82.1782 1023.17 82.1782C1019.97 82.1782 1016.67 81.9782 1014.07 80.1787C1011.57 78.479 1011.07 76.2796 1007.67 75.7797C1006.17 75.5797 1004.37 75.8796 1002.77 75.8796C994.873 75.8796 986.075 77.0794 978.276 75.9796C975.877 75.5797 974.677 73.9801 972.378 73.0803C969.978 72.0805 967.679 72.1805 965.179 72.1805C963.08 72.1805 959.881 71.4806 957.981 72.3804C956.581 72.9803 955.082 75.9796 953.682 76.8794C948.583 80.2786 944.384 75.4797 938.985 77.0794C936.386 77.8792 936.086 79.7788 933.687 81.5783C932.287 82.5781 930.887 83.078 929.288 83.6779C927.488 84.3777 925.888 85.1775 923.489 84.7776C919.79 84.0778 916.79 79.3788 913.791 77.0794C912.691 77.4793 911.692 78.1791 910.892 79.0789C909.392 79.6788 907.893 79.8787 906.293 79.4788C904.593 80.4786 904.493 82.5781 902.694 83.5779C901.994 83.9778 899.394 84.0778 898.395 84.2777C895.995 84.9776 893.796 85.7774 891.196 85.8774C888.197 86.0773 884.998 85.8774 881.898 85.8774C880.899 85.8774 877.799 85.3775 876.9 86.0773C876.2 86.5772 876 87.9769 875.4 88.5767C873.9 90.2764 870.801 91.5761 868.801 92.7758C864.402 95.4752 858.904 94.7753 853.905 96.175C853.205 96.375 852.505 96.9748 851.505 97.0748C848.806 97.7746 846.007 96.6749 843.807 97.1748C843.307 97.0748 842.807 97.0748 842.307 96.9748C840.408 98.7744 839.008 100.874 837.908 103.173C835.509 106.473 834.409 105.373 830.31 104.073C824.612 102.174 818.513 99.0743 814.414 94.6754C813.314 93.4756 811.914 91.2761 810.115 91.1762C809.215 91.1762 808.615 91.676 807.915 92.1759C806.616 93.0757 806.116 94.9753 804.916 95.9751C802.017 98.1746 798.018 96.6749 794.618 96.075C791.019 95.3752 787.72 93.6756 784.221 92.9757C780.522 92.2759 776.523 92.9757 772.823 92.8758C770.224 92.7758 768.524 93.5756 766.025 94.4754C759.326 96.9748 750.828 95.2752 744.03 94.1755C740.331 93.5756 736.732 93.5756 733.132 93.6756C731.133 93.6756 727.034 94.6754 725.334 93.2757C724.634 92.6758 724.135 90.9762 723.535 90.1764C722.435 88.6767 721.135 87.7769 719.436 86.8771C716.636 85.2775 713.637 84.2777 710.538 83.3779C707.038 82.3782 703.439 82.978 699.84 83.278C694.441 83.7778 689.042 83.6779 683.644 83.6779C680.844 83.6779 678.545 83.7778 676.046 82.878C673.846 82.1782 671.946 81.4784 669.647 81.1784C665.148 80.6785 660.549 81.1784 656.05 81.1784C653.051 81.1784 649.452 80.6786 646.452 81.3784C643.653 82.0782 641.553 83.178 638.754 83.5779C631.656 84.5777 623.457 90.0764 616.059 86.8771C614.56 86.1773 613.46 85.1775 611.86 84.8776C610.66 84.6776 609.061 85.0775 607.861 85.0775C603.662 85.0775 600.963 84.1777 597.363 82.4781C593.664 80.7785 590.265 79.3788 587.266 76.4795C584.566 73.6801 583.067 73.8801 579.068 73.6801C576.368 73.5802 573.869 73.2802 571.269 72.3804C569.77 71.8806 568.47 71.1807 566.87 70.9808C562.771 70.5809 557.573 72.0805 553.474 72.3804C547.275 72.7804 544.875 75.4797 539.777 77.9792C537.577 79.0789 535.378 79.2789 533.178 80.1787C532.078 80.6785 530.879 81.7783 529.879 82.1782C527.379 83.078 523.08 82.3782 520.481 82.3782C511.783 82.3782 502.485 81.2784 493.987 82.1782C490.088 82.5781 487.089 85.4775 483.39 86.0773C474.691 87.477 466.093 89.9764 457.296 91.0762C450.197 91.876 442.899 91.5761 436.7 87.677C435.101 86.6772 433.301 84.2777 431.601 83.6779C427.502 82.3782 421.804 83.078 417.605 82.4781C407.407 80.8785 397.709 78.3791 387.311 78.579C384.012 78.679 379.813 78.9789 377.214 81.2784C374.015 84.0778 374.314 85.7774 370.115 86.1773C362.817 86.7772 350.62 85.3775 344.921 80.4786C341.922 77.8792 341.122 74.0801 338.823 71.2807C337.623 69.881 338.623 70.4809 337.223 69.781C336.023 69.1812 331.024 69.981 329.425 69.981C327.125 69.981 323.626 70.2809 321.327 69.3811C318.027 68.1814 314.028 64.0823 310.229 64.9821C306.63 65.782 303.531 68.5813 299.532 68.7813C294.333 69.0812 291.233 69.6811 286.135 71.4806C281.636 73.0803 277.437 73.7801 272.738 73.6801C267.139 73.5802 261.44 73.6801 255.842 73.7801C242.844 73.9801 230.747 70.1809 217.95 69.781C214.751 69.6811 211.952 68.7813 208.852 68.5813C202.554 68.1814 195.755 69.881 189.457 68.6813C184.358 67.6815 179.959 64.8822 175.46 62.4827C173.26 61.283 170.761 59.7833 168.262 59.1835C167.362 58.9835 166.362 59.1835 165.562 58.8835C163.863 58.3836 162.663 56.884 160.963 56.0842C158.464 54.8844 156.364 54.3846 153.565 54.4845C145.567 54.7845 137.569 52.8849 129.57 52.7849C121.972 52.6849 124.572 43.787 116.973 43.787C114.074 43.787 110.775 44.1869 107.975 43.787C106.276 43.587 104.776 42.8872 102.976 42.8872C102.077 42.8872 101.177 42.9872 100.377 42.8872C98.8774 42.5873 98.7774 41.6875 96.5779 41.3875C93.9785 40.9876 91.1792 41.6875 88.5798 41.2876C86.7802 40.9876 85.9804 40.1878 84.2807 39.6879C81.5814 38.9881 78.1821 49.5857 75.3828 49.5857C72.4834 49.5857 69.5841 49.5857 66.7847 49.5857C64.3853 49.5857 61.4859 58.0837 59.4864 59.5834C56.687 61.6829 52.7879 70.4809 49.2887 70.4809C46.6893 70.4809 44.0899 70.4809 41.3905 70.4809C38.8911 70.4809 37.2915 71.0807 35.4919 69.1812C30.693 64.0823 32.6925 61.183 25.7941 63.4825C23.8945 64.0823 22.095 65.2821 19.9954 65.9819C17.396 66.9817 14.6966 67.2816 11.9973 67.6815C10.8975 67.8815 0.399909 78.779 0 79.0789V149.063C0.599863 148.763 3.99909 141.865 4.49897 141.665C7.29833 140.565 10.5976 138.065 13.097 136.266C15.6964 134.366 17.7959 133.666 20.8952 134.366C26.7939 135.766 28.1936 136.466 34.6921 134.266C36.1917 133.866 37.2915 132.967 38.9911 132.767C42.4903 132.367 45.1897 130.867 48.6889 129.967C53.1878 128.768 52.388 130.367 55.9872 131.267C60.2862 132.267 65.1851 130.167 69.3841 129.667C71.4837 129.367 75.1828 128.868 77.3823 129.467C79.0819 129.867 79.9817 131.367 81.5814 131.867C83.7809 132.567 86.8801 131.967 89.0796 132.367C93.3787 133.067 97.5777 134.966 102.077 134.666C106.176 134.366 111.475 133.367 115.174 131.467C116.473 130.767 117.573 129.767 118.873 129.067C120.273 128.368 121.872 128.268 123.372 127.868C125.471 127.268 126.671 127.068 128.871 127.068C130.67 127.068 134.569 126.268 135.969 127.568C137.469 128.968 137.169 131.667 138.868 133.067C140.768 134.666 145.367 133.666 147.666 133.866C155.564 134.566 164.162 134.966 171.561 138.165C173.96 139.165 180.159 144.064 183.458 142.964C184.358 142.664 185.058 141.665 185.958 141.165C188.557 139.765 191.156 140.565 193.956 140.365C199.154 140.065 204.353 139.165 209.552 138.865C213.451 138.665 218.95 137.865 222.849 138.765C225.748 139.465 227.148 141.365 228.748 143.464C230.347 145.564 231.147 146.863 234.047 147.063C236.146 147.263 238.545 146.963 240.645 146.963C242.645 146.963 245.544 147.763 247.543 147.763C249.143 147.763 251.942 148.363 253.442 147.463C254.642 146.763 254.942 145.764 255.642 144.464C256.641 142.464 256.741 141.365 258.941 141.065C261.34 140.765 263.54 141.865 265.939 141.965C267.739 142.065 269.738 142.164 271.438 141.765C273.438 141.265 272.938 140.565 275.837 141.465C277.037 141.865 278.236 142.564 279.436 142.964C282.036 143.864 284.335 145.064 286.834 146.064C289.734 147.163 292.333 147.063 295.333 147.063C300.131 146.963 304.93 146.963 309.729 147.063C313.228 147.163 317.327 148.363 320.827 147.963C321.726 147.863 322.526 147.063 323.326 147.163C324.426 147.163 325.626 148.363 326.425 149.063C327.825 150.263 329.525 151.762 330.325 153.362C330.724 154.162 330.524 155.861 331.424 155.761C333.324 155.661 333.424 153.662 334.923 152.662C337.623 150.863 337.123 149.963 340.222 149.463C342.222 149.163 344.321 148.763 346.321 148.363C350.52 147.563 354.619 146.464 358.618 145.064C361.417 144.064 363.517 142.564 366.016 141.465C368.916 140.065 371.715 141.965 374.514 142.964C377.614 144.064 380.813 144.564 384.112 144.764C391.91 145.264 401.708 146.464 408.707 142.764C412.506 140.765 413.206 137.865 417.904 138.765C423.703 139.865 427.702 143.464 433.901 143.664C436.8 143.764 439.6 143.764 442.499 143.764C444.698 143.764 448.897 144.464 450.797 143.664C453.896 142.364 453.796 138.265 457.595 137.666C458.595 137.566 459.595 137.566 460.495 137.865C461.994 138.365 462.894 139.565 463.994 140.565C467.293 143.664 472.892 145.964 477.391 146.064C479.39 146.364 480.99 146.663 483.09 146.663C485.589 146.663 488.188 146.563 490.688 146.663C491.888 146.563 493.087 146.763 494.087 147.263C494.387 147.463 494.687 147.763 494.987 148.163C496.786 148.763 500.286 148.663 502.185 148.163C502.385 145.164 505.584 143.564 507.684 141.965C508.884 140.965 508.584 140.865 510.283 140.865C513.083 140.865 516.282 140.665 518.981 141.665C521.481 142.564 523.58 144.264 525.98 145.564C531.279 148.363 530.579 153.262 535.178 157.161C536.577 158.361 537.677 156.361 539.077 154.462C541.576 150.962 545.875 149.163 549.574 146.963C554.773 143.964 559.772 145.464 565.271 143.964C570.57 142.464 575.169 140.965 580.767 140.965C582.967 140.965 585.166 140.765 587.366 140.965C588.965 141.065 590.265 141.765 591.765 141.865C593.064 141.965 594.364 141.565 595.664 141.965C595.864 142.764 595.564 143.564 595.664 144.364C595.764 145.364 596.364 146.164 596.764 147.063C597.263 148.363 597.563 148.963 598.263 150.063C598.763 150.863 599.363 150.563 599.063 151.962C600.163 152.662 601.363 152.962 602.662 152.962C604.562 153.362 605.862 154.862 608.061 154.962C613.06 155.361 616.959 148.663 620.758 146.264C623.458 144.464 625.757 142.264 628.156 140.165C631.156 137.466 632.056 138.065 633.455 141.665C634.555 144.764 635.955 147.763 637.154 150.863C637.654 152.262 637.454 155.062 638.954 154.962C640.954 154.762 642.353 148.163 644.253 147.363C646.152 146.563 649.352 147.263 651.551 147.263C655.05 147.263 657.85 148.563 661.349 148.963C664.648 149.363 667.447 149.663 670.647 150.663C671.247 150.863 673.246 151.162 673.946 151.762C674.746 152.362 675.646 154.162 676.345 154.962C677.645 156.461 679.145 157.961 679.645 159.86C680.045 161.26 680.345 162.66 681.444 163.46C684.544 165.759 690.242 159.361 692.242 156.961C694.141 154.662 694.841 155.062 697.541 154.362C705.039 152.162 712.937 151.662 720.735 151.462C723.735 151.362 725.034 150.563 726.634 152.362C726.834 152.562 726.734 152.862 726.934 153.062C727.334 153.462 727.934 153.162 728.534 153.162C731.633 152.862 734.532 154.062 737.531 155.461C739.931 156.561 741.83 159.061 744.23 159.96C746.629 160.76 747.929 158.561 750.029 158.261C753.228 157.861 756.627 158.461 759.826 158.161C762.926 157.861 765.925 157.561 769.024 156.961C774.223 155.961 778.822 154.962 784.121 154.962C788.62 154.962 793.019 153.662 797.518 153.362C799.517 153.262 803.016 152.662 805.016 153.262C806.716 153.762 806.216 152.162 806.316 151.162C806.516 149.763 807.715 147.563 809.215 149.563C809.115 149.763 809.115 149.863 809.015 150.063C811.015 146.763 812.814 146.364 816.613 146.264C820.412 146.164 822.412 147.163 825.011 150.063C827.011 152.262 828.811 155.361 831.81 156.161C834.009 156.761 836.909 156.261 839.108 156.261C842.407 156.261 845.107 154.962 848.006 153.562C849.506 152.862 850.606 153.062 852.305 152.962C855.504 152.862 854.805 155.262 854.505 157.461C854.205 159.86 855.804 160.76 858.304 160.36C863.203 159.561 867.102 154.562 870.901 151.662C873.5 149.663 876.7 149.063 879.899 148.463C882.298 148.063 885.198 148.763 887.497 148.263C891.596 147.363 891.496 142.664 893.396 139.765C896.595 134.666 902.694 142.864 908.492 143.164C910.992 143.264 913.091 134.566 915.491 134.766C920.19 135.166 924.289 137.166 924.689 142.564C925.089 146.464 922.589 151.762 925.388 154.362C927.688 156.561 932.787 151.662 935.586 150.063C938.785 148.163 939.685 145.264 942.185 142.664C944.684 140.065 945.984 139.665 948.783 138.365C951.882 136.866 954.482 134.666 957.081 132.467C959.381 130.467 961.68 137.865 964.679 136.766C966.679 135.966 968.579 135.166 970.478 134.366C974.177 132.767 976.677 124.968 978.476 128.068C979.976 130.767 981.476 133.666 982.575 136.566C983.475 138.965 983.575 141.665 984.575 143.864C985.575 146.064 984.675 145.364 986.275 145.164C986.575 145.164 986.874 144.864 987.174 144.664C989.474 143.764 992.073 143.564 994.573 143.364C996.172 143.264 997.672 143.664 998.472 142.564C998.972 141.865 999.272 140.865 1000.07 140.465C1001.07 139.965 1002.27 139.665 1003.37 139.365C1010.57 137.066 1019.97 142.864 1025.57 138.065C1027.97 135.966 1023.37 130.967 1025.97 129.167C1031.76 125.068 1039.16 133.067 1046.06 133.367C1049.86 133.566 1053.46 132.867 1057.16 134.066C1058.96 134.666 1060.86 134.566 1062.56 135.266C1064.96 136.166 1067.46 137.566 1069.86 138.565C1070.66 138.865 1072.45 139.065 1072.95 139.865C1073.25 140.365 1072.85 141.165 1073.15 141.665C1074.55 143.764 1076.85 139.965 1078.05 139.065C1078.95 138.465 1079.45 137.766 1080.25 137.066C1083.15 134.566 1086.75 134.166 1090.45 133.566C1092.05 133.367 1096.05 133.267 1097.35 130.867C1098.05 129.667 1100.75 130.667 1102.05 130.667C1105.45 130.667 1108.85 131.067 1112.25 131.367C1117.34 131.667 1122.34 131.467 1127.44 131.467C1130.44 131.467 1137.44 131.267 1139.44 134.366C1140.54 136.066 1140.54 136.766 1142.54 137.865C1144.44 138.965 1145.84 139.165 1148.14 139.065C1150.44 139.065 1153.34 138.565 1155.64 138.965C1157.34 139.265 1159.04 140.465 1160.73 140.965C1163.43 141.865 1166.03 144.264 1168.83 144.864C1170.43 145.164 1170.53 144.664 1171.83 144.264C1174.33 143.464 1176.93 143.264 1179.63 142.464C1183.13 141.365 1184.53 138.265 1187.73 136.866C1189.13 136.266 1192.13 135.766 1193.53 135.366C1197.23 134.466 1200.63 134.066 1204.22 132.567C1208.32 130.867 1213.12 129.267 1217.72 129.167C1218.72 129.167 1219.62 129.267 1220.52 129.667C1223.12 130.767 1225.42 133.167 1227.42 135.066C1228.22 135.866 1229.42 136.566 1229.72 137.666C1230.12 138.865 1229.32 140.065 1229.82 141.265C1230.72 141.465 1231.52 141.465 1232.42 141.465C1235.92 141.365 1239.52 141.165 1243.02 141.065C1244.12 141.065 1248.21 141.665 1249.21 140.865C1249.81 140.365 1249.71 139.665 1249.91 138.965C1250.41 137.666 1251.21 136.566 1252.31 135.866C1254.81 134.266 1258.21 134.766 1260.61 136.266C1262.91 137.566 1264.41 138.165 1267.21 138.165C1268.91 138.165 1270.21 138.865 1271.81 138.565C1273.91 138.165 1276.21 137.666 1278.31 137.266C1279.81 136.966 1281.31 136.066 1283.01 136.466C1283.61 136.566 1283.71 137.166 1284.21 137.266C1285.01 137.466 1286.21 137.066 1287.01 137.466C1288.51 138.265 1287.91 140.065 1287.91 141.465C1288.01 142.964 1288.11 142.564 1288.81 143.964C1289.21 144.964 1289.41 145.864 1289.81 146.863C1290.41 148.063 1291.7 150.063 1293.1 150.563C1297.9 152.162 1303.5 149.163 1307.9 148.063C1310.2 147.563 1311 146.763 1312.5 144.964C1313.7 143.464 1315 142.864 1316.4 141.665C1318.9 139.565 1318.4 138.265 1321.8 137.666C1323.4 137.366 1325 137.366 1326.6 137.066C1328 136.866 1329.4 136.366 1330.8 136.666C1332.4 136.966 1334 138.365 1335.79 138.665C1338.89 139.265 1342.29 138.565 1345.19 139.965C1346.09 140.365 1345.79 140.565 1346.99 140.865C1349.89 141.365 1351.69 140.465 1354.29 139.565C1357.99 138.265 1362.99 139.165 1366.99 139.165C1369.49 139.165 1371.99 139.065 1374.39 139.165C1376.29 139.265 1378.88 139.665 1380.18 140.865C1381.68 142.164 1381.68 143.064 1384.18 142.564C1385.88 142.164 1386.28 141.165 1387.58 140.165C1388.78 139.165 1389.88 138.865 1391.28 138.365C1393.68 137.566 1395.58 137.566 1398.08 137.566C1400.48 137.566 1403.08 137.166 1405.28 138.365C1406.28 138.965 1406.78 139.765 1407.88 140.065C1409.68 140.665 1409.08 139.965 1410.88 141.565C1412.38 142.964 1410.98 142.364 1413.08 142.564C1414.28 142.764 1415.88 142.564 1417.08 142.564C1419.58 142.564 1422.97 143.164 1425.27 142.364C1427.07 141.765 1428.87 140.665 1430.67 140.265C1433.57 139.565 1436.77 139.965 1439.67 140.565C1443.17 141.265 1446.77 141.865 1450.27 142.664C1453.47 143.464 1456.67 144.364 1459.97 145.064C1462.57 145.664 1468.86 147.663 1470.36 145.164C1471.96 142.564 1475.16 141.765 1477.06 141.365C1480.86 140.465 1483.56 143.164 1487.06 144.064C1489.96 144.864 1493.26 144.464 1496.26 144.464C1501.96 144.464 1508.06 145.664 1513.75 144.564C1515.55 144.164 1516.75 143.364 1518.05 142.164C1521.05 139.465 1524.55 136.966 1528.75 136.966C1529.95 136.966 1531.15 136.966 1532.35 136.966C1534.85 136.966 1536.55 137.766 1538.95 138.465C1540.55 138.965 1542.75 139.265 1544.15 140.065C1544.45 140.265 1544.55 140.865 1544.85 141.065C1546.55 141.765 1547.55 140.965 1549.05 142.464C1549.35 142.764 1549.25 143.364 1549.55 143.564C1550.05 143.964 1551.65 144.064 1552.15 144.164C1556.84 144.964 1561.94 143.664 1566.44 145.664C1567.64 146.164 1568.74 147.063 1570.04 147.263C1571.94 147.663 1573.84 146.863 1575.64 146.464C1578.04 145.864 1580.44 146.264 1582.84 145.764C1583.14 141.165 1589.44 142.364 1592.64 142.564C1596.24 142.764 1599.33 146.464 1602.93 146.064C1604.33 145.864 1606.23 144.864 1607.53 144.364C1608.73 143.864 1609.13 143.064 1610.43 142.264C1613.23 140.465 1615.63 140.165 1618.93 140.165C1622.03 140.165 1624.93 140.165 1628.03 140.565C1630.83 140.865 1633.83 140.465 1636.53 140.965C1639.13 141.465 1641.82 142.065 1644.62 142.464C1646.32 142.764 1647.92 142.564 1649.52 143.064C1651.72 143.664 1653.62 143.964 1655.82 144.364C1658.32 144.864 1660.92 146.663 1663.52 147.263C1666.62 148.063 1670.02 147.463 1673.22 147.963C1675.82 148.263 1677.22 148.263 1679.52 147.263C1685.11 144.864 1691.61 146.663 1697.21 144.364C1699.71 143.364 1699.91 141.765 1701.81 140.465C1705.01 138.165 1708.91 138.865 1712.41 138.065C1716.71 137.166 1720.41 137.166 1725.01 137.066C1730.8 136.966 1735.1 141.165 1740.7 142.864C1744.1 143.864 1747.4 142.764 1750.8 143.264C1753.4 143.664 1756.3 145.364 1758.3 146.563C1759.7 147.363 1760.9 148.863 1762.7 149.663C1766.9 151.562 1771.5 150.962 1775.99 151.662C1780.79 152.362 1787.89 155.861 1792.69 152.862C1796.19 150.663 1797.99 145.864 1801.89 144.464C1806.89 142.764 1811.59 141.065 1816.38 138.765C1820.08 136.966 1821.78 137.166 1825.48 137.865C1829.78 138.765 1835.08 136.566 1839.18 138.065C1840.38 138.465 1840.88 139.165 1841.78 140.065C1842.58 140.865 1843.88 141.365 1844.48 142.264C1845.98 144.364 1844.88 144.864 1847.38 145.064C1849.08 145.164 1850.68 145.264 1852.38 145.464C1855.88 145.964 1859.28 146.763 1862.77 146.763C1863.17 146.763 1864.97 147.063 1865.37 146.863C1866.47 146.264 1866.17 144.964 1866.97 144.164C1868.27 142.964 1870.27 143.364 1871.87 143.464C1875.07 143.464 1878.37 143.364 1881.57 143.164C1884.47 142.964 1888.07 142.065 1890.97 142.464C1893.07 142.764 1893.97 144.864 1895.97 143.364C1896.77 142.764 1896.87 142.065 1897.87 141.665C1899.37 141.165 1901.17 141.965 1902.57 142.264C1906.56 142.964 1910.26 142.664 1914.26 142.264C1920.06 141.665 1925.76 142.264 1931.46 143.164C1935.16 143.664 1939.06 143.964 1942.66 145.364C1944.06 145.964 1945.66 147.063 1946.85 146.264C1948.35 145.164 1949.65 144.164 1950.55 142.564C1951.25 141.365 1950.15 139.765 1951.15 138.965C1952.25 138.165 1952.85 137.766 1954.05 137.266C1954.95 136.866 1955.95 137.166 1956.95 136.966C1957.85 136.766 1958.35 136.066 1959.35 136.166C1960.85 136.266 1962.05 138.065 1963.45 138.765C1966.05 140.165 1969.35 140.265 1972.15 141.165C1975.45 142.164 1978.25 144.064 1981.45 145.264C1982.85 145.864 1988.05 146.763 1990.35 147.563C1989.75 145.564 1990.45 140.465 1991.54 139.265C1992.14 138.465 1992.34 139.065 1993.14 138.665C1993.74 138.365 1994.24 137.865 1994.84 137.566C1998.14 136.066 2002.14 137.865 2005.64 136.766C2010.14 135.366 2013.94 134.366 2018.74 134.566C2021.64 134.666 2023.94 135.766 2026.74 136.466C2029.84 137.166 2031.34 139.765 2033.04 142.264C2033.44 142.864 2034.44 145.364 2035.23 145.564C2036.03 145.864 2037.13 145.064 2037.93 144.864C2040.43 144.264 2042.83 145.364 2045.03 143.864C2046.53 142.864 2047.93 141.865 2049.43 140.865C2051.13 139.665 2052.73 138.365 2054.33 137.066C2056.93 134.966 2059.83 135.366 2063.13 135.466C2066.93 135.566 2069.23 139.265 2073.03 139.665C2075.03 139.965 2076.43 139.065 2077.93 141.065C2078.82 142.164 2077.83 143.564 2078.72 144.464C2079.92 145.664 2081.72 145.064 2083.32 145.664C2087.42 146.963 2091.52 147.263 2095.92 147.263C2100.32 147.263 2105.82 146.264 2109.62 149.363C2110.72 150.263 2110.62 151.562 2112.12 152.062C2113.52 152.562 2116.62 151.962 2118.02 151.962C2121.02 151.962 2123.41 151.862 2126.31 150.962C2129.21 150.063 2131.21 147.163 2134.01 146.464C2135.61 146.064 2137.61 146.563 2139.31 146.264C2141.21 145.964 2142.91 145.464 2144.61 144.564C2146.11 143.864 2147.31 142.864 2148.51 141.865C2148.91 141.465 2149.21 140.965 2149.61 140.665C2151.21 139.165 2155.01 142.264 2156.21 140.465C2158.31 137.366 2161.81 138.065 2163.11 136.066C2163.31 135.666 2163.31 135.166 2163.71 134.966C2164.41 134.566 2165.31 134.766 2166.1 134.866C2169.7 135.066 2173.5 134.666 2177.1 134.966C2183.5 135.566 2188.4 139.965 2195 139.865C2197.5 139.865 2200.4 140.265 2202.9 139.865C2204 139.665 2205.1 139.165 2206.3 138.865C2208.1 138.465 2209.59 138.065 2211.49 138.065C2213.89 138.065 2216.69 138.565 2218.89 137.366C2220.69 136.466 2221.19 134.366 2222.79 133.367C2223.39 132.967 2225.49 132.367 2226.19 132.167C2227.89 131.867 2230.19 132.167 2231.89 132.167C2234.79 132.167 2237.69 131.967 2240.59 132.167C2241.49 132.267 2242.09 131.867 2242.99 132.467C2244.49 133.367 2244.39 137.865 2246.19 136.966C2247.19 136.466 2244.99 133.966 2245.49 133.067C2246.39 131.267 2249.59 132.167 2251.39 132.267C2252.49 132.267 2253.88 133.067 2254.68 133.067C2256.38 133.067 2256.88 131.267 2257.98 130.167C2259.38 128.868 2260.08 128.968 2261.78 128.968C2262.88 128.968 2263.78 129.267 2264.88 128.668C2266.28 127.868 2266.78 124.768 2268.58 125.468C2270.48 126.268 2271.28 128.568 2272.98 129.767C2273.78 130.267 2274.68 130.767 2275.58 130.867C2277.08 130.967 2278.78 129.967 2279.78 130.967C2280.38 131.667 2280.48 132.967 2281.38 132.967C2283.18 133.067 2284.18 130.567 2285.88 130.067C2288.18 129.367 2287.18 133.866 2287.18 134.966C2287.18 136.166 2287.38 136.566 2288.18 137.466C2290.18 139.665 2293.08 140.365 2295.98 140.465C2301.37 140.665 2307.07 140.565 2312.47 140.465C2313.97 140.465 2314.97 140.465 2316.37 139.665C2317.97 138.765 2319.17 137.766 2320.97 136.866C2324.37 135.266 2326.97 134.566 2330.57 134.566C2332.67 134.566 2334.77 134.466 2336.87 134.566C2340.47 134.666 2343.26 136.566 2346.46 137.965C2348.16 138.665 2349.66 138.765 2351.46 139.165C2353.06 139.565 2353.86 140.565 2355.36 141.165C2358.56 142.364 2362.76 141.065 2366.06 141.765C2367.36 142.065 2370.06 142.964 2371.36 142.564C2374.56 141.365 2376.06 135.766 2377.76 133.167C2379.16 131.067 2379.96 129.967 2382.36 129.567C2382.86 129.667 2383.46 129.767 2383.96 129.767C2384.45 129.567 2384.95 129.367 2385.35 129.067C2388.15 128.568 2391.15 128.668 2393.95 128.268C2398.35 127.668 2403.05 127.768 2407.35 128.668C2411.55 129.567 2414.95 131.267 2418.85 132.867C2421.25 133.866 2423.85 134.566 2425.95 135.566C2427.05 136.066 2428.05 136.966 2429.24 137.166C2432.14 137.865 2435.64 136.866 2438.54 136.366C2439.94 136.166 2444.04 136.066 2445.64 135.266C2447.44 131.967 2451.24 129.967 2454.84 129.267C2458.94 128.468 2463.64 125.768 2467.84 126.668C2470.34 127.168 2474.43 130.167 2476.93 129.667C2479.03 129.267 2481.63 126.568 2483.33 125.468C2483.93 125.068 2484.43 124.668 2485.03 124.369C2486.03 123.669 2487.03 122.869 2488.13 122.169C2489.73 121.069 2491.53 120.17 2493.53 120.769C2496.13 121.469 2497.33 123.969 2499.13 125.668C2500.93 127.468 2503.53 128.168 2505.43 129.767C2508.03 131.967 2509.53 131.567 2512.83 132.067C2519.52 132.867 2526.12 134.966 2532.82 135.766C2535.12 136.066 2538.32 135.066 2540.42 135.766C2541.82 136.266 2541.92 137.366 2543.32 137.366C2546.12 137.366 2548.72 136.466 2551.52 136.766C2554.92 137.166 2558.32 137.266 2561.71 137.366C2564.71 137.466 2567.71 137.366 2570.71 136.766C2573.31 136.166 2575.91 135.266 2578.41 134.466C2580.51 133.866 2579.81 133.866 2581.41 134.866C2591.61 141.265 2604 139.365 2615.4 142.264C2621 143.664 2626.1 144.964 2631.9 145.564C2635 145.864 2638 146.364 2640.9 147.463C2644.9 148.963 2648.09 147.963 2652.19 146.563C2656.09 145.264 2658.39 141.465 2662.09 140.165C2664.89 139.165 2668.39 139.965 2671.39 139.865C2676.59 139.865 2683.09 139.365 2687.79 142.164C2690.09 143.564 2691.18 145.164 2694.08 144.964C2695.78 143.664 2697.78 143.664 2699.88 143.664C2703.18 143.664 2707.88 142.764 2710.88 144.064C2715.78 146.064 2721.28 145.364 2726.58 145.364C2728.98 145.364 2731.28 145.564 2733.58 145.164C2736.47 144.764 2739.37 144.264 2742.47 144.464C2744.47 144.664 2746.37 145.264 2748.47 145.364C2753.37 145.564 2758.17 145.364 2763.07 145.764C2764.47 145.864 2765.87 145.864 2767.17 145.664C2771.47 144.964 2775.67 143.364 2779.56 141.565C2783.66 139.565 2786.66 136.766 2790.26 134.166C2790.96 134.566 2790.86 135.066 2791.26 135.766C2792.26 137.466 2793.56 138.965 2794.76 140.465C2796.66 142.964 2799.76 147.563 2802.96 148.463C2804.36 148.863 2806.16 148.263 2807.76 148.463C2812.66 149.163 2816.16 151.662 2820.46 153.662C2821.95 154.362 2823.65 154.462 2825.25 154.962C2826.05 155.262 2826.75 155.861 2827.45 156.161C2829.15 156.861 2829.15 156.161 2830.35 154.562C2832.35 151.962 2835.75 150.063 2838.35 147.863C2839.75 146.663 2840.85 146.464 2842.65 145.664C2844.75 144.664 2846.75 143.964 2848.95 143.364C2850.35 142.964 2851.45 142.864 2852.55 141.965C2854.85 140.065 2855.75 138.165 2859.05 137.566C2861.15 137.166 2863.65 137.266 2865.44 138.265C2867.44 139.365 2867.64 140.965 2868.74 142.764C2870.04 144.864 2872.44 144.164 2874.54 144.064C2876.94 143.964 2879.34 145.064 2881.74 144.464C2884.94 143.664 2886.14 140.065 2888.54 138.165C2892.14 135.266 2898.04 134.366 2902.54 134.266C2907.74 134.166 2912.83 135.666 2916.83 139.065C2919.13 141.065 2920.53 139.765 2923.53 138.865C2927.83 137.566 2930.13 135.266 2932.43 131.567C2935.33 126.768 2940.43 127.868 2944.63 124.269C2947.03 122.169 2947.93 122.669 2950.83 124.069C2952.43 124.868 2953.23 125.668 2954.42 127.068C2955.42 128.368 2956.02 130.267 2957.82 130.467C2959.52 130.667 2961.02 128.368 2962.42 129.667C2963.52 130.667 2961.82 132.467 2962.72 133.566C2964.32 135.366 2966.92 132.967 2968.82 131.967C2972.52 129.967 2975.52 130.267 2979.52 130.267C2983.22 130.267 2986.92 130.267 2990.72 130.267C2993.72 130.267 2997.11 130.767 2999.91 129.667C3002.41 128.668 3003.21 126.068 3005.81 125.268C3007.01 124.968 3008.41 124.968 3009.51 125.368C3011.51 126.068 3012.81 127.868 3014.51 129.067C3020.01 132.867 3027.51 127.968 3032.81 131.467C3033.41 131.867 3033.51 132.667 3034.21 133.067C3035.01 133.466 3036.51 133.267 3037.41 133.167C3038.91 133.067 3039.71 133.067 3041.1 133.666C3042.3 134.266 3043.1 135.966 3044.4 136.366C3053 139.265 3059.5 126.368 3067.8 130.667C3070.3 131.967 3072.9 132.767 3075.6 133.866C3077.7 134.766 3079.7 136.166 3081.9 136.466C3083.7 136.666 3084.3 136.766 3086.09 137.566C3087.99 138.465 3090.19 138.865 3092.29 138.965C3094.79 139.065 3095.99 138.365 3098.19 137.466C3099.19 137.066 3099.99 137.066 3100.99 136.466C3101.39 136.166 3102.19 135.166 3102.79 134.866C3103.69 134.566 3104.29 134.966 3105.09 134.766C3106.39 134.566 3107.29 133.966 3108.59 133.566C3109.89 133.167 3111.19 133.267 3112.49 132.867C3113.89 132.467 3114.99 131.667 3116.39 131.367C3120.69 130.467 3124.69 131.767 3128.79 129.867C3130.28 129.167 3131.48 129.067 3133.08 128.668C3135.18 128.168 3136.88 127.268 3139.08 127.168C3142.88 126.968 3146.78 127.168 3150.58 127.168C3152.08 127.168 3154.08 126.768 3155.58 127.268C3157.58 127.868 3158.78 129.967 3160.38 130.867C3162.68 132.067 3166.88 131.367 3169.58 131.367C3171.48 131.367 3172.77 131.167 3174.67 130.767C3177.57 130.067 3178.97 127.668 3181.87 129.767C3182.87 130.467 3183.87 131.567 3184.97 132.167C3186.37 132.967 3187.87 133.367 3189.27 134.266C3192.47 136.366 3192.17 136.866 3195.47 134.966C3197.27 133.866 3199.37 133.167 3201.17 132.167C3201.57 131.967 3203.97 129.967 3204.97 129.767C3206.17 129.467 3208.17 129.567 3209.37 129.767C3213.67 130.767 3215.36 137.666 3220.36 135.966C3224.36 134.566 3228.46 133.966 3232.76 133.766C3236.26 133.566 3235.36 135.166 3236.56 137.865C3237.06 138.965 3237.86 140.565 3238.66 141.365C3239.96 142.764 3242.06 142.164 3243.96 142.164C3246.96 142.164 3249.96 142.164 3252.96 142.164C3255.46 142.164 3256.06 142.065 3258.06 143.264C3262.75 146.164 3267.05 145.764 3272.05 143.664C3276.65 141.665 3282.05 143.664 3284.95 147.563C3285.35 148.063 3285.85 149.263 3286.35 149.563C3288.15 150.763 3289.65 149.263 3290.95 147.863C3291.35 147.463 3291.65 146.963 3292.15 146.763C3292.65 146.563 3293.15 146.763 3293.55 146.464C3294.05 146.164 3294.25 145.164 3294.65 144.664C3296.75 142.464 3300.95 141.965 3303.84 142.164C3310.24 142.564 3315.64 147.363 3321.84 148.963C3322.84 149.263 3323.74 149.163 3324.64 149.663C3325.24 150.063 3325.64 151.062 3326.24 151.362C3327.74 152.062 3330.54 150.263 3332.14 150.063C3334.14 149.763 3337.14 149.563 3339.14 149.963C3342.04 150.463 3343.24 151.962 3346.34 151.762C3348.13 151.662 3349.83 151.262 3351.33 150.163C3352.23 149.463 3352.83 148.563 3353.83 147.963C3356.13 146.663 3359.13 146.763 3361.63 146.663C3367.13 146.464 3375.93 146.264 3379.33 151.562C3380.73 153.762 3381.53 154.362 3384.03 154.262C3385.43 154.262 3387.83 153.662 3388.73 155.062C3389.33 156.061 3388.13 158.261 3388.93 159.161C3391.92 162.46 3395.52 158.061 3398.92 155.961C3402.32 153.862 3405.52 151.462 3408.92 149.363C3410.62 148.263 3415.32 144.464 3417.92 145.964C3419.02 146.563 3420.52 150.263 3420.82 150.962C3422.12 153.662 3421.72 157.961 3424.42 159.361C3426.12 160.26 3428.02 160.06 3430.02 160.16C3432.92 160.26 3436.11 159.461 3439.01 158.761C3441.21 158.161 3443.81 156.561 3445.61 158.361C3446.21 158.961 3445.91 160.06 3447.01 160.06C3447.81 160.06 3449.01 158.461 3449.71 157.961C3453.21 155.262 3458.71 155.661 3463.01 155.761C3466.41 155.761 3469.81 156.061 3473.21 156.461C3476.31 156.861 3479.7 157.961 3482.9 157.461C3488.8 156.561 3494.2 150.163 3500 148.663V78.679C3498.8 78.679 3497.6 81.5783 3496.4 81.5783C3492.5 81.6783 3488.5 81.4784 3484.6 81.5783C3481.6 81.6783 3478.2 81.7783 3475.31 82.2782C3474.11 82.4781 3473.41 83.278 3472.41 83.6779C3471.11 84.2777 3469.71 83.8778 3468.31 83.7778C3465.01 83.7778 3461.81 83.6779 3458.81 82.4781C3458.31 82.1782 3457.91 81.8783 3457.51 81.4784C3456.71 81.1784 3455.81 80.8785 3455.01 80.7785C3453.21 79.9787 3453.41 78.779 3452.11 77.7792C3450.81 76.6795 3449.91 77.3793 3448.21 77.2793C3446.01 77.0794 3444.81 75.4797 3443.01 74.5799C3440.91 73.5802 3438.71 74.28 3436.51 73.8801C3434.92 73.5802 3435.41 73.3802 3434.02 72.5804C3431.82 71.2807 3429.32 71.5806 3426.82 71.2807C3424.92 71.0807 3423.32 70.2809 3421.42 69.881C3420.42 69.6811 3419.52 69.6811 3418.52 69.6811C3415.52 69.6811 3412.62 69.1812 3409.62 69.3811C3407.22 69.5811 3404.02 69.4811 3402.42 71.4806C3400.92 73.4802 3401.12 76.5795 3399.52 78.479C3396.12 82.4781 3386.93 82.0782 3382.43 80.0787C3381.43 79.6788 3380.43 79.2789 3379.63 78.679C3378.03 77.4793 3377.23 75.7797 3377.13 73.5802C3376.23 71.1807 3375.23 68.7813 3374.33 66.2818C3374.03 65.582 3371.03 58.5836 3368.13 59.5834C3367.43 59.7833 3367.03 61.9828 3366.13 62.4827C3364.43 63.3825 3361.03 62.7826 3359.23 62.7826C3356.43 62.7826 3353.63 62.7826 3350.83 62.7826C3347.93 62.7826 3345.04 62.6827 3342.04 62.6827C3335.84 62.6827 3331.34 66.2818 3325.64 68.0814C3319.94 69.881 3313.44 68.0814 3307.74 67.6815C3304.44 67.4816 3301.05 68.2814 3297.75 67.3816C3294.05 66.3818 3290.35 64.9821 3286.55 64.3823C3285.25 64.1823 3285.25 64.6822 3283.65 64.1823C3281.75 63.5825 3279.95 61.7829 3278.35 60.5831C3276.75 59.3834 3274.85 58.3836 3274.05 56.4841C3272.85 53.8847 3272.85 50.5854 3272.25 47.7861C3270.45 47.5861 3270.65 50.5854 3270.25 51.8851C3269.45 54.5845 3267.75 57.2839 3264.95 57.8838C3258.56 59.1835 3250.66 59.2834 3244.16 58.5836C3236.46 57.6838 3227.76 56.684 3220.16 58.7836C3216.16 59.8833 3212.57 60.983 3208.47 61.183C3205.07 61.283 3201.67 61.183 3198.27 61.183C3195.27 61.183 3192.17 62.2828 3191.67 58.3836C3191.37 56.0842 3192.07 54.6845 3189.57 53.3848C3187.27 52.1851 3184.37 53.0849 3181.87 52.6849C3177.97 52.0851 3174.47 50.9853 3170.48 51.1853C3167.28 51.2853 3163.98 51.8851 3161.28 53.4848C3158.48 55.0844 3154.88 56.1841 3151.58 56.2841C3150.28 56.2841 3148.68 55.9842 3147.38 56.1841C3145.08 56.5841 3142.88 57.3839 3140.58 57.6838C3137.68 58.0837 3134.78 57.8838 3131.88 57.8838C3129.78 57.8838 3127.49 58.1837 3125.49 57.7838C3121.99 56.984 3118.69 54.8844 3115.39 53.4848C3112.89 52.385 3111.89 51.5852 3109.39 52.9849C3107.69 53.8847 3105.89 55.4843 3104.69 56.984C3103.59 58.4836 3103.59 60.3832 3102.49 61.7829C3101.59 62.8826 3099.29 63.8824 3098.09 64.6822C3096.19 65.9819 3093.09 65.7819 3090.79 66.0819C3087.69 66.4818 3087.99 66.2818 3087.19 69.1812C3086.39 72.3804 3084.39 71.1807 3082.3 69.981C3079.3 68.3814 3075.2 67.2816 3071.8 66.9817C3070 66.8817 3068.3 66.3818 3066.5 66.1819C3065.7 66.0819 3065.2 66.2818 3064.4 66.0819C3063.3 65.682 3062.8 64.7822 3061.5 64.4822C3059.4 64.0823 3056.5 64.5822 3054.4 64.5822C3045.2 64.6822 3036.41 64.2823 3028.71 58.7836C3026.81 57.4839 3026.61 57.6838 3025.01 56.884C3024.71 56.684 3024.41 55.7842 3024.11 55.5843C3022.21 54.4845 3020.11 53.0849 3018.21 51.9851C3016.41 51.0853 3015.01 50.7854 3012.91 51.6852C3011.91 52.0851 3010.41 53.5847 3009.91 53.9846C3007.31 55.9842 3004.51 57.8838 3001.61 59.4834C3000.61 60.0833 2999.11 59.9833 2998.21 60.4832C2997.32 60.9831 2996.81 62.7826 2996.12 63.4825C2993.42 66.1819 2989.02 66.1819 2985.52 66.1819C2982.72 66.1819 2979.82 66.6817 2977.32 65.382C2976.12 64.7822 2974.92 63.5825 2973.82 62.7826C2972.82 62.1828 2971.52 61.6829 2970.72 60.983C2970.02 60.3832 2969.52 59.6833 2969.22 58.7836C2968.62 57.0839 2969.22 57.2839 2967.52 56.4841C2962.62 54.1846 2955.12 58.5836 2950.83 60.7831C2949.93 61.183 2948.83 61.5829 2948.03 62.0828C2947.23 62.5827 2946.53 63.5825 2945.63 63.7824C2944.33 64.0823 2943.53 62.8826 2942.73 62.0828C2940.43 59.7833 2938.23 57.9837 2935.83 55.9842C2933.03 57.0839 2931.73 60.6831 2929.83 62.7826C2928.03 64.7822 2926.03 65.482 2923.43 65.382C2920.63 65.2821 2920.13 63.9824 2919.33 61.4829C2918.53 58.8835 2918.63 54.9844 2915.23 55.0844C2910.03 55.2844 2907.54 62.6827 2902.44 62.8826C2899.04 62.9826 2896.24 61.083 2892.74 61.183C2890.14 61.183 2885.84 62.0828 2883.84 60.1832C2883.14 59.5834 2882.84 57.8838 2882.24 57.2839C2881.14 56.3841 2877.34 56.884 2876.24 56.884C2873.84 56.984 2871.44 57.6838 2869.04 57.7838C2867.84 57.8838 2866.74 57.6838 2865.55 57.9837C2863.75 55.7842 2864.85 51.7852 2865.05 49.1857C2859.75 51.1853 2855.65 55.8842 2850.75 58.7836C2848.25 60.2832 2845.65 60.983 2843.05 62.2827C2841.55 62.9826 2841.05 63.6824 2839.25 63.3825C2837.15 63.0826 2835.05 62.2828 2832.85 61.9828C2828.55 61.383 2823.55 61.5829 2819.16 61.8828C2815.56 62.0828 2812.36 63.4825 2808.76 63.5825C2806.16 63.6824 2803.16 62.9826 2800.66 63.6824C2797.66 64.5822 2796.66 64.0823 2793.96 62.3827C2790.56 60.2832 2787.46 61.4829 2783.66 60.8831C2781.26 60.4832 2781.46 59.6833 2779.96 58.2837C2778.66 57.0839 2776.07 56.4841 2774.37 56.1841C2773.37 55.9842 2771.97 55.6843 2770.97 55.8842C2767.97 56.4841 2765.47 59.8833 2762.97 61.4829C2760.67 63.2825 2758.07 64.6822 2755.17 65.582C2753.77 65.7819 2752.47 66.1819 2751.17 66.5818C2750.67 66.8817 2750.17 66.7817 2749.67 66.2818C2748.87 65.0821 2748.17 63.9824 2747.37 62.7826C2746.07 61.8828 2742.97 62.5827 2741.27 62.5827C2733.58 62.5827 2725.88 62.5827 2718.18 62.5827C2714.38 62.5827 2711.28 62.5827 2708.48 65.682C2707.58 66.6817 2707.08 67.9815 2705.78 68.7813C2704.78 69.2812 2704.38 68.9812 2703.28 69.1812C2700.28 69.5811 2698.68 73.6801 2695.38 73.4802C2692.58 73.3802 2691.38 69.0812 2689.89 67.1816C2688.19 64.9821 2686.79 63.6824 2685.89 60.983C2683.29 60.3832 2679.89 65.0821 2678.09 66.7817C2675.79 68.7813 2673.69 69.0812 2671.09 70.1809C2668.39 71.2807 2666.39 73.6802 2663.49 74.6799C2661.29 75.4797 2660.79 74.0801 2658.79 74.0801C2657.59 74.0801 2656.09 74.9799 2654.99 75.3798C2652.39 76.2796 2650.49 77.6792 2647.69 77.5793C2645.4 77.4793 2643.1 77.3793 2640.9 78.3791C2639.2 79.0789 2638 78.879 2636.4 78.9789C2634.2 79.1789 2631.9 80.4786 2629.9 81.3784C2627.3 82.5781 2625.2 83.8778 2622.3 83.178C2619.9 82.5781 2617.8 80.7785 2615.5 79.9787C2611.6 78.579 2607.6 77.3793 2603.5 76.2796C2601.41 75.6797 2599.41 76.0796 2597.31 75.8796C2595.61 75.6797 2595.81 74.7799 2593.81 74.5799C2589.01 74.0801 2583.91 74.6799 2579.11 74.5799C2572.31 74.5799 2565.91 81.0785 2560.31 77.5793C2559.32 76.9794 2560.91 74.28 2559.91 73.4802C2556.72 70.9808 2556.12 67.8815 2554.42 65.1821C2552.72 62.4827 2553.32 62.8826 2550.62 63.9824C2548.92 64.6822 2546.92 66.5818 2545.02 66.7817C2542.32 67.1816 2542.82 64.3823 2540.32 64.0823C2532.62 63.1825 2524.82 80.5786 2518.72 74.48C2517.12 72.8803 2520.62 66.3818 2520.02 63.8824C2519.42 61.383 2515.43 68.7813 2513.03 67.8815C2511.23 67.1816 2512.33 66.2818 2511.43 65.2821C2510.33 63.9824 2508.63 63.4825 2506.83 63.2825C2503.53 62.8826 2500.23 64.1823 2496.83 64.4822C2493.83 64.6822 2490.83 64.1823 2487.93 63.4825C2485.73 62.9826 2483.53 62.3827 2481.43 61.5829C2479.93 60.983 2477.73 59.3834 2476.23 59.1835C2475.63 59.0835 2475.03 58.9835 2474.53 58.7836C2473.93 58.6836 2473.63 58.2837 2473.53 57.6838C2473.43 56.784 2465.54 55.1844 2464.54 55.1844C2462.54 55.1844 2460.54 56.0842 2459.24 53.9846C2457.74 51.5852 2458.64 44.8867 2455.74 43.487C2453.04 42.1873 2447.44 45.6865 2444.94 46.2864C2443.54 46.5863 2442.14 47.1862 2440.74 47.4861C2438.44 48.086 2435.34 47.6861 2433.14 47.6861C2429.44 47.6861 2425.45 48.086 2421.65 47.4861C2420.15 47.2862 2418.65 46.7863 2417.15 46.6863C2414.15 46.3864 2409.05 45.7865 2406.75 48.286C2405.75 49.3857 2405.95 50.2855 2404.65 51.1853C2403.05 52.385 2400.55 53.3848 2398.65 53.8847C2396.05 54.5845 2393.75 56.2841 2391.15 56.684C2388.85 57.0839 2386.45 56.784 2384.16 57.2839C2382.26 57.6838 2379.96 57.6838 2378.06 57.4838C2375.16 57.1839 2372.86 56.5841 2369.76 56.5841C2367.26 56.5841 2364.66 56.684 2362.16 56.5841C2360.36 56.4841 2359.56 56.784 2359.06 54.8844C2358.76 53.7847 2359.76 51.8851 2359.26 50.7854C2358.56 49.2857 2353.56 49.0858 2351.86 48.9858C2349.06 48.8858 2345.46 48.086 2342.96 49.4857C2340.07 51.1853 2336.77 53.2848 2334.27 55.6843C2331.77 57.9837 2330.27 60.3832 2326.67 61.283C2322.17 62.3827 2318.27 61.9828 2314.47 59.1835C2313.37 58.3836 2312.47 57.3839 2311.77 56.2841C2310.37 54.3846 2308.97 53.0849 2307.37 51.3852C2304.77 48.6859 2303.97 46.3864 2304.27 42.5873C2304.37 40.4877 2304.37 38.6881 2303.67 36.6886C2301.77 36.5886 2300.07 39.0881 2298.97 40.2878C2297.47 41.7874 2295.98 43.3871 2294.48 44.8867C2291.28 48.086 2287.58 50.6854 2284.28 53.7847C2282.98 54.9844 2281.28 57.4838 2279.28 57.3839C2276.28 57.2839 2274.88 54.1846 2273.18 52.385C2271.68 50.7854 2269.78 51.5852 2267.78 51.9851C2264.18 52.6849 2260.48 51.6852 2256.98 52.285C2252.49 52.9849 2248.89 56.4841 2244.19 56.784C2241.49 56.984 2234.29 56.4841 2232.49 54.0846C2231.79 53.0849 2232.09 52.0851 2231.29 51.1853C2230.49 50.2855 2229.39 50.0855 2228.29 49.8856C2226.39 49.5857 2224.09 49.6856 2222.19 49.9856C2220.09 50.3855 2218.39 51.3852 2216.19 51.5852C2214.79 51.6852 2213.39 51.4852 2211.99 51.4852C2210.39 51.4852 2208.4 51.8851 2206.9 51.3852C2205.4 50.8854 2204.7 49.3857 2203.2 48.9858C2201.8 48.5859 2200.6 49.0858 2199.6 49.8856C2197.6 51.4852 2196.4 52.9849 2194.1 54.4845C2188.3 58.1837 2182.5 61.4829 2177.4 66.2818C2175.6 67.9815 2173.9 69.6811 2172 71.2807C2166.7 75.6797 2160.51 76.5795 2153.71 76.2796C2149.51 76.1796 2145.31 75.5797 2141.11 74.6799C2137.41 73.7801 2133.81 71.8806 2130.01 71.4806C2123.71 70.6808 2117.52 74.7799 2111.22 74.6799C2108.52 74.6799 2105.82 74.6799 2103.02 74.6799C2100.52 74.6799 2098.92 74.48 2096.62 75.6797C2095.22 76.4795 2094.32 77.0794 2092.62 77.1794C2088.72 77.4793 2083.62 78.9789 2080.02 77.2793C2078.43 76.5795 2076.93 75.9796 2075.23 75.2798C2071.83 73.9801 2068.83 71.6806 2065.43 70.3809C2064.13 69.881 2062.53 69.2812 2061.13 69.0812C2057.73 68.4813 2053.73 69.1812 2050.33 69.1812C2045.13 69.1812 2039.83 68.8812 2034.73 67.5815C2028.14 65.8819 2024.74 58.6836 2017.84 57.2839C2015.44 56.784 2012.84 57.2839 2010.64 58.0837C2005.34 59.9833 2000.24 61.6829 1994.74 63.1825C1991.34 64.0823 1988.65 66.1819 1985.35 67.0817C1982.75 67.7815 1980.45 67.4816 1977.95 68.6813C1970.45 72.1805 1961.35 70.6808 1953.15 70.6808C1951.15 70.6808 1949.45 72.5804 1948.15 74.18C1947.55 74.9799 1947.15 75.6797 1946.26 76.1796C1945.46 76.6795 1945.36 76.9794 1944.86 77.5793C1944.36 78.1791 1943.26 78.4791 1942.46 78.779C1941.36 79.2789 1940.06 79.2789 1938.86 79.2789C1937.56 79.2789 1936.36 79.3788 1935.06 78.9789C1933.46 78.479 1931.76 78.679 1930.06 78.479C1928.96 78.3791 1927.26 78.679 1926.26 77.9792C1925.56 77.4793 1924.96 76.5795 1924.36 75.9796C1923.06 74.7799 1921.76 73.3802 1919.96 72.8803C1918.86 72.5804 1917.76 72.6804 1916.56 72.6804C1913.56 72.6804 1910.66 72.3804 1907.66 72.3804C1907.16 72.3804 1906.56 72.4804 1906.06 72.3804C1905.76 72.2805 1905.56 71.9805 1905.26 71.7806C1903.96 72.2805 1903.86 72.6804 1902.87 71.9805Z" fill="#F4EEE1"/>
<rect width="3500" height="124" fill="#F4EEE1"/>
<path d="M5399.87 71.9805C5394.27 71.9805 5387.67 70.3809 5383.67 75.1798C5383.07 75.9796 5382.17 76.9794 5381.67 77.8792C5381.27 78.679 5381.47 79.7787 5381.07 80.5786C5379.87 82.7781 5378.07 81.8783 5375.47 82.0782C5370.27 82.4781 5368.47 84.8776 5364.27 87.577C5361.27 89.4765 5358.57 90.5763 5354.88 90.3763C5351.08 90.1764 5349.08 88.2768 5346.48 85.7774C5344.88 84.1778 5343.18 81.8783 5340.78 81.2784C5339.38 80.9785 5337.88 81.2784 5336.48 81.2784C5331.58 81.3784 5326.68 81.0785 5321.78 81.2784C5318.08 81.3784 5314.48 81.8783 5310.89 82.0782C5307.09 82.2782 5303.39 81.8783 5299.79 82.978C5298.49 83.3779 5297.39 83.5779 5296.19 83.7778C5293.69 84.1777 5293.79 84.2777 5292.09 86.2773C5291.29 87.1771 5289.69 89.2766 5288.39 89.7765C5287.39 90.1764 5284.49 89.6765 5283.49 89.6765C5276.19 89.6765 5268.99 88.6767 5261.7 88.8767C5259.2 88.9767 5257.5 89.1766 5255.8 87.1771C5254.2 85.2775 5254.5 83.078 5253.2 81.2784C5251.1 78.1791 5243.3 79.4788 5240.3 79.7787C5229.7 80.9785 5218.51 81.0785 5207.91 79.4788C5206.41 79.2789 5205.41 78.779 5204.01 78.779C5200.91 78.679 5197.21 80.4786 5194.21 80.7785C5187.91 81.5783 5179.82 85.1775 5174.92 81.2784C5173.82 80.3786 5174.82 78.1791 5173.52 77.2793C5172.82 76.8794 5169.92 77.0794 5169.32 76.9794C5168.42 76.7794 5167.62 76.4795 5166.62 76.2796C5163.82 75.8796 5161.72 75.4797 5158.52 75.4797C5153.32 75.4797 5148.22 75.5797 5143.02 75.4797C5138.72 75.3798 5134.63 74.38 5130.43 73.9801C5128.33 73.7801 5126.83 74.38 5125.33 72.6804C5123.63 70.7808 5123.83 68.5813 5121.03 67.8815C5119.53 67.4816 5117.23 67.8815 5115.73 67.8815C5113.33 67.8815 5110.93 67.8815 5108.63 68.7813C5108.13 68.9812 5108.13 69.4811 5107.53 69.6811C5107.03 69.781 5106.43 69.6811 5105.83 69.781C5102.23 70.7808 5099.33 74.28 5096.13 76.0796C5092.54 78.0791 5088.34 78.479 5084.44 79.4788C5079.04 80.9785 5074.14 83.4779 5068.44 83.7778C5061.54 84.1777 5054.54 84.4777 5047.85 85.7774C5046.05 86.1773 5044.35 86.2773 5042.55 86.1773C5039.05 86.0773 5036.75 86.6772 5033.55 88.2768C5031.45 89.2766 5029.55 89.6765 5027.45 90.4763C5026.95 90.6763 5026.35 91.2761 5025.75 91.2761C5025.25 91.2761 5025.05 91.1762 5024.55 91.0762C5024.15 90.9762 5023.85 90.5763 5023.45 90.3763C5021.65 89.5765 5019.65 89.4765 5017.75 89.1766C5015.85 88.9767 5014.15 88.5767 5012.45 87.7769C5011.85 87.477 5011.45 87.0771 5010.75 86.8771C5009.45 86.5772 5007.75 87.1771 5006.36 87.0771C5004.16 86.9771 5002.76 86.1773 5000.86 85.2775C4997.36 83.6779 4995.06 83.5779 4991.36 83.5779C4989.76 83.5779 4987.76 83.278 4986.26 83.6779C4983.96 84.3777 4982.56 85.8774 4979.86 85.1775C4976.36 84.2777 4975.66 81.0785 4974.16 78.3791C4973.36 76.9794 4974.26 77.0794 4972.46 76.8794C4970.76 76.6795 4968.76 76.8794 4967.06 76.8794C4962.46 76.7794 4958.57 77.5793 4954.07 78.479C4948.67 79.5788 4943.07 80.2786 4937.67 80.8785C4932.57 81.4784 4927.47 82.3782 4922.17 82.7781C4916.88 83.078 4913.48 78.9789 4908.28 78.479C4902.08 77.7792 4894.58 78.2791 4889.08 81.0785C4887.68 81.7783 4886.38 82.878 4884.88 83.278C4883.28 83.6779 4882.28 83.278 4880.78 82.978C4876.58 82.1782 4871.79 82.7781 4867.59 82.7781C4864.69 82.7781 4861.89 82.7781 4858.99 82.7781C4857.29 82.7781 4855.09 82.3782 4853.39 82.6781C4852.29 82.878 4853.59 82.4781 4851.69 83.278C4849.39 84.2777 4847.89 84.9776 4845.29 85.2775C4837.49 86.0773 4829.9 87.8769 4822.2 89.2766C4818.6 89.9764 4815.4 90.2764 4811.7 90.2764C4809.3 90.2764 4805.7 92.1759 4803.5 90.7762C4801 89.2766 4801.7 84.8776 4801 82.3782C4799.6 77.8792 4796.6 77.5793 4792.5 78.879C4788 80.2786 4783.61 82.4781 4778.71 81.6783C4775.61 81.0785 4773.11 78.9789 4770.01 78.479C4766.51 77.9792 4762.91 79.3788 4759.51 79.6788C4756.91 79.9787 4753.91 79.8787 4751.41 80.8785C4747.21 82.5781 4744.21 84.6776 4739.52 84.7776C4736.42 84.7776 4733.32 84.6776 4730.22 84.7776C4723.62 84.9776 4718.92 84.2777 4713.02 81.6783C4711.12 80.8785 4709.82 79.6788 4707.72 79.4788C4704.02 79.1789 4700.22 81.8783 4696.93 82.878C4694.63 83.5779 4691.83 82.878 4689.53 83.6779C4687.43 84.3777 4686.73 85.6774 4684.43 85.9773C4682.23 86.2773 4679.93 85.8774 4677.73 86.5772C4675.83 87.1771 4674.53 88.7767 4673.13 89.4765C4672.13 89.8764 4669.53 89.9764 4669.13 89.9764C4666.43 90.3763 4663.73 91.2761 4661.03 90.9762C4656.04 90.3763 4651.84 86.2773 4647.94 83.4779C4643.34 80.1787 4639.74 78.2791 4634.24 78.3791C4630.64 78.4791 4627.04 78.3791 4623.44 78.3791C4619.54 78.3791 4616.04 78.579 4612.35 79.3788C4608.55 80.1787 4604.85 78.9789 4601.35 80.4786C4599.05 81.4784 4597.35 83.8778 4594.95 84.5777C4593.25 85.0775 4591.45 84.7776 4589.75 84.6776C4587.25 84.6776 4584.75 84.6776 4582.25 84.6776C4579.85 84.6776 4577.35 84.7776 4574.95 84.6776C4572.15 84.5777 4572.05 83.278 4569.75 82.3782C4564.36 80.3786 4557.76 80.6786 4551.66 80.8785C4548.76 80.9785 4546.36 81.8783 4543.56 82.1782C4540.96 82.4781 4538.06 82.1782 4535.36 82.1782C4530.26 82.1782 4525.26 82.1782 4520.17 82.1782C4516.97 82.1782 4513.67 81.9782 4511.07 80.1787C4508.57 78.479 4508.07 76.2796 4504.67 75.7797C4503.17 75.5797 4501.37 75.8796 4499.77 75.8796C4491.87 75.8796 4483.07 77.0794 4475.28 75.9796C4472.88 75.5797 4471.68 73.9801 4469.38 73.0803C4466.98 72.0805 4464.68 72.1805 4462.18 72.1805C4460.08 72.1805 4456.88 71.4806 4454.98 72.3804C4453.58 72.9803 4452.08 75.9796 4450.68 76.8794C4445.58 80.2786 4441.38 75.4797 4435.99 77.0794C4433.39 77.8792 4433.09 79.7788 4430.69 81.5783C4429.29 82.5781 4427.89 83.078 4426.29 83.6779C4424.49 84.3777 4422.89 85.1775 4420.49 84.7776C4416.79 84.0778 4413.79 79.3788 4410.79 77.0794C4409.69 77.4793 4408.69 78.1791 4407.89 79.0789C4406.39 79.6788 4404.89 79.8787 4403.29 79.4788C4401.59 80.4786 4401.49 82.5781 4399.69 83.5779C4398.99 83.9778 4396.39 84.0778 4395.39 84.2777C4393 84.9776 4390.8 85.7774 4388.2 85.8774C4385.2 86.0773 4382 85.8774 4378.9 85.8774C4377.9 85.8774 4374.8 85.3775 4373.9 86.0773C4373.2 86.5772 4373 87.9769 4372.4 88.5767C4370.9 90.2764 4367.8 91.5761 4365.8 92.7758C4361.4 95.4752 4355.9 94.7753 4350.9 96.175C4350.21 96.375 4349.51 96.9748 4348.51 97.0748C4345.81 97.7746 4343.01 96.6749 4340.81 97.1748C4340.31 97.0748 4339.81 97.0748 4339.31 96.9748C4337.41 98.7744 4336.01 100.874 4334.91 103.173C4332.51 106.473 4331.41 105.373 4327.31 104.073C4321.61 102.174 4315.51 99.0743 4311.41 94.6754C4310.31 93.4756 4308.91 91.2761 4307.11 91.1762C4306.22 91.1762 4305.62 91.676 4304.92 92.1759C4303.62 93.0757 4303.12 94.9753 4301.92 95.9751C4299.02 98.1746 4295.02 96.6749 4291.62 96.075C4288.02 95.3752 4284.72 93.6756 4281.22 92.9757C4277.52 92.2759 4273.52 92.9757 4269.82 92.8758C4267.22 92.7758 4265.52 93.5756 4263.02 94.4754C4256.33 96.9748 4247.83 95.2752 4241.03 94.1755C4237.33 93.5756 4233.73 93.5756 4230.13 93.6756C4228.13 93.6756 4224.03 94.6754 4222.33 93.2757C4221.63 92.6758 4221.13 90.9762 4220.53 90.1764C4219.43 88.6767 4218.14 87.7769 4216.44 86.8771C4213.64 85.2775 4210.64 84.2777 4207.54 83.3779C4204.04 82.3782 4200.44 82.978 4196.84 83.278C4191.44 83.7778 4186.04 83.6779 4180.64 83.6779C4177.84 83.6779 4175.54 83.7778 4173.05 82.878C4170.85 82.1782 4168.95 81.4784 4166.65 81.1784C4162.15 80.6785 4157.55 81.1784 4153.05 81.1784C4150.05 81.1784 4146.45 80.6786 4143.45 81.3784C4140.65 82.0782 4138.55 83.178 4135.75 83.5779C4128.66 84.5777 4120.46 90.0764 4113.06 86.8771C4111.56 86.1773 4110.46 85.1775 4108.86 84.8776C4107.66 84.6776 4106.06 85.0775 4104.86 85.0775C4100.66 85.0775 4097.96 84.1777 4094.36 82.4781C4090.66 80.7785 4087.27 79.3788 4084.27 76.4795C4081.57 73.6801 4080.07 73.8801 4076.07 73.6801C4073.37 73.5802 4070.87 73.2802 4068.27 72.3804C4066.77 71.8806 4065.47 71.1807 4063.87 70.9808C4059.77 70.5809 4054.57 72.0805 4050.47 72.3804C4044.27 72.7804 4041.88 75.4797 4036.78 77.9792C4034.58 79.0789 4032.38 79.2789 4030.18 80.1787C4029.08 80.6785 4027.88 81.7783 4026.88 82.1782C4024.38 83.078 4020.08 82.3782 4017.48 82.3782C4008.78 82.3782 3999.49 81.2784 3990.99 82.1782C3987.09 82.5781 3984.09 85.4775 3980.39 86.0773C3971.69 87.477 3963.09 89.9764 3954.3 91.0762C3947.2 91.876 3939.9 91.5761 3933.7 87.677C3932.1 86.6772 3930.3 84.2777 3928.6 83.6779C3924.5 82.3782 3918.8 83.078 3914.6 82.4781C3904.41 80.8785 3894.71 78.3791 3884.31 78.579C3881.01 78.679 3876.81 78.9789 3874.21 81.2784C3871.01 84.0778 3871.31 85.7774 3867.12 86.1773C3859.82 86.7772 3847.62 85.3775 3841.92 80.4786C3838.92 77.8792 3838.12 74.0801 3835.82 71.2807C3834.62 69.881 3835.62 70.4809 3834.22 69.781C3833.02 69.1812 3828.02 69.981 3826.42 69.981C3824.13 69.981 3820.63 70.2809 3818.33 69.3811C3815.03 68.1814 3811.03 64.0823 3807.23 64.9821C3803.63 65.782 3800.53 68.5813 3796.53 68.7813C3791.33 69.0812 3788.23 69.6811 3783.13 71.4806C3778.64 73.0803 3774.44 73.7801 3769.74 73.6801C3764.14 73.5802 3758.44 73.6801 3752.84 73.7801C3739.84 73.9801 3727.75 70.1809 3714.95 69.781C3711.75 69.6811 3708.95 68.7813 3705.85 68.5813C3699.55 68.1814 3692.76 69.881 3686.46 68.6813C3681.36 67.6815 3676.96 64.8822 3672.46 62.4827C3670.26 61.283 3667.76 59.7833 3665.26 59.1835C3664.36 58.9835 3663.36 59.1835 3662.56 58.8835C3660.86 58.3836 3659.66 56.884 3657.96 56.0842C3655.46 54.8844 3653.36 54.3846 3650.56 54.4845C3642.57 54.7845 3634.57 52.8849 3626.57 52.7849C3618.97 52.6849 3621.57 43.787 3613.97 43.787C3611.07 43.787 3607.77 44.1869 3604.98 43.787C3603.28 43.587 3601.78 42.8872 3599.98 42.8872C3599.08 42.8872 3598.18 42.9872 3597.38 42.8872C3595.88 42.5873 3595.78 41.6875 3593.58 41.3875C3590.98 40.9876 3588.18 41.6875 3585.58 41.2876C3583.78 40.9876 3582.98 40.1878 3581.28 39.6879C3578.58 38.9881 3575.18 49.5857 3572.38 49.5857C3569.48 49.5857 3566.58 49.5857 3563.78 49.5857C3561.39 49.5857 3558.49 58.0837 3556.49 59.5834C3553.69 61.6829 3549.79 70.4809 3546.29 70.4809C3543.69 70.4809 3541.09 70.4809 3538.39 70.4809C3535.89 70.4809 3534.29 71.0807 3532.49 69.1812C3527.69 64.0823 3529.69 61.183 3522.79 63.4825C3520.89 64.0823 3519.09 65.2821 3517 65.9819C3514.4 66.9817 3511.7 67.2816 3509 67.6815C3507.9 67.8815 3497.4 78.779 3497 79.0789V149.063C3497.6 148.763 3501 141.865 3501.5 141.665C3504.3 140.565 3507.6 138.065 3510.1 136.266C3512.7 134.366 3514.8 133.666 3517.9 134.366C3523.79 135.766 3525.19 136.466 3531.69 134.266C3533.19 133.866 3534.29 132.967 3535.99 132.767C3539.49 132.367 3542.19 130.867 3545.69 129.967C3550.19 128.768 3549.39 130.367 3552.99 131.267C3557.29 132.267 3562.19 130.167 3566.38 129.667C3568.48 129.367 3572.18 128.868 3574.38 129.467C3576.08 129.867 3576.98 131.367 3578.58 131.867C3580.78 132.567 3583.88 131.967 3586.08 132.367C3590.38 133.067 3594.58 134.966 3599.08 134.666C3603.18 134.366 3608.47 133.367 3612.17 131.467C3613.47 130.767 3614.57 129.767 3615.87 129.067C3617.27 128.368 3618.87 128.268 3620.37 127.868C3622.47 127.268 3623.67 127.068 3625.87 127.068C3627.67 127.068 3631.57 126.268 3632.97 127.568C3634.47 128.968 3634.17 131.667 3635.87 133.067C3637.77 134.666 3642.37 133.666 3644.67 133.866C3652.56 134.566 3661.16 134.966 3668.56 138.165C3670.96 139.165 3677.16 144.064 3680.46 142.964C3681.36 142.664 3682.06 141.665 3682.96 141.165C3685.56 139.765 3688.16 140.565 3690.96 140.365C3696.15 140.065 3701.35 139.165 3706.55 138.865C3710.45 138.665 3715.95 137.865 3719.85 138.765C3722.75 139.465 3724.15 141.365 3725.75 143.464C3727.35 145.564 3728.15 146.863 3731.05 147.063C3733.15 147.263 3735.55 146.963 3737.64 146.963C3739.64 146.963 3742.54 147.763 3744.54 147.763C3746.14 147.763 3748.94 148.363 3750.44 147.463C3751.64 146.763 3751.94 145.764 3752.64 144.464C3753.64 142.464 3753.74 141.365 3755.94 141.065C3758.34 140.765 3760.54 141.865 3762.94 141.965C3764.74 142.065 3766.74 142.164 3768.44 141.765C3770.44 141.265 3769.94 140.565 3772.84 141.465C3774.04 141.865 3775.24 142.564 3776.44 142.964C3779.04 143.864 3781.34 145.064 3783.83 146.064C3786.73 147.163 3789.33 147.063 3792.33 147.063C3797.13 146.963 3801.93 146.963 3806.73 147.063C3810.23 147.163 3814.33 148.363 3817.83 147.963C3818.73 147.863 3819.53 147.063 3820.33 147.163C3821.43 147.163 3822.63 148.363 3823.43 149.063C3824.83 150.263 3826.52 151.762 3827.32 153.362C3827.72 154.162 3827.52 155.861 3828.42 155.761C3830.32 155.661 3830.42 153.662 3831.92 152.662C3834.62 150.863 3834.12 149.963 3837.22 149.463C3839.22 149.163 3841.32 148.763 3843.32 148.363C3847.52 147.563 3851.62 146.464 3855.62 145.064C3858.42 144.064 3860.52 142.564 3863.02 141.465C3865.92 140.065 3868.72 141.965 3871.51 142.964C3874.61 144.064 3877.81 144.564 3881.11 144.764C3888.91 145.264 3898.71 146.464 3905.71 142.764C3909.51 140.765 3910.21 137.865 3914.9 138.765C3920.7 139.865 3924.7 143.464 3930.9 143.664C3933.8 143.764 3936.6 143.764 3939.5 143.764C3941.7 143.764 3945.9 144.464 3947.8 143.664C3950.9 142.364 3950.8 138.265 3954.6 137.666C3955.6 137.566 3956.59 137.566 3957.49 137.865C3958.99 138.365 3959.89 139.565 3960.99 140.565C3964.29 143.664 3969.89 145.964 3974.39 146.064C3976.39 146.364 3977.99 146.663 3980.09 146.663C3982.59 146.663 3985.19 146.563 3987.69 146.663C3988.89 146.563 3990.09 146.763 3991.09 147.263C3991.39 147.463 3991.69 147.763 3991.99 148.163C3993.79 148.763 3997.29 148.663 3999.19 148.163C3999.39 145.164 4002.58 143.564 4004.68 141.965C4005.88 140.965 4005.58 140.865 4007.28 140.865C4010.08 140.865 4013.28 140.665 4015.98 141.665C4018.48 142.564 4020.58 144.264 4022.98 145.564C4028.28 148.363 4027.58 153.262 4032.18 157.161C4033.58 158.361 4034.68 156.361 4036.08 154.462C4038.58 150.962 4042.88 149.163 4046.57 146.963C4051.77 143.964 4056.77 145.464 4062.27 143.964C4067.57 142.464 4072.17 140.965 4077.77 140.965C4079.97 140.965 4082.17 140.765 4084.37 140.965C4085.97 141.065 4087.27 141.765 4088.76 141.865C4090.06 141.965 4091.36 141.565 4092.66 141.965C4092.86 142.764 4092.56 143.564 4092.66 144.364C4092.76 145.364 4093.36 146.164 4093.76 147.063C4094.26 148.363 4094.56 148.963 4095.26 150.063C4095.76 150.863 4096.36 150.563 4096.06 151.962C4097.16 152.662 4098.36 152.962 4099.66 152.962C4101.56 153.362 4102.86 154.862 4105.06 154.962C4110.06 155.361 4113.96 148.663 4117.76 146.264C4120.46 144.464 4122.76 142.264 4125.16 140.165C4128.16 137.466 4129.06 138.065 4130.46 141.665C4131.55 144.764 4132.95 147.763 4134.15 150.863C4134.65 152.262 4134.45 155.062 4135.95 154.962C4137.95 154.762 4139.35 148.163 4141.25 147.363C4143.15 146.563 4146.35 147.263 4148.55 147.263C4152.05 147.263 4154.85 148.563 4158.35 148.963C4161.65 149.363 4164.45 149.663 4167.65 150.663C4168.25 150.863 4170.25 151.162 4170.95 151.762C4171.75 152.362 4172.65 154.162 4173.35 154.962C4174.65 156.461 4176.14 157.961 4176.64 159.86C4177.04 161.26 4177.34 162.66 4178.44 163.46C4181.54 165.759 4187.24 159.361 4189.24 156.961C4191.14 154.662 4191.84 155.062 4194.54 154.362C4202.04 152.162 4209.94 151.662 4217.74 151.462C4220.73 151.362 4222.03 150.563 4223.63 152.362C4223.83 152.562 4223.73 152.862 4223.93 153.062C4224.33 153.462 4224.93 153.162 4225.53 153.162C4228.63 152.862 4231.53 154.062 4234.53 155.461C4236.93 156.561 4238.83 159.061 4241.23 159.96C4243.63 160.76 4244.93 158.561 4247.03 158.261C4250.23 157.861 4253.63 158.461 4256.83 158.161C4259.93 157.861 4262.92 157.561 4266.02 156.961C4271.22 155.961 4275.82 154.962 4281.12 154.962C4285.62 154.962 4290.02 153.662 4294.52 153.362C4296.52 153.262 4300.02 152.662 4302.02 153.262C4303.72 153.762 4303.22 152.162 4303.32 151.162C4303.52 149.763 4304.72 147.563 4306.22 149.563C4306.12 149.763 4306.12 149.863 4306.02 150.063C4308.01 146.763 4309.81 146.364 4313.61 146.264C4317.41 146.164 4319.41 147.163 4322.01 150.063C4324.01 152.262 4325.81 155.361 4328.81 156.161C4331.01 156.761 4333.91 156.261 4336.11 156.261C4339.41 156.261 4342.11 154.962 4345.01 153.562C4346.51 152.862 4347.61 153.062 4349.31 152.962C4352.5 152.862 4351.8 155.262 4351.5 157.461C4351.2 159.86 4352.8 160.76 4355.3 160.36C4360.2 159.561 4364.1 154.562 4367.9 151.662C4370.5 149.663 4373.7 149.063 4376.9 148.463C4379.3 148.063 4382.2 148.763 4384.5 148.263C4388.6 147.363 4388.5 142.664 4390.4 139.765C4393.6 134.666 4399.69 142.864 4405.49 143.164C4407.99 143.264 4410.09 134.566 4412.49 134.766C4417.19 135.166 4421.29 137.166 4421.69 142.564C4422.09 146.464 4419.59 151.762 4422.39 154.362C4424.69 156.561 4429.79 151.662 4432.59 150.063C4435.79 148.163 4436.69 145.264 4439.18 142.664C4441.68 140.065 4442.98 139.665 4445.78 138.365C4448.88 136.866 4451.48 134.666 4454.08 132.467C4456.38 130.467 4458.68 137.865 4461.68 136.766C4463.68 135.966 4465.58 135.166 4467.48 134.366C4471.18 132.767 4473.68 124.968 4475.48 128.068C4476.98 130.767 4478.48 133.666 4479.58 136.566C4480.48 138.965 4480.58 141.665 4481.58 143.864C4482.57 146.064 4481.67 145.364 4483.27 145.164C4483.57 145.164 4483.87 144.864 4484.17 144.664C4486.47 143.764 4489.07 143.564 4491.57 143.364C4493.17 143.264 4494.67 143.664 4495.47 142.564C4495.97 141.865 4496.27 140.865 4497.07 140.465C4498.07 139.965 4499.27 139.665 4500.37 139.365C4507.57 137.066 4516.97 142.864 4522.57 138.065C4524.97 135.966 4520.37 130.967 4522.97 129.167C4528.76 125.068 4536.16 133.067 4543.06 133.367C4546.86 133.566 4550.46 132.867 4554.16 134.066C4555.96 134.666 4557.86 134.566 4559.56 135.266C4561.96 136.166 4564.46 137.566 4566.86 138.565C4567.66 138.865 4569.45 139.065 4569.95 139.865C4570.25 140.365 4569.85 141.165 4570.15 141.665C4571.55 143.764 4573.85 139.965 4575.05 139.065C4575.95 138.465 4576.45 137.766 4577.25 137.066C4580.15 134.566 4583.75 134.166 4587.45 133.566C4589.05 133.367 4593.05 133.267 4594.35 130.867C4595.05 129.667 4597.75 130.667 4599.05 130.667C4602.45 130.667 4605.85 131.067 4609.25 131.367C4614.34 131.667 4619.34 131.467 4624.44 131.467C4627.44 131.467 4634.44 131.267 4636.44 134.366C4637.54 136.066 4637.54 136.766 4639.54 137.865C4641.44 138.965 4642.84 139.165 4645.14 139.065C4647.44 139.065 4650.34 138.565 4652.64 138.965C4654.34 139.265 4656.04 140.465 4657.73 140.965C4660.43 141.865 4663.03 144.264 4665.83 144.864C4667.43 145.164 4667.53 144.664 4668.83 144.264C4671.33 143.464 4673.93 143.264 4676.63 142.464C4680.13 141.365 4681.53 138.265 4684.73 136.866C4686.13 136.266 4689.13 135.766 4690.53 135.366C4694.23 134.466 4697.63 134.066 4701.22 132.567C4705.32 130.867 4710.12 129.267 4714.72 129.167C4715.72 129.167 4716.62 129.267 4717.52 129.667C4720.12 130.767 4722.42 133.167 4724.42 135.066C4725.22 135.866 4726.42 136.566 4726.72 137.666C4727.12 138.865 4726.32 140.065 4726.82 141.265C4727.72 141.465 4728.52 141.465 4729.42 141.465C4732.92 141.365 4736.52 141.165 4740.02 141.065C4741.12 141.065 4745.21 141.665 4746.21 140.865C4746.81 140.365 4746.71 139.665 4746.91 138.965C4747.41 137.666 4748.21 136.566 4749.31 135.866C4751.81 134.266 4755.21 134.766 4757.61 136.266C4759.91 137.566 4761.41 138.165 4764.21 138.165C4765.91 138.165 4767.21 138.865 4768.81 138.565C4770.91 138.165 4773.21 137.666 4775.31 137.266C4776.81 136.966 4778.31 136.066 4780.01 136.466C4780.61 136.566 4780.71 137.166 4781.21 137.266C4782.01 137.466 4783.21 137.066 4784.01 137.466C4785.51 138.265 4784.91 140.065 4784.91 141.465C4785.01 142.964 4785.11 142.564 4785.81 143.964C4786.21 144.964 4786.41 145.864 4786.81 146.863C4787.41 148.063 4788.7 150.063 4790.1 150.563C4794.9 152.162 4800.5 149.163 4804.9 148.063C4807.2 147.563 4808 146.763 4809.5 144.964C4810.7 143.464 4812 142.864 4813.4 141.665C4815.9 139.565 4815.4 138.265 4818.8 137.666C4820.4 137.366 4822 137.366 4823.6 137.066C4825 136.866 4826.4 136.366 4827.8 136.666C4829.4 136.966 4831 138.365 4832.79 138.665C4835.89 139.265 4839.29 138.565 4842.19 139.965C4843.09 140.365 4842.79 140.565 4843.99 140.865C4846.89 141.365 4848.69 140.465 4851.29 139.565C4854.99 138.265 4859.99 139.165 4863.99 139.165C4866.49 139.165 4868.99 139.065 4871.39 139.165C4873.29 139.265 4875.88 139.665 4877.18 140.865C4878.68 142.164 4878.68 143.064 4881.18 142.564C4882.88 142.164 4883.28 141.165 4884.58 140.165C4885.78 139.165 4886.88 138.865 4888.28 138.365C4890.68 137.566 4892.58 137.566 4895.08 137.566C4897.48 137.566 4900.08 137.166 4902.28 138.365C4903.28 138.965 4903.78 139.765 4904.88 140.065C4906.68 140.665 4906.08 139.965 4907.88 141.565C4909.38 142.964 4907.98 142.364 4910.08 142.564C4911.28 142.764 4912.88 142.564 4914.08 142.564C4916.58 142.564 4919.97 143.164 4922.27 142.364C4924.07 141.765 4925.87 140.665 4927.67 140.265C4930.57 139.565 4933.77 139.965 4936.67 140.565C4940.17 141.265 4943.77 141.865 4947.27 142.664C4950.47 143.464 4953.67 144.364 4956.97 145.064C4959.57 145.664 4965.86 147.663 4967.36 145.164C4968.96 142.564 4972.16 141.765 4974.06 141.365C4977.86 140.465 4980.56 143.164 4984.06 144.064C4986.96 144.864 4990.26 144.464 4993.26 144.464C4998.96 144.464 5005.06 145.664 5010.75 144.564C5012.55 144.164 5013.75 143.364 5015.05 142.164C5018.05 139.465 5021.55 136.966 5025.75 136.966C5026.95 136.966 5028.15 136.966 5029.35 136.966C5031.85 136.966 5033.55 137.766 5035.95 138.465C5037.55 138.965 5039.75 139.265 5041.15 140.065C5041.45 140.265 5041.55 140.865 5041.85 141.065C5043.55 141.765 5044.55 140.965 5046.05 142.464C5046.35 142.764 5046.25 143.364 5046.55 143.564C5047.05 143.964 5048.65 144.064 5049.15 144.164C5053.84 144.964 5058.94 143.664 5063.44 145.664C5064.64 146.164 5065.74 147.063 5067.04 147.263C5068.94 147.663 5070.84 146.863 5072.64 146.464C5075.04 145.864 5077.44 146.264 5079.84 145.764C5080.14 141.165 5086.44 142.364 5089.64 142.564C5093.24 142.764 5096.33 146.464 5099.93 146.064C5101.33 145.864 5103.23 144.864 5104.53 144.364C5105.73 143.864 5106.13 143.064 5107.43 142.264C5110.23 140.465 5112.63 140.165 5115.93 140.165C5119.03 140.165 5121.93 140.165 5125.03 140.565C5127.83 140.865 5130.83 140.465 5133.53 140.965C5136.13 141.465 5138.82 142.065 5141.62 142.464C5143.32 142.764 5144.92 142.564 5146.52 143.064C5148.72 143.664 5150.62 143.964 5152.82 144.364C5155.32 144.864 5157.92 146.663 5160.52 147.263C5163.62 148.063 5167.02 147.463 5170.22 147.963C5172.82 148.263 5174.22 148.263 5176.52 147.263C5182.11 144.864 5188.61 146.663 5194.21 144.364C5196.71 143.364 5196.91 141.765 5198.81 140.465C5202.01 138.165 5205.91 138.865 5209.41 138.065C5213.71 137.166 5217.41 137.166 5222.01 137.066C5227.8 136.966 5232.1 141.165 5237.7 142.864C5241.1 143.864 5244.4 142.764 5247.8 143.264C5250.4 143.664 5253.3 145.364 5255.3 146.563C5256.7 147.363 5257.9 148.863 5259.7 149.663C5263.9 151.562 5268.5 150.962 5272.99 151.662C5277.79 152.362 5284.89 155.861 5289.69 152.862C5293.19 150.663 5294.99 145.864 5298.89 144.464C5303.89 142.764 5308.59 141.065 5313.38 138.765C5317.08 136.966 5318.78 137.166 5322.48 137.865C5326.78 138.765 5332.08 136.566 5336.18 138.065C5337.38 138.465 5337.88 139.165 5338.78 140.065C5339.58 140.865 5340.88 141.365 5341.48 142.264C5342.98 144.364 5341.88 144.864 5344.38 145.064C5346.08 145.164 5347.68 145.264 5349.38 145.464C5352.88 145.964 5356.28 146.763 5359.77 146.763C5360.17 146.763 5361.97 147.063 5362.37 146.863C5363.47 146.264 5363.17 144.964 5363.97 144.164C5365.27 142.964 5367.27 143.364 5368.87 143.464C5372.07 143.464 5375.37 143.364 5378.57 143.164C5381.47 142.964 5385.07 142.065 5387.97 142.464C5390.07 142.764 5390.97 144.864 5392.97 143.364C5393.77 142.764 5393.87 142.065 5394.87 141.665C5396.37 141.165 5398.17 141.965 5399.57 142.264C5403.56 142.964 5407.26 142.664 5411.26 142.264C5417.06 141.665 5422.76 142.264 5428.46 143.164C5432.16 143.664 5436.06 143.964 5439.66 145.364C5441.06 145.964 5442.66 147.063 5443.85 146.264C5445.35 145.164 5446.65 144.164 5447.55 142.564C5448.25 141.365 5447.15 139.765 5448.15 138.965C5449.25 138.165 5449.85 137.766 5451.05 137.266C5451.95 136.866 5452.95 137.166 5453.95 136.966C5454.85 136.766 5455.35 136.066 5456.35 136.166C5457.85 136.266 5459.05 138.065 5460.45 138.765C5463.05 140.165 5466.35 140.265 5469.15 141.165C5472.45 142.164 5475.25 144.064 5478.45 145.264C5479.85 145.864 5485.05 146.763 5487.35 147.563C5486.75 145.564 5487.45 140.465 5488.54 139.265C5489.14 138.465 5489.34 139.065 5490.14 138.665C5490.74 138.365 5491.24 137.865 5491.84 137.566C5495.14 136.066 5499.14 137.865 5502.64 136.766C5507.14 135.366 5510.94 134.366 5515.74 134.566C5518.64 134.666 5520.94 135.766 5523.74 136.466C5526.84 137.166 5528.34 139.765 5530.04 142.264C5530.44 142.864 5531.44 145.364 5532.23 145.564C5533.03 145.864 5534.13 145.064 5534.93 144.864C5537.43 144.264 5539.83 145.364 5542.03 143.864C5543.53 142.864 5544.93 141.865 5546.43 140.865C5548.13 139.665 5549.73 138.365 5551.33 137.066C5553.93 134.966 5556.83 135.366 5560.13 135.466C5563.93 135.566 5566.23 139.265 5570.03 139.665C5572.03 139.965 5573.43 139.065 5574.93 141.065C5575.82 142.164 5574.83 143.564 5575.72 144.464C5576.92 145.664 5578.72 145.064 5580.32 145.664C5584.42 146.963 5588.52 147.263 5592.92 147.263C5597.32 147.263 5602.82 146.264 5606.62 149.363C5607.72 150.263 5607.62 151.562 5609.12 152.062C5610.52 152.562 5613.62 151.962 5615.02 151.962C5618.02 151.962 5620.41 151.862 5623.31 150.962C5626.21 150.063 5628.21 147.163 5631.01 146.464C5632.61 146.064 5634.61 146.563 5636.31 146.264C5638.21 145.964 5639.91 145.464 5641.61 144.564C5643.11 143.864 5644.31 142.864 5645.51 141.865C5645.91 141.465 5646.21 140.965 5646.61 140.665C5648.21 139.165 5652.01 142.264 5653.21 140.465C5655.31 137.366 5658.81 138.065 5660.11 136.066C5660.31 135.666 5660.31 135.166 5660.71 134.966C5661.41 134.566 5662.31 134.766 5663.1 134.866C5666.7 135.066 5670.5 134.666 5674.1 134.966C5680.5 135.566 5685.4 139.965 5692 139.865C5694.5 139.865 5697.4 140.265 5699.9 139.865C5701 139.665 5702.1 139.165 5703.3 138.865C5705.1 138.465 5706.59 138.065 5708.49 138.065C5710.89 138.065 5713.69 138.565 5715.89 137.366C5717.69 136.466 5718.19 134.366 5719.79 133.367C5720.39 132.967 5722.49 132.367 5723.19 132.167C5724.89 131.867 5727.19 132.167 5728.89 132.167C5731.79 132.167 5734.69 131.967 5737.59 132.167C5738.49 132.267 5739.09 131.867 5739.99 132.467C5741.49 133.367 5741.39 137.865 5743.19 136.966C5744.19 136.466 5741.99 133.966 5742.49 133.067C5743.39 131.267 5746.59 132.167 5748.39 132.267C5749.49 132.267 5750.88 133.067 5751.68 133.067C5753.38 133.067 5753.88 131.267 5754.98 130.167C5756.38 128.868 5757.08 128.968 5758.78 128.968C5759.88 128.968 5760.78 129.267 5761.88 128.668C5763.28 127.868 5763.78 124.768 5765.58 125.468C5767.48 126.268 5768.28 128.568 5769.98 129.767C5770.78 130.267 5771.68 130.767 5772.58 130.867C5774.08 130.967 5775.78 129.967 5776.78 130.967C5777.38 131.667 5777.48 132.967 5778.38 132.967C5780.18 133.067 5781.18 130.567 5782.88 130.067C5785.18 129.367 5784.18 133.866 5784.18 134.966C5784.18 136.166 5784.38 136.566 5785.18 137.466C5787.18 139.665 5790.08 140.365 5792.98 140.465C5798.37 140.665 5804.07 140.565 5809.47 140.465C5810.97 140.465 5811.97 140.465 5813.37 139.665C5814.97 138.765 5816.17 137.766 5817.97 136.866C5821.37 135.266 5823.97 134.566 5827.57 134.566C5829.67 134.566 5831.77 134.466 5833.87 134.566C5837.47 134.666 5840.26 136.566 5843.46 137.965C5845.16 138.665 5846.66 138.765 5848.46 139.165C5850.06 139.565 5850.86 140.565 5852.36 141.165C5855.56 142.364 5859.76 141.065 5863.06 141.765C5864.36 142.065 5867.06 142.964 5868.36 142.564C5871.56 141.365 5873.06 135.766 5874.76 133.167C5876.16 131.067 5876.96 129.967 5879.36 129.567C5879.86 129.667 5880.46 129.767 5880.96 129.767C5881.45 129.567 5881.95 129.367 5882.35 129.067C5885.15 128.568 5888.15 128.668 5890.95 128.268C5895.35 127.668 5900.05 127.768 5904.35 128.668C5908.55 129.567 5911.95 131.267 5915.85 132.867C5918.25 133.866 5920.85 134.566 5922.95 135.566C5924.05 136.066 5925.05 136.966 5926.24 137.166C5929.14 137.865 5932.64 136.866 5935.54 136.366C5936.94 136.166 5941.04 136.066 5942.64 135.266C5944.44 131.967 5948.24 129.967 5951.84 129.267C5955.94 128.468 5960.64 125.768 5964.84 126.668C5967.34 127.168 5971.43 130.167 5973.93 129.667C5976.03 129.267 5978.63 126.568 5980.33 125.468C5980.93 125.068 5981.43 124.668 5982.03 124.369C5983.03 123.669 5984.03 122.869 5985.13 122.169C5986.73 121.069 5988.53 120.17 5990.53 120.769C5993.13 121.469 5994.33 123.969 5996.13 125.668C5997.93 127.468 6000.53 128.168 6002.43 129.767C6005.03 131.967 6006.53 131.567 6009.83 132.067C6016.52 132.867 6023.12 134.966 6029.82 135.766C6032.12 136.066 6035.32 135.066 6037.42 135.766C6038.82 136.266 6038.92 137.366 6040.32 137.366C6043.12 137.366 6045.72 136.466 6048.52 136.766C6051.92 137.166 6055.32 137.266 6058.71 137.366C6061.71 137.466 6064.71 137.366 6067.71 136.766C6070.31 136.166 6072.91 135.266 6075.41 134.466C6077.51 133.866 6076.81 133.866 6078.41 134.866C6088.61 141.265 6101 139.365 6112.4 142.264C6118 143.664 6123.1 144.964 6128.9 145.564C6132 145.864 6135 146.364 6137.9 147.463C6141.9 148.963 6145.09 147.963 6149.19 146.563C6153.09 145.264 6155.39 141.465 6159.09 140.165C6161.89 139.165 6165.39 139.965 6168.39 139.865C6173.59 139.865 6180.09 139.365 6184.79 142.164C6187.09 143.564 6188.18 145.164 6191.08 144.964C6192.78 143.664 6194.78 143.664 6196.88 143.664C6200.18 143.664 6204.88 142.764 6207.88 144.064C6212.78 146.064 6218.28 145.364 6223.58 145.364C6225.98 145.364 6228.28 145.564 6230.58 145.164C6233.47 144.764 6236.37 144.264 6239.47 144.464C6241.47 144.664 6243.37 145.264 6245.47 145.364C6250.37 145.564 6255.17 145.364 6260.07 145.764C6261.47 145.864 6262.87 145.864 6264.17 145.664C6268.47 144.964 6272.67 143.364 6276.56 141.565C6280.66 139.565 6283.66 136.766 6287.26 134.166C6287.96 134.566 6287.86 135.066 6288.26 135.766C6289.26 137.466 6290.56 138.965 6291.76 140.465C6293.66 142.964 6296.76 147.563 6299.96 148.463C6301.36 148.863 6303.16 148.263 6304.76 148.463C6309.66 149.163 6313.16 151.662 6317.46 153.662C6318.95 154.362 6320.65 154.462 6322.25 154.962C6323.05 155.262 6323.75 155.861 6324.45 156.161C6326.15 156.861 6326.15 156.161 6327.35 154.562C6329.35 151.962 6332.75 150.063 6335.35 147.863C6336.75 146.663 6337.85 146.464 6339.65 145.664C6341.75 144.664 6343.75 143.964 6345.95 143.364C6347.35 142.964 6348.45 142.864 6349.55 141.965C6351.85 140.065 6352.75 138.165 6356.05 137.566C6358.15 137.166 6360.65 137.266 6362.44 138.265C6364.44 139.365 6364.64 140.965 6365.74 142.764C6367.04 144.864 6369.44 144.164 6371.54 144.064C6373.94 143.964 6376.34 145.064 6378.74 144.464C6381.94 143.664 6383.14 140.065 6385.54 138.165C6389.14 135.266 6395.04 134.366 6399.54 134.266C6404.74 134.166 6409.83 135.666 6413.83 139.065C6416.13 141.065 6417.53 139.765 6420.53 138.865C6424.83 137.566 6427.13 135.266 6429.43 131.567C6432.33 126.768 6437.43 127.868 6441.63 124.269C6444.03 122.169 6444.93 122.669 6447.83 124.069C6449.43 124.868 6450.23 125.668 6451.42 127.068C6452.42 128.368 6453.02 130.267 6454.82 130.467C6456.52 130.667 6458.02 128.368 6459.42 129.667C6460.52 130.667 6458.82 132.467 6459.72 133.566C6461.32 135.366 6463.92 132.967 6465.82 131.967C6469.52 129.967 6472.52 130.267 6476.52 130.267C6480.22 130.267 6483.92 130.267 6487.72 130.267C6490.72 130.267 6494.11 130.767 6496.91 129.667C6499.41 128.668 6500.21 126.068 6502.81 125.268C6504.01 124.968 6505.41 124.968 6506.51 125.368C6508.51 126.068 6509.81 127.868 6511.51 129.067C6517.01 132.867 6524.51 127.968 6529.81 131.467C6530.41 131.867 6530.51 132.667 6531.21 133.067C6532.01 133.466 6533.51 133.267 6534.41 133.167C6535.91 133.067 6536.71 133.067 6538.1 133.666C6539.3 134.266 6540.1 135.966 6541.4 136.366C6550 139.265 6556.5 126.368 6564.8 130.667C6567.3 131.967 6569.9 132.767 6572.6 133.866C6574.7 134.766 6576.7 136.166 6578.9 136.466C6580.7 136.666 6581.3 136.766 6583.09 137.566C6584.99 138.465 6587.19 138.865 6589.29 138.965C6591.79 139.065 6592.99 138.365 6595.19 137.466C6596.19 137.066 6596.99 137.066 6597.99 136.466C6598.39 136.166 6599.19 135.166 6599.79 134.866C6600.69 134.566 6601.29 134.966 6602.09 134.766C6603.39 134.566 6604.29 133.966 6605.59 133.566C6606.89 133.167 6608.19 133.267 6609.49 132.867C6610.89 132.467 6611.99 131.667 6613.39 131.367C6617.69 130.467 6621.69 131.767 6625.79 129.867C6627.28 129.167 6628.48 129.067 6630.08 128.668C6632.18 128.168 6633.88 127.268 6636.08 127.168C6639.88 126.968 6643.78 127.168 6647.58 127.168C6649.08 127.168 6651.08 126.768 6652.58 127.268C6654.58 127.868 6655.78 129.967 6657.38 130.867C6659.68 132.067 6663.88 131.367 6666.58 131.367C6668.48 131.367 6669.77 131.167 6671.67 130.767C6674.57 130.067 6675.97 127.668 6678.87 129.767C6679.87 130.467 6680.87 131.567 6681.97 132.167C6683.37 132.967 6684.87 133.367 6686.27 134.266C6689.47 136.366 6689.17 136.866 6692.47 134.966C6694.27 133.866 6696.37 133.167 6698.17 132.167C6698.57 131.967 6700.97 129.967 6701.97 129.767C6703.17 129.467 6705.17 129.567 6706.37 129.767C6710.67 130.767 6712.36 137.666 6717.36 135.966C6721.36 134.566 6725.46 133.966 6729.76 133.766C6733.26 133.566 6732.36 135.166 6733.56 137.865C6734.06 138.965 6734.86 140.565 6735.66 141.365C6736.96 142.764 6739.06 142.164 6740.96 142.164C6743.96 142.164 6746.96 142.164 6749.96 142.164C6752.46 142.164 6753.06 142.065 6755.06 143.264C6759.75 146.164 6764.05 145.764 6769.05 143.664C6773.65 141.665 6779.05 143.664 6781.95 147.563C6782.35 148.063 6782.85 149.263 6783.35 149.563C6785.15 150.763 6786.65 149.263 6787.95 147.863C6788.35 147.463 6788.65 146.963 6789.15 146.763C6789.65 146.563 6790.15 146.763 6790.55 146.464C6791.05 146.164 6791.25 145.164 6791.65 144.664C6793.75 142.464 6797.95 141.965 6800.84 142.164C6807.24 142.564 6812.64 147.363 6818.84 148.963C6819.84 149.263 6820.74 149.163 6821.64 149.663C6822.24 150.063 6822.64 151.062 6823.24 151.362C6824.74 152.062 6827.54 150.263 6829.14 150.063C6831.14 149.763 6834.14 149.563 6836.14 149.963C6839.04 150.463 6840.24 151.962 6843.34 151.762C6845.13 151.662 6846.83 151.262 6848.33 150.163C6849.23 149.463 6849.83 148.563 6850.83 147.963C6853.13 146.663 6856.13 146.763 6858.63 146.663C6864.13 146.464 6872.93 146.264 6876.33 151.562C6877.73 153.762 6878.53 154.362 6881.03 154.262C6882.43 154.262 6884.83 153.662 6885.73 155.062C6886.33 156.061 6885.13 158.261 6885.93 159.161C6888.92 162.46 6892.52 158.061 6895.92 155.961C6899.32 153.862 6902.52 151.462 6905.92 149.363C6907.62 148.263 6912.32 144.464 6914.92 145.964C6916.02 146.563 6917.52 150.263 6917.82 150.962C6919.12 153.662 6918.72 157.961 6921.42 159.361C6923.12 160.26 6925.02 160.06 6927.02 160.16C6929.92 160.26 6933.11 159.461 6936.01 158.761C6938.21 158.161 6940.81 156.561 6942.61 158.361C6943.21 158.961 6942.91 160.06 6944.01 160.06C6944.81 160.06 6946.01 158.461 6946.71 157.961C6950.21 155.262 6955.71 155.661 6960.01 155.761C6963.41 155.761 6966.81 156.061 6970.21 156.461C6973.31 156.861 6976.7 157.961 6979.9 157.461C6985.8 156.561 6991.2 150.163 6997 148.663V78.679C6995.8 78.679 6994.6 81.5783 6993.4 81.5783C6989.5 81.6783 6985.5 81.4784 6981.6 81.5783C6978.6 81.6783 6975.2 81.7783 6972.31 82.2782C6971.11 82.4781 6970.41 83.278 6969.41 83.6779C6968.11 84.2777 6966.71 83.8778 6965.31 83.7778C6962.01 83.7778 6958.81 83.6779 6955.81 82.4781C6955.31 82.1782 6954.91 81.8783 6954.51 81.4784C6953.71 81.1784 6952.81 80.8785 6952.01 80.7785C6950.21 79.9787 6950.41 78.779 6949.11 77.7792C6947.81 76.6795 6946.91 77.3793 6945.21 77.2793C6943.01 77.0794 6941.81 75.4797 6940.01 74.5799C6937.91 73.5802 6935.71 74.28 6933.51 73.8801C6931.92 73.5802 6932.41 73.3802 6931.02 72.5804C6928.82 71.2807 6926.32 71.5806 6923.82 71.2807C6921.92 71.0807 6920.32 70.2809 6918.42 69.881C6917.42 69.6811 6916.52 69.6811 6915.52 69.6811C6912.52 69.6811 6909.62 69.1812 6906.62 69.3811C6904.22 69.5811 6901.02 69.4811 6899.42 71.4806C6897.92 73.4802 6898.12 76.5795 6896.52 78.479C6893.12 82.4781 6883.93 82.0782 6879.43 80.0787C6878.43 79.6788 6877.43 79.2789 6876.63 78.679C6875.03 77.4793 6874.23 75.7797 6874.13 73.5802C6873.23 71.1807 6872.23 68.7813 6871.33 66.2818C6871.03 65.582 6868.03 58.5836 6865.13 59.5834C6864.43 59.7833 6864.03 61.9828 6863.13 62.4827C6861.43 63.3825 6858.03 62.7826 6856.23 62.7826C6853.43 62.7826 6850.63 62.7826 6847.83 62.7826C6844.93 62.7826 6842.04 62.6827 6839.04 62.6827C6832.84 62.6827 6828.34 66.2818 6822.64 68.0814C6816.94 69.881 6810.44 68.0814 6804.74 67.6815C6801.44 67.4816 6798.05 68.2814 6794.75 67.3816C6791.05 66.3818 6787.35 64.9821 6783.55 64.3823C6782.25 64.1823 6782.25 64.6822 6780.65 64.1823C6778.75 63.5825 6776.95 61.7829 6775.35 60.5831C6773.75 59.3834 6771.85 58.3836 6771.05 56.4841C6769.85 53.8847 6769.85 50.5854 6769.25 47.7861C6767.45 47.5861 6767.65 50.5854 6767.25 51.8851C6766.45 54.5845 6764.75 57.2839 6761.95 57.8838C6755.56 59.1835 6747.66 59.2834 6741.16 58.5836C6733.46 57.6838 6724.76 56.684 6717.16 58.7836C6713.16 59.8833 6709.57 60.983 6705.47 61.183C6702.07 61.283 6698.67 61.183 6695.27 61.183C6692.27 61.183 6689.17 62.2828 6688.67 58.3836C6688.37 56.0842 6689.07 54.6845 6686.57 53.3848C6684.27 52.1851 6681.37 53.0849 6678.87 52.6849C6674.97 52.0851 6671.47 50.9853 6667.48 51.1853C6664.28 51.2853 6660.98 51.8851 6658.28 53.4848C6655.48 55.0844 6651.88 56.1841 6648.58 56.2841C6647.28 56.2841 6645.68 55.9842 6644.38 56.1841C6642.08 56.5841 6639.88 57.3839 6637.58 57.6838C6634.68 58.0837 6631.78 57.8838 6628.88 57.8838C6626.78 57.8838 6624.49 58.1837 6622.49 57.7838C6618.99 56.984 6615.69 54.8844 6612.39 53.4848C6609.89 52.385 6608.89 51.5852 6606.39 52.9849C6604.69 53.8847 6602.89 55.4843 6601.69 56.984C6600.59 58.4836 6600.59 60.3832 6599.49 61.7829C6598.59 62.8826 6596.29 63.8824 6595.09 64.6822C6593.19 65.9819 6590.09 65.7819 6587.79 66.0819C6584.69 66.4818 6584.99 66.2818 6584.19 69.1812C6583.39 72.3804 6581.39 71.1807 6579.3 69.981C6576.3 68.3814 6572.2 67.2816 6568.8 66.9817C6567 66.8817 6565.3 66.3818 6563.5 66.1819C6562.7 66.0819 6562.2 66.2818 6561.4 66.0819C6560.3 65.682 6559.8 64.7822 6558.5 64.4822C6556.4 64.0823 6553.5 64.5822 6551.4 64.5822C6542.2 64.6822 6533.41 64.2823 6525.71 58.7836C6523.81 57.4839 6523.61 57.6838 6522.01 56.884C6521.71 56.684 6521.41 55.7842 6521.11 55.5843C6519.21 54.4845 6517.11 53.0849 6515.21 51.9851C6513.41 51.0853 6512.01 50.7854 6509.91 51.6852C6508.91 52.0851 6507.41 53.5847 6506.91 53.9846C6504.31 55.9842 6501.51 57.8838 6498.61 59.4834C6497.61 60.0833 6496.11 59.9833 6495.21 60.4832C6494.32 60.9831 6493.81 62.7826 6493.12 63.4825C6490.42 66.1819 6486.02 66.1819 6482.52 66.1819C6479.72 66.1819 6476.82 66.6817 6474.32 65.382C6473.12 64.7822 6471.92 63.5825 6470.82 62.7826C6469.82 62.1828 6468.52 61.6829 6467.72 60.983C6467.02 60.3832 6466.52 59.6833 6466.22 58.7836C6465.62 57.0839 6466.22 57.2839 6464.52 56.4841C6459.62 54.1846 6452.12 58.5836 6447.83 60.7831C6446.93 61.183 6445.83 61.5829 6445.03 62.0828C6444.23 62.5827 6443.53 63.5825 6442.63 63.7824C6441.33 64.0823 6440.53 62.8826 6439.73 62.0828C6437.43 59.7833 6435.23 57.9837 6432.83 55.9842C6430.03 57.0839 6428.73 60.6831 6426.83 62.7826C6425.03 64.7822 6423.03 65.482 6420.43 65.382C6417.63 65.2821 6417.13 63.9824 6416.33 61.4829C6415.53 58.8835 6415.63 54.9844 6412.23 55.0844C6407.03 55.2844 6404.54 62.6827 6399.44 62.8826C6396.04 62.9826 6393.24 61.083 6389.74 61.183C6387.14 61.183 6382.84 62.0828 6380.84 60.1832C6380.14 59.5834 6379.84 57.8838 6379.24 57.2839C6378.14 56.3841 6374.34 56.884 6373.24 56.884C6370.84 56.984 6368.44 57.6838 6366.04 57.7838C6364.84 57.8838 6363.74 57.6838 6362.55 57.9837C6360.75 55.7842 6361.85 51.7852 6362.05 49.1857C6356.75 51.1853 6352.65 55.8842 6347.75 58.7836C6345.25 60.2832 6342.65 60.983 6340.05 62.2827C6338.55 62.9826 6338.05 63.6824 6336.25 63.3825C6334.15 63.0826 6332.05 62.2828 6329.85 61.9828C6325.55 61.383 6320.55 61.5829 6316.16 61.8828C6312.56 62.0828 6309.36 63.4825 6305.76 63.5825C6303.16 63.6824 6300.16 62.9826 6297.66 63.6824C6294.66 64.5822 6293.66 64.0823 6290.96 62.3827C6287.56 60.2832 6284.46 61.4829 6280.66 60.8831C6278.26 60.4832 6278.46 59.6833 6276.96 58.2837C6275.66 57.0839 6273.07 56.4841 6271.37 56.1841C6270.37 55.9842 6268.97 55.6843 6267.97 55.8842C6264.97 56.4841 6262.47 59.8833 6259.97 61.4829C6257.67 63.2825 6255.07 64.6822 6252.17 65.582C6250.77 65.7819 6249.47 66.1819 6248.17 66.5818C6247.67 66.8817 6247.17 66.7817 6246.67 66.2818C6245.87 65.0821 6245.17 63.9824 6244.37 62.7826C6243.07 61.8828 6239.97 62.5827 6238.27 62.5827C6230.58 62.5827 6222.88 62.5827 6215.18 62.5827C6211.38 62.5827 6208.28 62.5827 6205.48 65.682C6204.58 66.6817 6204.08 67.9815 6202.78 68.7813C6201.78 69.2812 6201.38 68.9812 6200.28 69.1812C6197.28 69.5811 6195.68 73.6801 6192.38 73.4802C6189.58 73.3802 6188.38 69.0812 6186.89 67.1816C6185.19 64.9821 6183.79 63.6824 6182.89 60.983C6180.29 60.3832 6176.89 65.0821 6175.09 66.7817C6172.79 68.7813 6170.69 69.0812 6168.09 70.1809C6165.39 71.2807 6163.39 73.6802 6160.49 74.6799C6158.29 75.4797 6157.79 74.0801 6155.79 74.0801C6154.59 74.0801 6153.09 74.9799 6151.99 75.3798C6149.39 76.2796 6147.49 77.6792 6144.69 77.5793C6142.4 77.4793 6140.1 77.3793 6137.9 78.3791C6136.2 79.0789 6135 78.879 6133.4 78.9789C6131.2 79.1789 6128.9 80.4786 6126.9 81.3784C6124.3 82.5781 6122.2 83.8778 6119.3 83.178C6116.9 82.5781 6114.8 80.7785 6112.5 79.9787C6108.6 78.579 6104.6 77.3793 6100.5 76.2796C6098.41 75.6797 6096.41 76.0796 6094.31 75.8796C6092.61 75.6797 6092.81 74.7799 6090.81 74.5799C6086.01 74.0801 6080.91 74.6799 6076.11 74.5799C6069.31 74.5799 6062.91 81.0785 6057.31 77.5793C6056.32 76.9794 6057.91 74.28 6056.91 73.4802C6053.72 70.9808 6053.12 67.8815 6051.42 65.1821C6049.72 62.4827 6050.32 62.8826 6047.62 63.9824C6045.92 64.6822 6043.92 66.5818 6042.02 66.7817C6039.32 67.1816 6039.82 64.3823 6037.32 64.0823C6029.62 63.1825 6021.82 80.5786 6015.72 74.48C6014.12 72.8803 6017.62 66.3818 6017.02 63.8824C6016.42 61.383 6012.43 68.7813 6010.03 67.8815C6008.23 67.1816 6009.33 66.2818 6008.43 65.2821C6007.33 63.9824 6005.63 63.4825 6003.83 63.2825C6000.53 62.8826 5997.23 64.1823 5993.83 64.4822C5990.83 64.6822 5987.83 64.1823 5984.93 63.4825C5982.73 62.9826 5980.53 62.3827 5978.43 61.5829C5976.93 60.983 5974.73 59.3834 5973.23 59.1835C5972.63 59.0835 5972.03 58.9835 5971.53 58.7836C5970.93 58.6836 5970.63 58.2837 5970.53 57.6838C5970.43 56.784 5962.54 55.1844 5961.54 55.1844C5959.54 55.1844 5957.54 56.0842 5956.24 53.9846C5954.74 51.5852 5955.64 44.8867 5952.74 43.487C5950.04 42.1873 5944.44 45.6865 5941.94 46.2864C5940.54 46.5863 5939.14 47.1862 5937.74 47.4861C5935.44 48.086 5932.34 47.6861 5930.14 47.6861C5926.44 47.6861 5922.45 48.086 5918.65 47.4861C5917.15 47.2862 5915.65 46.7863 5914.15 46.6863C5911.15 46.3864 5906.05 45.7865 5903.75 48.286C5902.75 49.3857 5902.95 50.2855 5901.65 51.1853C5900.05 52.385 5897.55 53.3848 5895.65 53.8847C5893.05 54.5845 5890.75 56.2841 5888.15 56.684C5885.85 57.0839 5883.45 56.784 5881.16 57.2839C5879.26 57.6838 5876.96 57.6838 5875.06 57.4838C5872.16 57.1839 5869.86 56.5841 5866.76 56.5841C5864.26 56.5841 5861.66 56.684 5859.16 56.5841C5857.36 56.4841 5856.56 56.784 5856.06 54.8844C5855.76 53.7847 5856.76 51.8851 5856.26 50.7854C5855.56 49.2857 5850.56 49.0858 5848.86 48.9858C5846.06 48.8858 5842.46 48.086 5839.96 49.4857C5837.07 51.1853 5833.77 53.2848 5831.27 55.6843C5828.77 57.9837 5827.27 60.3832 5823.67 61.283C5819.17 62.3827 5815.27 61.9828 5811.47 59.1835C5810.37 58.3836 5809.47 57.3839 5808.77 56.2841C5807.37 54.3846 5805.97 53.0849 5804.37 51.3852C5801.77 48.6859 5800.97 46.3864 5801.27 42.5873C5801.37 40.4877 5801.37 38.6881 5800.67 36.6886C5798.77 36.5886 5797.07 39.0881 5795.97 40.2878C5794.47 41.7874 5792.98 43.3871 5791.48 44.8867C5788.28 48.086 5784.58 50.6854 5781.28 53.7847C5779.98 54.9844 5778.28 57.4838 5776.28 57.3839C5773.28 57.2839 5771.88 54.1846 5770.18 52.385C5768.68 50.7854 5766.78 51.5852 5764.78 51.9851C5761.18 52.6849 5757.48 51.6852 5753.98 52.285C5749.49 52.9849 5745.89 56.4841 5741.19 56.784C5738.49 56.984 5731.29 56.4841 5729.49 54.0846C5728.79 53.0849 5729.09 52.0851 5728.29 51.1853C5727.49 50.2855 5726.39 50.0855 5725.29 49.8856C5723.39 49.5857 5721.09 49.6856 5719.19 49.9856C5717.09 50.3855 5715.39 51.3852 5713.19 51.5852C5711.79 51.6852 5710.39 51.4852 5708.99 51.4852C5707.39 51.4852 5705.4 51.8851 5703.9 51.3852C5702.4 50.8854 5701.7 49.3857 5700.2 48.9858C5698.8 48.5859 5697.6 49.0858 5696.6 49.8856C5694.6 51.4852 5693.4 52.9849 5691.1 54.4845C5685.3 58.1837 5679.5 61.4829 5674.4 66.2818C5672.6 67.9815 5670.9 69.6811 5669 71.2807C5663.7 75.6797 5657.51 76.5795 5650.71 76.2796C5646.51 76.1796 5642.31 75.5797 5638.11 74.6799C5634.41 73.7801 5630.81 71.8806 5627.01 71.4806C5620.71 70.6808 5614.52 74.7799 5608.22 74.6799C5605.52 74.6799 5602.82 74.6799 5600.02 74.6799C5597.52 74.6799 5595.92 74.48 5593.62 75.6797C5592.22 76.4795 5591.32 77.0794 5589.62 77.1794C5585.72 77.4793 5580.62 78.9789 5577.02 77.2793C5575.43 76.5795 5573.93 75.9796 5572.23 75.2798C5568.83 73.9801 5565.83 71.6806 5562.43 70.3809C5561.13 69.881 5559.53 69.2812 5558.13 69.0812C5554.73 68.4813 5550.73 69.1812 5547.33 69.1812C5542.13 69.1812 5536.83 68.8812 5531.73 67.5815C5525.14 65.8819 5521.74 58.6836 5514.84 57.2839C5512.44 56.784 5509.84 57.2839 5507.64 58.0837C5502.34 59.9833 5497.24 61.6829 5491.74 63.1825C5488.34 64.0823 5485.65 66.1819 5482.35 67.0817C5479.75 67.7815 5477.45 67.4816 5474.95 68.6813C5467.45 72.1805 5458.35 70.6808 5450.15 70.6808C5448.15 70.6808 5446.45 72.5804 5445.15 74.18C5444.55 74.9799 5444.15 75.6797 5443.26 76.1796C5442.46 76.6795 5442.36 76.9794 5441.86 77.5793C5441.36 78.1791 5440.26 78.4791 5439.46 78.779C5438.36 79.2789 5437.06 79.2789 5435.86 79.2789C5434.56 79.2789 5433.36 79.3788 5432.06 78.9789C5430.46 78.479 5428.76 78.679 5427.06 78.479C5425.96 78.3791 5424.26 78.679 5423.26 77.9792C5422.56 77.4793 5421.96 76.5795 5421.36 75.9796C5420.06 74.7799 5418.76 73.3802 5416.96 72.8803C5415.86 72.5804 5414.76 72.6804 5413.56 72.6804C5410.56 72.6804 5407.66 72.3804 5404.66 72.3804C5404.16 72.3804 5403.56 72.4804 5403.06 72.3804C5402.76 72.2805 5402.56 71.9805 5402.26 71.7806C5400.96 72.2805 5400.86 72.6804 5399.87 71.9805Z" fill="#F4EEE1"/>
<rect x="3497" width="3500" height="124" fill="#F4EEE1"/>
</svg>
