<svg width="382" height="382" viewBox="0 0 382 382" fill="none" xmlns="http://www.w3.org/2000/svg">
<circle cx="190.5" cy="196.5" r="140.5" fill="#F8B803"/>
<path d="M191 0.25C85.6617 0.25 0.25 85.6617 0.25 191C0.25 296.338 85.6617 381.75 191 381.75C296.338 381.75 381.75 296.338 381.75 191C381.75 85.6617 296.338 0.25 191 0.25ZM252.355 193.938L159.364 261.595C158.855 261.961 158.254 262.18 157.628 262.227C157.002 262.274 156.375 262.147 155.816 261.861C155.257 261.575 154.788 261.141 154.46 260.605C154.132 260.07 153.958 259.455 153.957 258.827V123.599C153.955 122.97 154.127 122.352 154.454 121.815C154.782 121.278 155.251 120.842 155.811 120.555C156.371 120.269 157 120.143 157.627 120.192C158.254 120.24 158.855 120.462 159.364 120.831L252.355 188.445C252.794 188.756 253.153 189.168 253.4 189.645C253.647 190.123 253.777 190.654 253.777 191.192C253.777 191.73 253.647 192.26 253.4 192.738C253.153 193.216 252.794 193.627 252.355 193.938V193.938Z" fill="white"/>
</svg>
