<svg width="7000" height="488" viewBox="0 0 7000 488" fill="none" xmlns="http://www.w3.org/2000/svg">
<path d="M1902.87 416.019C1897.27 416.019 1890.67 417.619 1886.67 412.82C1886.07 412.02 1885.17 411.021 1884.67 410.121C1884.27 409.321 1884.47 408.221 1884.07 407.421C1882.87 405.222 1881.07 406.122 1878.47 405.922C1873.27 405.522 1871.47 403.122 1867.27 400.423C1864.27 398.523 1861.57 397.424 1857.88 397.624C1854.08 397.824 1852.08 399.723 1849.48 402.223C1847.88 403.822 1846.18 406.122 1843.78 406.722C1842.38 407.022 1840.88 406.722 1839.48 406.722C1834.58 406.622 1829.68 406.922 1824.78 406.722C1821.08 406.622 1817.48 406.122 1813.89 405.922C1810.09 405.722 1806.39 406.122 1802.79 405.022C1801.49 404.622 1800.39 404.422 1799.19 404.222C1796.69 403.822 1796.79 403.722 1795.09 401.723C1794.29 400.823 1792.69 398.723 1791.39 398.224C1790.39 397.824 1787.49 398.324 1786.49 398.324C1779.19 398.324 1771.99 399.323 1764.7 399.123C1762.2 399.023 1760.5 398.823 1758.8 400.823C1757.2 402.722 1757.5 404.922 1756.2 406.722C1754.1 409.821 1746.3 408.521 1743.3 408.221C1732.7 407.022 1721.51 406.922 1710.91 408.521C1709.41 408.721 1708.41 409.221 1707.01 409.221C1703.91 409.321 1700.21 407.521 1697.21 407.221C1690.91 406.422 1682.82 402.822 1677.92 406.722C1676.82 407.621 1677.82 409.821 1676.52 410.721C1675.82 411.121 1672.92 410.921 1672.32 411.021C1671.42 411.221 1670.62 411.52 1669.62 411.72C1666.82 412.12 1664.72 412.52 1661.52 412.52C1656.32 412.52 1651.22 412.42 1646.02 412.52C1641.72 412.62 1637.63 413.62 1633.43 414.02C1631.33 414.22 1629.83 413.62 1628.33 415.32C1626.63 417.219 1626.83 419.419 1624.03 420.119C1622.53 420.518 1620.23 420.119 1618.73 420.119C1616.33 420.119 1613.93 420.119 1611.63 419.219C1611.13 419.019 1611.13 418.519 1610.53 418.319C1610.03 418.219 1609.43 418.319 1608.83 418.219C1605.23 417.219 1602.33 413.72 1599.13 411.92C1595.54 409.921 1591.34 409.521 1587.44 408.521C1582.04 407.022 1577.14 404.522 1571.44 404.222C1564.54 403.822 1557.54 403.522 1550.85 402.223C1549.05 401.823 1547.35 401.723 1545.55 401.823C1542.05 401.923 1539.75 401.323 1536.55 399.723C1534.45 398.723 1532.55 398.324 1530.45 397.524C1529.95 397.324 1529.35 396.724 1528.75 396.724C1528.25 396.724 1528.05 396.824 1527.55 396.924C1527.15 397.024 1526.85 397.424 1526.45 397.624C1524.65 398.423 1522.65 398.523 1520.75 398.823C1518.85 399.023 1517.15 399.423 1515.45 400.223C1514.85 400.523 1514.45 400.923 1513.75 401.123C1512.45 401.423 1510.75 400.823 1509.36 400.923C1507.16 401.023 1505.76 401.823 1503.86 402.723C1500.36 404.322 1498.06 404.422 1494.36 404.422C1492.76 404.422 1490.76 404.722 1489.26 404.322C1486.96 403.622 1485.56 402.123 1482.86 402.822C1479.36 403.722 1478.66 406.922 1477.16 409.621C1476.36 411.021 1477.26 410.921 1475.46 411.121C1473.76 411.321 1471.76 411.121 1470.06 411.121C1465.46 411.221 1461.57 410.421 1457.07 409.521C1451.67 408.421 1446.07 407.721 1440.67 407.121C1435.57 406.522 1430.47 405.622 1425.17 405.222C1419.88 404.922 1416.48 409.021 1411.28 409.521C1405.08 410.221 1397.58 409.721 1392.08 406.922C1390.68 406.222 1389.38 405.122 1387.88 404.722C1386.28 404.322 1385.28 404.722 1383.78 405.022C1379.58 405.822 1374.79 405.222 1370.59 405.222C1367.69 405.222 1364.89 405.222 1361.99 405.222C1360.29 405.222 1358.09 405.622 1356.39 405.322C1355.29 405.122 1356.59 405.522 1354.69 404.722C1352.39 403.722 1350.89 403.022 1348.29 402.723C1340.49 401.923 1332.9 400.123 1325.2 398.723C1321.6 398.024 1318.4 397.724 1314.7 397.724C1312.3 397.724 1308.7 395.824 1306.5 397.224C1304 398.723 1304.7 403.122 1304 405.622C1302.6 410.121 1299.6 410.421 1295.5 409.121C1291 407.721 1286.61 405.522 1281.71 406.322C1278.61 406.922 1276.11 409.021 1273.01 409.521C1269.51 410.021 1265.91 408.621 1262.51 408.321C1259.91 408.021 1256.91 408.121 1254.41 407.121C1250.21 405.422 1247.21 403.322 1242.52 403.222C1239.42 403.222 1236.32 403.322 1233.22 403.222C1226.62 403.022 1221.92 403.722 1216.02 406.322C1214.12 407.121 1212.82 408.321 1210.72 408.521C1207.02 408.821 1203.22 406.122 1199.93 405.122C1197.63 404.422 1194.83 405.122 1192.53 404.322C1190.43 403.622 1189.73 402.323 1187.43 402.023C1185.23 401.723 1182.93 402.123 1180.73 401.423C1178.83 400.823 1177.53 399.223 1176.13 398.523C1175.13 398.124 1172.53 398.024 1172.13 398.024C1169.43 397.624 1166.73 396.724 1164.03 397.024C1159.04 397.624 1154.84 401.723 1150.94 404.522C1146.34 407.821 1142.74 409.721 1137.24 409.621C1133.64 409.521 1130.04 409.621 1126.44 409.621C1122.54 409.621 1119.04 409.421 1115.35 408.621C1111.55 407.821 1107.85 409.021 1104.35 407.521C1102.05 406.522 1100.35 404.122 1097.95 403.422C1096.25 402.922 1094.45 403.222 1092.75 403.322C1090.25 403.322 1087.75 403.322 1085.25 403.322C1082.85 403.322 1080.35 403.222 1077.95 403.322C1075.15 403.422 1075.05 404.722 1072.75 405.622C1067.36 407.621 1060.76 407.321 1054.66 407.121C1051.76 407.022 1049.36 406.122 1046.56 405.822C1043.96 405.522 1041.06 405.822 1038.36 405.822C1033.26 405.822 1028.26 405.822 1023.17 405.822C1019.97 405.822 1016.67 406.022 1014.07 407.821C1011.57 409.521 1011.07 411.72 1007.67 412.22C1006.17 412.42 1004.37 412.12 1002.77 412.12C994.873 412.12 986.075 410.921 978.276 412.02C975.877 412.42 974.677 414.02 972.378 414.92C969.978 415.919 967.679 415.82 965.179 415.82C963.08 415.82 959.881 416.519 957.981 415.62C956.581 415.02 955.082 412.02 953.682 411.121C948.583 407.721 944.384 412.52 938.985 410.921C936.386 410.121 936.086 408.221 933.687 406.422C932.287 405.422 930.887 404.922 929.288 404.322C927.488 403.622 925.888 402.822 923.489 403.222C919.79 403.922 916.79 408.621 913.791 410.921C912.691 410.521 911.692 409.821 910.892 408.921C909.392 408.321 907.893 408.121 906.293 408.521C904.593 407.521 904.493 405.422 902.694 404.422C901.994 404.022 899.394 403.922 898.395 403.722C895.995 403.022 893.796 402.223 891.196 402.123C888.197 401.923 884.998 402.123 881.898 402.123C880.899 402.123 877.799 402.623 876.9 401.923C876.2 401.423 876 400.023 875.4 399.423C873.9 397.724 870.801 396.424 868.801 395.224C864.402 392.525 858.904 393.225 853.905 391.825C853.205 391.625 852.505 391.025 851.505 390.925C848.806 390.225 846.007 391.325 843.807 390.825C843.307 390.925 842.807 390.925 842.307 391.025C840.408 389.226 839.008 387.126 837.908 384.827C835.509 381.527 834.409 382.627 830.31 383.927C824.612 385.826 818.513 388.926 814.414 393.325C813.314 394.524 811.914 396.724 810.115 396.824C809.215 396.824 808.615 396.324 807.915 395.824C806.616 394.924 806.116 393.025 804.916 392.025C802.017 389.825 798.018 391.325 794.618 391.925C791.019 392.625 787.72 394.324 784.221 395.024C780.522 395.724 776.523 395.024 772.823 395.124C770.224 395.224 768.524 394.424 766.025 393.525C759.326 391.025 750.828 392.725 744.03 393.825C740.331 394.424 736.732 394.424 733.132 394.324C731.133 394.324 727.034 393.325 725.334 394.724C724.634 395.324 724.135 397.024 723.535 397.824C722.435 399.323 721.135 400.223 719.436 401.123C716.636 402.722 713.637 403.722 710.538 404.622C707.038 405.622 703.439 405.022 699.84 404.722C694.441 404.222 689.042 404.322 683.644 404.322C680.844 404.322 678.545 404.222 676.046 405.122C673.846 405.822 671.946 406.522 669.647 406.822C665.148 407.321 660.549 406.822 656.05 406.822C653.051 406.822 649.452 407.321 646.452 406.622C643.653 405.922 641.553 404.822 638.754 404.422C631.656 403.422 623.457 397.924 616.059 401.123C614.56 401.823 613.46 402.822 611.86 403.122C610.66 403.322 609.061 402.922 607.861 402.922C603.662 402.922 600.963 403.822 597.363 405.522C593.664 407.221 590.265 408.621 587.266 411.52C584.566 414.32 583.067 414.12 579.068 414.32C576.368 414.42 573.869 414.72 571.269 415.62C569.77 416.119 568.47 416.819 566.87 417.019C562.771 417.419 557.573 415.919 553.474 415.62C547.275 415.22 544.875 412.52 539.777 410.021C537.577 408.921 535.378 408.721 533.178 407.821C532.078 407.321 530.879 406.222 529.879 405.822C527.379 404.922 523.08 405.622 520.481 405.622C511.783 405.622 502.485 406.722 493.987 405.822C490.088 405.422 487.089 402.523 483.39 401.923C474.691 400.523 466.093 398.024 457.296 396.924C450.197 396.124 442.899 396.424 436.7 400.323C435.101 401.323 433.301 403.722 431.601 404.322C427.502 405.622 421.804 404.922 417.605 405.522C407.407 407.121 397.709 409.621 387.311 409.421C384.012 409.321 379.813 409.021 377.214 406.722C374.015 403.922 374.314 402.223 370.115 401.823C362.817 401.223 350.62 402.623 344.921 407.521C341.922 410.121 341.122 413.92 338.823 416.719C337.623 418.119 338.623 417.519 337.223 418.219C336.023 418.819 331.024 418.019 329.425 418.019C327.125 418.019 323.626 417.719 321.327 418.619C318.027 419.819 314.028 423.918 310.229 423.018C306.63 422.218 303.531 419.419 299.532 419.219C294.333 418.919 291.233 418.319 286.135 416.519C281.636 414.92 277.437 414.22 272.738 414.32C267.139 414.42 261.44 414.32 255.842 414.22C242.844 414.02 230.747 417.819 217.95 418.219C214.751 418.319 211.952 419.219 208.852 419.419C202.554 419.819 195.755 418.119 189.457 419.319C184.358 420.318 179.959 423.118 175.46 425.517C173.26 426.717 170.761 428.217 168.262 428.817C167.362 429.016 166.362 428.817 165.562 429.116C163.863 429.616 162.663 431.116 160.963 431.916C158.464 433.116 156.364 433.615 153.565 433.515C145.567 433.216 137.569 435.115 129.57 435.215C121.972 435.315 124.572 444.213 116.973 444.213C114.074 444.213 110.775 443.813 107.975 444.213C106.276 444.413 104.776 445.113 102.976 445.113C102.077 445.113 101.177 445.013 100.377 445.113C98.8774 445.413 98.7774 446.313 96.5779 446.612C93.9785 447.012 91.1792 446.313 88.5798 446.712C86.7802 447.012 85.9804 447.812 84.2807 448.312C81.5814 449.012 78.1821 438.414 75.3828 438.414C72.4834 438.414 69.5841 438.414 66.7847 438.414C64.3853 438.414 61.4859 429.916 59.4864 428.417C56.687 426.317 52.7879 417.519 49.2887 417.519C46.6893 417.519 44.0899 417.519 41.3905 417.519C38.8911 417.519 37.2915 416.919 35.4919 418.819C30.693 423.918 32.6925 426.817 25.7941 424.518C23.8945 423.918 22.095 422.718 19.9954 422.018C17.396 421.018 14.6966 420.718 11.9973 420.318C10.8975 420.119 0.399909 409.221 0 408.921V338.937C0.599863 339.237 3.99909 346.135 4.49897 346.335C7.29833 347.435 10.5976 349.935 13.097 351.734C15.6964 353.634 17.7959 354.334 20.8952 353.634C26.7939 352.234 28.1936 351.534 34.6921 353.734C36.1917 354.134 37.2915 355.033 38.9911 355.233C42.4903 355.633 45.1897 357.133 48.6889 358.033C53.1878 359.232 52.388 357.633 55.9872 356.733C60.2862 355.733 65.1851 357.833 69.3841 358.333C71.4837 358.633 75.1828 359.132 77.3823 358.533C79.0819 358.133 79.9817 356.633 81.5814 356.133C83.7809 355.433 86.8801 356.033 89.0796 355.633C93.3787 354.933 97.5777 353.034 102.077 353.334C106.176 353.634 111.475 354.633 115.174 356.533C116.473 357.233 117.573 358.233 118.873 358.933C120.273 359.632 121.872 359.732 123.372 360.132C125.471 360.732 126.671 360.932 128.871 360.932C130.67 360.932 134.569 361.732 135.969 360.432C137.469 359.032 137.169 356.333 138.868 354.933C140.768 353.334 145.367 354.334 147.666 354.134C155.564 353.434 164.162 353.034 171.561 349.835C173.96 348.835 180.159 343.936 183.458 345.036C184.358 345.336 185.058 346.335 185.958 346.835C188.557 348.235 191.156 347.435 193.956 347.635C199.154 347.935 204.353 348.835 209.552 349.135C213.451 349.335 218.95 350.135 222.849 349.235C225.748 348.535 227.148 346.635 228.748 344.536C230.347 342.436 231.147 341.137 234.047 340.937C236.146 340.737 238.545 341.037 240.645 341.037C242.645 341.037 245.544 340.237 247.543 340.237C249.143 340.237 251.942 339.637 253.442 340.537C254.642 341.237 254.942 342.236 255.642 343.536C256.641 345.536 256.741 346.635 258.941 346.935C261.34 347.235 263.54 346.135 265.939 346.035C267.739 345.935 269.738 345.836 271.438 346.235C273.438 346.735 272.938 347.435 275.837 346.535C277.037 346.135 278.236 345.436 279.436 345.036C282.036 344.136 284.335 342.936 286.834 341.936C289.734 340.837 292.333 340.937 295.333 340.937C300.131 341.037 304.93 341.037 309.729 340.937C313.228 340.837 317.327 339.637 320.827 340.037C321.726 340.137 322.526 340.937 323.326 340.837C324.426 340.837 325.626 339.637 326.425 338.937C327.825 337.737 329.525 336.238 330.325 334.638C330.724 333.838 330.524 332.139 331.424 332.239C333.324 332.339 333.424 334.338 334.923 335.338C337.623 337.137 337.123 338.037 340.222 338.537C342.222 338.837 344.321 339.237 346.321 339.637C350.52 340.437 354.619 341.536 358.618 342.936C361.417 343.936 363.517 345.436 366.016 346.535C368.916 347.935 371.715 346.035 374.514 345.036C377.614 343.936 380.813 343.436 384.112 343.236C391.91 342.736 401.708 341.536 408.707 345.236C412.506 347.235 413.206 350.135 417.904 349.235C423.703 348.135 427.702 344.536 433.901 344.336C436.8 344.236 439.6 344.236 442.499 344.236C444.698 344.236 448.897 343.536 450.797 344.336C453.896 345.636 453.796 349.735 457.595 350.334C458.595 350.434 459.595 350.434 460.495 350.135C461.994 349.635 462.894 348.435 463.994 347.435C467.293 344.336 472.892 342.036 477.391 341.936C479.39 341.636 480.99 341.337 483.09 341.337C485.589 341.337 488.188 341.437 490.688 341.337C491.888 341.437 493.087 341.237 494.087 340.737C494.387 340.537 494.687 340.237 494.987 339.837C496.786 339.237 500.286 339.337 502.185 339.837C502.385 342.836 505.584 344.436 507.684 346.035C508.884 347.035 508.584 347.135 510.283 347.135C513.083 347.135 516.282 347.335 518.981 346.335C521.481 345.436 523.58 343.736 525.98 342.436C531.279 339.637 530.579 334.738 535.178 330.839C536.577 329.639 537.677 331.639 539.077 333.538C541.576 337.038 545.875 338.837 549.574 341.037C554.773 344.036 559.772 342.536 565.271 344.036C570.57 345.536 575.169 347.035 580.767 347.035C582.967 347.035 585.166 347.235 587.366 347.035C588.965 346.935 590.265 346.235 591.765 346.135C593.064 346.035 594.364 346.435 595.664 346.035C595.864 345.236 595.564 344.436 595.664 343.636C595.764 342.636 596.364 341.836 596.764 340.937C597.263 339.637 597.563 339.037 598.263 337.937C598.763 337.137 599.363 337.437 599.063 336.038C600.163 335.338 601.363 335.038 602.662 335.038C604.562 334.638 605.862 333.138 608.061 333.038C613.06 332.639 616.959 339.337 620.758 341.736C623.458 343.536 625.757 345.736 628.156 347.835C631.156 350.534 632.056 349.935 633.455 346.335C634.555 343.236 635.955 340.237 637.154 337.137C637.654 335.738 637.454 332.938 638.954 333.038C640.954 333.238 642.353 339.837 644.253 340.637C646.152 341.437 649.352 340.737 651.551 340.737C655.05 340.737 657.85 339.437 661.349 339.037C664.648 338.637 667.447 338.337 670.647 337.337C671.247 337.137 673.246 336.838 673.946 336.238C674.746 335.638 675.646 333.838 676.345 333.038C677.645 331.539 679.145 330.039 679.645 328.14C680.045 326.74 680.345 325.34 681.444 324.54C684.544 322.241 690.242 328.639 692.242 331.039C694.141 333.338 694.841 332.938 697.541 333.638C705.039 335.838 712.937 336.338 720.735 336.538C723.735 336.638 725.034 337.437 726.634 335.638C726.834 335.438 726.734 335.138 726.934 334.938C727.334 334.538 727.934 334.838 728.534 334.838C731.633 335.138 734.532 333.938 737.531 332.539C739.931 331.439 741.83 328.939 744.23 328.04C746.629 327.24 747.929 329.439 750.029 329.739C753.228 330.139 756.627 329.539 759.826 329.839C762.926 330.139 765.925 330.439 769.024 331.039C774.223 332.039 778.822 333.038 784.121 333.038C788.62 333.038 793.019 334.338 797.518 334.638C799.517 334.738 803.016 335.338 805.016 334.738C806.716 334.238 806.216 335.838 806.316 336.838C806.516 338.237 807.715 340.437 809.215 338.437C809.115 338.237 809.115 338.137 809.015 337.937C811.015 341.237 812.814 341.636 816.613 341.736C820.412 341.836 822.412 340.837 825.011 337.937C827.011 335.738 828.811 332.639 831.81 331.839C834.009 331.239 836.909 331.739 839.108 331.739C842.407 331.739 845.107 333.038 848.006 334.438C849.506 335.138 850.606 334.938 852.305 335.038C855.504 335.138 854.805 332.738 854.505 330.539C854.205 328.14 855.804 327.24 858.304 327.64C863.203 328.439 867.102 333.438 870.901 336.338C873.5 338.337 876.7 338.937 879.899 339.537C882.298 339.937 885.198 339.237 887.497 339.737C891.596 340.637 891.496 345.336 893.396 348.235C896.595 353.334 902.694 345.136 908.492 344.836C910.992 344.736 913.091 353.434 915.491 353.234C920.19 352.834 924.289 350.834 924.689 345.436C925.089 341.536 922.589 336.238 925.388 333.638C927.688 331.439 932.787 336.338 935.586 337.937C938.785 339.837 939.685 342.736 942.185 345.336C944.684 347.935 945.984 348.335 948.783 349.635C951.882 351.134 954.482 353.334 957.081 355.533C959.381 357.533 961.68 350.135 964.679 351.234C966.679 352.034 968.579 352.834 970.478 353.634C974.177 355.233 976.677 363.032 978.476 359.932C979.976 357.233 981.476 354.334 982.575 351.434C983.475 349.035 983.575 346.335 984.575 344.136C985.575 341.936 984.675 342.636 986.275 342.836C986.575 342.836 986.874 343.136 987.174 343.336C989.474 344.236 992.073 344.436 994.573 344.636C996.172 344.736 997.672 344.336 998.472 345.436C998.972 346.135 999.272 347.135 1000.07 347.535C1001.07 348.035 1002.27 348.335 1003.37 348.635C1010.57 350.934 1019.97 345.136 1025.57 349.935C1027.97 352.034 1023.37 357.033 1025.97 358.833C1031.76 362.932 1039.16 354.933 1046.06 354.633C1049.86 354.434 1053.46 355.133 1057.16 353.934C1058.96 353.334 1060.86 353.434 1062.56 352.734C1064.96 351.834 1067.46 350.434 1069.86 349.435C1070.66 349.135 1072.45 348.935 1072.95 348.135C1073.25 347.635 1072.85 346.835 1073.15 346.335C1074.55 344.236 1076.85 348.035 1078.05 348.935C1078.95 349.535 1079.45 350.234 1080.25 350.934C1083.15 353.434 1086.75 353.834 1090.45 354.434C1092.05 354.633 1096.05 354.733 1097.35 357.133C1098.05 358.333 1100.75 357.333 1102.05 357.333C1105.45 357.333 1108.85 356.933 1112.25 356.633C1117.34 356.333 1122.34 356.533 1127.44 356.533C1130.44 356.533 1137.44 356.733 1139.44 353.634C1140.54 351.934 1140.54 351.234 1142.54 350.135C1144.44 349.035 1145.84 348.835 1148.14 348.935C1150.44 348.935 1153.34 349.435 1155.64 349.035C1157.34 348.735 1159.04 347.535 1160.73 347.035C1163.43 346.135 1166.03 343.736 1168.83 343.136C1170.43 342.836 1170.53 343.336 1171.83 343.736C1174.33 344.536 1176.93 344.736 1179.63 345.536C1183.13 346.635 1184.53 349.735 1187.73 351.134C1189.13 351.734 1192.13 352.234 1193.53 352.634C1197.23 353.534 1200.63 353.934 1204.22 355.433C1208.32 357.133 1213.12 358.733 1217.72 358.833C1218.72 358.833 1219.62 358.733 1220.52 358.333C1223.12 357.233 1225.42 354.833 1227.42 352.934C1228.22 352.134 1229.42 351.434 1229.72 350.334C1230.12 349.135 1229.32 347.935 1229.82 346.735C1230.72 346.535 1231.52 346.535 1232.42 346.535C1235.92 346.635 1239.52 346.835 1243.02 346.935C1244.12 346.935 1248.21 346.335 1249.21 347.135C1249.81 347.635 1249.71 348.335 1249.91 349.035C1250.41 350.334 1251.21 351.434 1252.31 352.134C1254.81 353.734 1258.21 353.234 1260.61 351.734C1262.91 350.434 1264.41 349.835 1267.21 349.835C1268.91 349.835 1270.21 349.135 1271.81 349.435C1273.91 349.835 1276.21 350.334 1278.31 350.734C1279.81 351.034 1281.31 351.934 1283.01 351.534C1283.61 351.434 1283.71 350.834 1284.21 350.734C1285.01 350.534 1286.21 350.934 1287.01 350.534C1288.51 349.735 1287.91 347.935 1287.91 346.535C1288.01 345.036 1288.11 345.436 1288.81 344.036C1289.21 343.036 1289.41 342.136 1289.81 341.137C1290.41 339.937 1291.7 337.937 1293.1 337.437C1297.9 335.838 1303.5 338.837 1307.9 339.937C1310.2 340.437 1311 341.237 1312.5 343.036C1313.7 344.536 1315 345.136 1316.4 346.335C1318.9 348.435 1318.4 349.735 1321.8 350.334C1323.4 350.634 1325 350.634 1326.6 350.934C1328 351.134 1329.4 351.634 1330.8 351.334C1332.4 351.034 1334 349.635 1335.79 349.335C1338.89 348.735 1342.29 349.435 1345.19 348.035C1346.09 347.635 1345.79 347.435 1346.99 347.135C1349.89 346.635 1351.69 347.535 1354.29 348.435C1357.99 349.735 1362.99 348.835 1366.99 348.835C1369.49 348.835 1371.99 348.935 1374.39 348.835C1376.29 348.735 1378.88 348.335 1380.18 347.135C1381.68 345.836 1381.68 344.936 1384.18 345.436C1385.88 345.836 1386.28 346.835 1387.58 347.835C1388.78 348.835 1389.88 349.135 1391.28 349.635C1393.68 350.434 1395.58 350.434 1398.08 350.434C1400.48 350.434 1403.08 350.834 1405.28 349.635C1406.28 349.035 1406.78 348.235 1407.88 347.935C1409.68 347.335 1409.08 348.035 1410.88 346.435C1412.38 345.036 1410.98 345.636 1413.08 345.436C1414.28 345.236 1415.88 345.436 1417.08 345.436C1419.58 345.436 1422.97 344.836 1425.27 345.636C1427.07 346.235 1428.87 347.335 1430.67 347.735C1433.57 348.435 1436.77 348.035 1439.67 347.435C1443.17 346.735 1446.77 346.135 1450.27 345.336C1453.47 344.536 1456.67 343.636 1459.97 342.936C1462.57 342.336 1468.86 340.337 1470.36 342.836C1471.96 345.436 1475.16 346.235 1477.06 346.635C1480.86 347.535 1483.56 344.836 1487.06 343.936C1489.96 343.136 1493.26 343.536 1496.26 343.536C1501.96 343.536 1508.06 342.336 1513.75 343.436C1515.55 343.836 1516.75 344.636 1518.05 345.836C1521.05 348.535 1524.55 351.034 1528.75 351.034C1529.95 351.034 1531.15 351.034 1532.35 351.034C1534.85 351.034 1536.55 350.234 1538.95 349.535C1540.55 349.035 1542.75 348.735 1544.15 347.935C1544.45 347.735 1544.55 347.135 1544.85 346.935C1546.55 346.235 1547.55 347.035 1549.05 345.536C1549.35 345.236 1549.25 344.636 1549.55 344.436C1550.05 344.036 1551.65 343.936 1552.15 343.836C1556.84 343.036 1561.94 344.336 1566.44 342.336C1567.64 341.836 1568.74 340.937 1570.04 340.737C1571.94 340.337 1573.84 341.137 1575.64 341.536C1578.04 342.136 1580.44 341.736 1582.84 342.236C1583.14 346.835 1589.44 345.636 1592.64 345.436C1596.24 345.236 1599.33 341.536 1602.93 341.936C1604.33 342.136 1606.23 343.136 1607.53 343.636C1608.73 344.136 1609.13 344.936 1610.43 345.736C1613.23 347.535 1615.63 347.835 1618.93 347.835C1622.03 347.835 1624.93 347.835 1628.03 347.435C1630.83 347.135 1633.83 347.535 1636.53 347.035C1639.13 346.535 1641.82 345.935 1644.62 345.536C1646.32 345.236 1647.92 345.436 1649.52 344.936C1651.72 344.336 1653.62 344.036 1655.82 343.636C1658.32 343.136 1660.92 341.337 1663.52 340.737C1666.62 339.937 1670.02 340.537 1673.22 340.037C1675.82 339.737 1677.22 339.737 1679.52 340.737C1685.11 343.136 1691.61 341.337 1697.21 343.636C1699.71 344.636 1699.91 346.235 1701.81 347.535C1705.01 349.835 1708.91 349.135 1712.41 349.935C1716.71 350.834 1720.41 350.834 1725.01 350.934C1730.8 351.034 1735.1 346.835 1740.7 345.136C1744.1 344.136 1747.4 345.236 1750.8 344.736C1753.4 344.336 1756.3 342.636 1758.3 341.437C1759.7 340.637 1760.9 339.137 1762.7 338.337C1766.9 336.438 1771.5 337.038 1775.99 336.338C1780.79 335.638 1787.89 332.139 1792.69 335.138C1796.19 337.337 1797.99 342.136 1801.89 343.536C1806.89 345.236 1811.59 346.935 1816.38 349.235C1820.08 351.034 1821.78 350.834 1825.48 350.135C1829.78 349.235 1835.08 351.434 1839.18 349.935C1840.38 349.535 1840.88 348.835 1841.78 347.935C1842.58 347.135 1843.88 346.635 1844.48 345.736C1845.98 343.636 1844.88 343.136 1847.38 342.936C1849.08 342.836 1850.68 342.736 1852.38 342.536C1855.88 342.036 1859.28 341.237 1862.77 341.237C1863.17 341.237 1864.97 340.937 1865.37 341.137C1866.47 341.736 1866.17 343.036 1866.97 343.836C1868.27 345.036 1870.27 344.636 1871.87 344.536C1875.07 344.536 1878.37 344.636 1881.57 344.836C1884.47 345.036 1888.07 345.935 1890.97 345.536C1893.07 345.236 1893.97 343.136 1895.97 344.636C1896.77 345.236 1896.87 345.935 1897.87 346.335C1899.37 346.835 1901.17 346.035 1902.57 345.736C1906.56 345.036 1910.26 345.336 1914.26 345.736C1920.06 346.335 1925.76 345.736 1931.46 344.836C1935.16 344.336 1939.06 344.036 1942.66 342.636C1944.06 342.036 1945.66 340.937 1946.85 341.736C1948.35 342.836 1949.65 343.836 1950.55 345.436C1951.25 346.635 1950.15 348.235 1951.15 349.035C1952.25 349.835 1952.85 350.234 1954.05 350.734C1954.95 351.134 1955.95 350.834 1956.95 351.034C1957.85 351.234 1958.35 351.934 1959.35 351.834C1960.85 351.734 1962.05 349.935 1963.45 349.235C1966.05 347.835 1969.35 347.735 1972.15 346.835C1975.45 345.836 1978.25 343.936 1981.45 342.736C1982.85 342.136 1988.05 341.237 1990.35 340.437C1989.75 342.436 1990.45 347.535 1991.54 348.735C1992.14 349.535 1992.34 348.935 1993.14 349.335C1993.74 349.635 1994.24 350.135 1994.84 350.434C1998.14 351.934 2002.14 350.135 2005.64 351.234C2010.14 352.634 2013.94 353.634 2018.74 353.434C2021.64 353.334 2023.94 352.234 2026.74 351.534C2029.84 350.834 2031.34 348.235 2033.04 345.736C2033.44 345.136 2034.44 342.636 2035.23 342.436C2036.03 342.136 2037.13 342.936 2037.93 343.136C2040.43 343.736 2042.83 342.636 2045.03 344.136C2046.53 345.136 2047.93 346.135 2049.43 347.135C2051.13 348.335 2052.73 349.635 2054.33 350.934C2056.93 353.034 2059.83 352.634 2063.13 352.534C2066.93 352.434 2069.23 348.735 2073.03 348.335C2075.03 348.035 2076.43 348.935 2077.93 346.935C2078.82 345.836 2077.83 344.436 2078.72 343.536C2079.92 342.336 2081.72 342.936 2083.32 342.336C2087.42 341.037 2091.52 340.737 2095.92 340.737C2100.32 340.737 2105.82 341.736 2109.62 338.637C2110.72 337.737 2110.62 336.438 2112.12 335.938C2113.52 335.438 2116.62 336.038 2118.02 336.038C2121.02 336.038 2123.41 336.138 2126.31 337.038C2129.21 337.937 2131.21 340.837 2134.01 341.536C2135.61 341.936 2137.61 341.437 2139.31 341.736C2141.21 342.036 2142.91 342.536 2144.61 343.436C2146.11 344.136 2147.31 345.136 2148.51 346.135C2148.91 346.535 2149.21 347.035 2149.61 347.335C2151.21 348.835 2155.01 345.736 2156.21 347.535C2158.31 350.634 2161.81 349.935 2163.11 351.934C2163.31 352.334 2163.31 352.834 2163.71 353.034C2164.41 353.434 2165.31 353.234 2166.1 353.134C2169.7 352.934 2173.5 353.334 2177.1 353.034C2183.5 352.434 2188.4 348.035 2195 348.135C2197.5 348.135 2200.4 347.735 2202.9 348.135C2204 348.335 2205.1 348.835 2206.3 349.135C2208.1 349.535 2209.59 349.935 2211.49 349.935C2213.89 349.935 2216.69 349.435 2218.89 350.634C2220.69 351.534 2221.19 353.634 2222.79 354.633C2223.39 355.033 2225.49 355.633 2226.19 355.833C2227.89 356.133 2230.19 355.833 2231.89 355.833C2234.79 355.833 2237.69 356.033 2240.59 355.833C2241.49 355.733 2242.09 356.133 2242.99 355.533C2244.49 354.633 2244.39 350.135 2246.19 351.034C2247.19 351.534 2244.99 354.034 2245.49 354.933C2246.39 356.733 2249.59 355.833 2251.39 355.733C2252.49 355.733 2253.88 354.933 2254.68 354.933C2256.38 354.933 2256.88 356.733 2257.98 357.833C2259.38 359.132 2260.08 359.032 2261.78 359.032C2262.88 359.032 2263.78 358.733 2264.88 359.332C2266.28 360.132 2266.78 363.232 2268.58 362.532C2270.48 361.732 2271.28 359.432 2272.98 358.233C2273.78 357.733 2274.68 357.233 2275.58 357.133C2277.08 357.033 2278.78 358.033 2279.78 357.033C2280.38 356.333 2280.48 355.033 2281.38 355.033C2283.18 354.933 2284.18 357.433 2285.88 357.933C2288.18 358.633 2287.18 354.134 2287.18 353.034C2287.18 351.834 2287.38 351.434 2288.18 350.534C2290.18 348.335 2293.08 347.635 2295.98 347.535C2301.37 347.335 2307.07 347.435 2312.47 347.535C2313.97 347.535 2314.97 347.535 2316.37 348.335C2317.97 349.235 2319.17 350.234 2320.97 351.134C2324.37 352.734 2326.97 353.434 2330.57 353.434C2332.67 353.434 2334.77 353.534 2336.87 353.434C2340.47 353.334 2343.26 351.434 2346.46 350.035C2348.16 349.335 2349.66 349.235 2351.46 348.835C2353.06 348.435 2353.86 347.435 2355.36 346.835C2358.56 345.636 2362.76 346.935 2366.06 346.235C2367.36 345.935 2370.06 345.036 2371.36 345.436C2374.56 346.635 2376.06 352.234 2377.76 354.833C2379.16 356.933 2379.96 358.033 2382.36 358.433C2382.86 358.333 2383.46 358.233 2383.96 358.233C2384.45 358.433 2384.95 358.633 2385.35 358.933C2388.15 359.432 2391.15 359.332 2393.95 359.732C2398.35 360.332 2403.05 360.232 2407.35 359.332C2411.55 358.433 2414.95 356.733 2418.85 355.133C2421.25 354.134 2423.85 353.434 2425.95 352.434C2427.05 351.934 2428.05 351.034 2429.24 350.834C2432.14 350.135 2435.64 351.134 2438.54 351.634C2439.94 351.834 2444.04 351.934 2445.64 352.734C2447.44 356.033 2451.24 358.033 2454.84 358.733C2458.94 359.532 2463.64 362.232 2467.84 361.332C2470.34 360.832 2474.43 357.833 2476.93 358.333C2479.03 358.733 2481.63 361.432 2483.33 362.532C2483.93 362.932 2484.43 363.332 2485.03 363.631C2486.03 364.331 2487.03 365.131 2488.13 365.831C2489.73 366.931 2491.53 367.83 2493.53 367.231C2496.13 366.531 2497.33 364.031 2499.13 362.332C2500.93 360.532 2503.53 359.832 2505.43 358.233C2508.03 356.033 2509.53 356.433 2512.83 355.933C2519.52 355.133 2526.12 353.034 2532.82 352.234C2535.12 351.934 2538.32 352.934 2540.42 352.234C2541.82 351.734 2541.92 350.634 2543.32 350.634C2546.12 350.634 2548.72 351.534 2551.52 351.234C2554.92 350.834 2558.32 350.734 2561.71 350.634C2564.71 350.534 2567.71 350.634 2570.71 351.234C2573.31 351.834 2575.91 352.734 2578.41 353.534C2580.51 354.134 2579.81 354.134 2581.41 353.134C2591.61 346.735 2604 348.635 2615.4 345.736C2621 344.336 2626.1 343.036 2631.9 342.436C2635 342.136 2638 341.636 2640.9 340.537C2644.9 339.037 2648.09 340.037 2652.19 341.437C2656.09 342.736 2658.39 346.535 2662.09 347.835C2664.89 348.835 2668.39 348.035 2671.39 348.135C2676.59 348.135 2683.09 348.635 2687.79 345.836C2690.09 344.436 2691.18 342.836 2694.08 343.036C2695.78 344.336 2697.78 344.336 2699.88 344.336C2703.18 344.336 2707.88 345.236 2710.88 343.936C2715.78 341.936 2721.28 342.636 2726.58 342.636C2728.98 342.636 2731.28 342.436 2733.58 342.836C2736.47 343.236 2739.37 343.736 2742.47 343.536C2744.47 343.336 2746.37 342.736 2748.47 342.636C2753.37 342.436 2758.17 342.636 2763.07 342.236C2764.47 342.136 2765.87 342.136 2767.17 342.336C2771.47 343.036 2775.67 344.636 2779.56 346.435C2783.66 348.435 2786.66 351.234 2790.26 353.834C2790.96 353.434 2790.86 352.934 2791.26 352.234C2792.26 350.534 2793.56 349.035 2794.76 347.535C2796.66 345.036 2799.76 340.437 2802.96 339.537C2804.36 339.137 2806.16 339.737 2807.76 339.537C2812.66 338.837 2816.16 336.338 2820.46 334.338C2821.95 333.638 2823.65 333.538 2825.25 333.038C2826.05 332.738 2826.75 332.139 2827.45 331.839C2829.15 331.139 2829.15 331.839 2830.35 333.438C2832.35 336.038 2835.75 337.937 2838.35 340.137C2839.75 341.337 2840.85 341.536 2842.65 342.336C2844.75 343.336 2846.75 344.036 2848.95 344.636C2850.35 345.036 2851.45 345.136 2852.55 346.035C2854.85 347.935 2855.75 349.835 2859.05 350.434C2861.15 350.834 2863.65 350.734 2865.44 349.735C2867.44 348.635 2867.64 347.035 2868.74 345.236C2870.04 343.136 2872.44 343.836 2874.54 343.936C2876.94 344.036 2879.34 342.936 2881.74 343.536C2884.94 344.336 2886.14 347.935 2888.54 349.835C2892.14 352.734 2898.04 353.634 2902.54 353.734C2907.74 353.834 2912.83 352.334 2916.83 348.935C2919.13 346.935 2920.53 348.235 2923.53 349.135C2927.83 350.434 2930.13 352.734 2932.43 356.433C2935.33 361.232 2940.43 360.132 2944.63 363.731C2947.03 365.831 2947.93 365.331 2950.83 363.931C2952.43 363.132 2953.23 362.332 2954.42 360.932C2955.42 359.632 2956.02 357.733 2957.82 357.533C2959.52 357.333 2961.02 359.632 2962.42 358.333C2963.52 357.333 2961.82 355.533 2962.72 354.434C2964.32 352.634 2966.92 355.033 2968.82 356.033C2972.52 358.033 2975.52 357.733 2979.52 357.733C2983.22 357.733 2986.92 357.733 2990.72 357.733C2993.72 357.733 2997.11 357.233 2999.91 358.333C3002.41 359.332 3003.21 361.932 3005.81 362.732C3007.01 363.032 3008.41 363.032 3009.51 362.632C3011.51 361.932 3012.81 360.132 3014.51 358.933C3020.01 355.133 3027.51 360.032 3032.81 356.533C3033.41 356.133 3033.51 355.333 3034.21 354.933C3035.01 354.534 3036.51 354.733 3037.41 354.833C3038.91 354.933 3039.71 354.933 3041.1 354.334C3042.3 353.734 3043.1 352.034 3044.4 351.634C3053 348.735 3059.5 361.632 3067.8 357.333C3070.3 356.033 3072.9 355.233 3075.6 354.134C3077.7 353.234 3079.7 351.834 3081.9 351.534C3083.7 351.334 3084.3 351.234 3086.09 350.434C3087.99 349.535 3090.19 349.135 3092.29 349.035C3094.79 348.935 3095.99 349.635 3098.19 350.534C3099.19 350.934 3099.99 350.934 3100.99 351.534C3101.39 351.834 3102.19 352.834 3102.79 353.134C3103.69 353.434 3104.29 353.034 3105.09 353.234C3106.39 353.434 3107.29 354.034 3108.59 354.434C3109.89 354.833 3111.19 354.733 3112.49 355.133C3113.89 355.533 3114.99 356.333 3116.39 356.633C3120.69 357.533 3124.69 356.233 3128.79 358.133C3130.28 358.833 3131.48 358.933 3133.08 359.332C3135.18 359.832 3136.88 360.732 3139.08 360.832C3142.88 361.032 3146.78 360.832 3150.58 360.832C3152.08 360.832 3154.08 361.232 3155.58 360.732C3157.58 360.132 3158.78 358.033 3160.38 357.133C3162.68 355.933 3166.88 356.633 3169.58 356.633C3171.48 356.633 3172.77 356.833 3174.67 357.233C3177.57 357.933 3178.97 360.332 3181.87 358.233C3182.87 357.533 3183.87 356.433 3184.97 355.833C3186.37 355.033 3187.87 354.633 3189.27 353.734C3192.47 351.634 3192.17 351.134 3195.47 353.034C3197.27 354.134 3199.37 354.833 3201.17 355.833C3201.57 356.033 3203.97 358.033 3204.97 358.233C3206.17 358.533 3208.17 358.433 3209.37 358.233C3213.67 357.233 3215.36 350.334 3220.36 352.034C3224.36 353.434 3228.46 354.034 3232.76 354.234C3236.26 354.434 3235.36 352.834 3236.56 350.135C3237.06 349.035 3237.86 347.435 3238.66 346.635C3239.96 345.236 3242.06 345.836 3243.96 345.836C3246.96 345.836 3249.96 345.836 3252.96 345.836C3255.46 345.836 3256.06 345.935 3258.06 344.736C3262.75 341.836 3267.05 342.236 3272.05 344.336C3276.65 346.335 3282.05 344.336 3284.95 340.437C3285.35 339.937 3285.85 338.737 3286.35 338.437C3288.15 337.237 3289.65 338.737 3290.95 340.137C3291.35 340.537 3291.65 341.037 3292.15 341.237C3292.65 341.437 3293.15 341.237 3293.55 341.536C3294.05 341.836 3294.25 342.836 3294.65 343.336C3296.75 345.536 3300.95 346.035 3303.84 345.836C3310.24 345.436 3315.64 340.637 3321.84 339.037C3322.84 338.737 3323.74 338.837 3324.64 338.337C3325.24 337.937 3325.64 336.938 3326.24 336.638C3327.74 335.938 3330.54 337.737 3332.14 337.937C3334.14 338.237 3337.14 338.437 3339.14 338.037C3342.04 337.537 3343.24 336.038 3346.34 336.238C3348.13 336.338 3349.83 336.738 3351.33 337.837C3352.23 338.537 3352.83 339.437 3353.83 340.037C3356.13 341.337 3359.13 341.237 3361.63 341.337C3367.13 341.536 3375.93 341.736 3379.33 336.438C3380.73 334.238 3381.53 333.638 3384.03 333.738C3385.43 333.738 3387.83 334.338 3388.73 332.938C3389.33 331.939 3388.13 329.739 3388.93 328.839C3391.92 325.54 3395.52 329.939 3398.92 332.039C3402.32 334.138 3405.52 336.538 3408.92 338.637C3410.62 339.737 3415.32 343.536 3417.92 342.036C3419.02 341.437 3420.52 337.737 3420.82 337.038C3422.12 334.338 3421.72 330.039 3424.42 328.639C3426.12 327.74 3428.02 327.94 3430.02 327.84C3432.92 327.74 3436.11 328.539 3439.01 329.239C3441.21 329.839 3443.81 331.439 3445.61 329.639C3446.21 329.039 3445.91 327.94 3447.01 327.94C3447.81 327.94 3449.01 329.539 3449.71 330.039C3453.21 332.738 3458.71 332.339 3463.01 332.239C3466.41 332.239 3469.81 331.939 3473.21 331.539C3476.31 331.139 3479.7 330.039 3482.9 330.539C3488.8 331.439 3494.2 337.837 3500 339.337V409.321C3498.8 409.321 3497.6 406.422 3496.4 406.422C3492.5 406.322 3488.5 406.522 3484.6 406.422C3481.6 406.322 3478.2 406.222 3475.31 405.722C3474.11 405.522 3473.41 404.722 3472.41 404.322C3471.11 403.722 3469.71 404.122 3468.31 404.222C3465.01 404.222 3461.81 404.322 3458.81 405.522C3458.31 405.822 3457.91 406.122 3457.51 406.522C3456.71 406.822 3455.81 407.121 3455.01 407.221C3453.21 408.021 3453.41 409.221 3452.11 410.221C3450.81 411.321 3449.91 410.621 3448.21 410.721C3446.01 410.921 3444.81 412.52 3443.01 413.42C3440.91 414.42 3438.71 413.72 3436.51 414.12C3434.92 414.42 3435.41 414.62 3434.02 415.42C3431.82 416.719 3429.32 416.419 3426.82 416.719C3424.92 416.919 3423.32 417.719 3421.42 418.119C3420.42 418.319 3419.52 418.319 3418.52 418.319C3415.52 418.319 3412.62 418.819 3409.62 418.619C3407.22 418.419 3404.02 418.519 3402.42 416.519C3400.92 414.52 3401.12 411.421 3399.52 409.521C3396.12 405.522 3386.93 405.922 3382.43 407.921C3381.43 408.321 3380.43 408.721 3379.63 409.321C3378.03 410.521 3377.23 412.22 3377.13 414.42C3376.23 416.819 3375.23 419.219 3374.33 421.718C3374.03 422.418 3371.03 429.416 3368.13 428.417C3367.43 428.217 3367.03 426.017 3366.13 425.517C3364.43 424.617 3361.03 425.217 3359.23 425.217C3356.43 425.217 3353.63 425.217 3350.83 425.217C3347.93 425.217 3345.04 425.317 3342.04 425.317C3335.84 425.317 3331.34 421.718 3325.64 419.919C3319.94 418.119 3313.44 419.919 3307.74 420.318C3304.44 420.518 3301.05 419.719 3297.75 420.618C3294.05 421.618 3290.35 423.018 3286.55 423.618C3285.25 423.818 3285.25 423.318 3283.65 423.818C3281.75 424.418 3279.95 426.217 3278.35 427.417C3276.75 428.617 3274.85 429.616 3274.05 431.516C3272.85 434.115 3272.85 437.415 3272.25 440.214C3270.45 440.414 3270.65 437.415 3270.25 436.115C3269.45 433.415 3267.75 430.716 3264.95 430.116C3258.56 428.817 3250.66 428.717 3244.16 429.416C3236.46 430.316 3227.76 431.316 3220.16 429.216C3216.16 428.117 3212.57 427.017 3208.47 426.817C3205.07 426.717 3201.67 426.817 3198.27 426.817C3195.27 426.817 3192.17 425.717 3191.67 429.616C3191.37 431.916 3192.07 433.316 3189.57 434.615C3187.27 435.815 3184.37 434.915 3181.87 435.315C3177.97 435.915 3174.47 437.015 3170.48 436.815C3167.28 436.715 3163.98 436.115 3161.28 434.515C3158.48 432.916 3154.88 431.816 3151.58 431.716C3150.28 431.716 3148.68 432.016 3147.38 431.816C3145.08 431.416 3142.88 430.616 3140.58 430.316C3137.68 429.916 3134.78 430.116 3131.88 430.116C3129.78 430.116 3127.49 429.816 3125.49 430.216C3121.99 431.016 3118.69 433.116 3115.39 434.515C3112.89 435.615 3111.89 436.415 3109.39 435.015C3107.69 434.115 3105.89 432.516 3104.69 431.016C3103.59 429.516 3103.59 427.617 3102.49 426.217C3101.59 425.117 3099.29 424.118 3098.09 423.318C3096.19 422.018 3093.09 422.218 3090.79 421.918C3087.69 421.518 3087.99 421.718 3087.19 418.819C3086.39 415.62 3084.39 416.819 3082.3 418.019C3079.3 419.619 3075.2 420.718 3071.8 421.018C3070 421.118 3068.3 421.618 3066.5 421.818C3065.7 421.918 3065.2 421.718 3064.4 421.918C3063.3 422.318 3062.8 423.218 3061.5 423.518C3059.4 423.918 3056.5 423.418 3054.4 423.418C3045.2 423.318 3036.41 423.718 3028.71 429.216C3026.81 430.516 3026.61 430.316 3025.01 431.116C3024.71 431.316 3024.41 432.216 3024.11 432.416C3022.21 433.515 3020.11 434.915 3018.21 436.015C3016.41 436.915 3015.01 437.215 3012.91 436.315C3011.91 435.915 3010.41 434.415 3009.91 434.015C3007.31 432.016 3004.51 430.116 3001.61 428.517C3000.61 427.917 2999.11 428.017 2998.21 427.517C2997.32 427.017 2996.81 425.217 2996.12 424.518C2993.42 421.818 2989.02 421.818 2985.52 421.818C2982.72 421.818 2979.82 421.318 2977.32 422.618C2976.12 423.218 2974.92 424.418 2973.82 425.217C2972.82 425.817 2971.52 426.317 2970.72 427.017C2970.02 427.617 2969.52 428.317 2969.22 429.216C2968.62 430.916 2969.22 430.716 2967.52 431.516C2962.62 433.815 2955.12 429.416 2950.83 427.217C2949.93 426.817 2948.83 426.417 2948.03 425.917C2947.23 425.417 2946.53 424.418 2945.63 424.218C2944.33 423.918 2943.53 425.117 2942.73 425.917C2940.43 428.217 2938.23 430.016 2935.83 432.016C2933.03 430.916 2931.73 427.317 2929.83 425.217C2928.03 423.218 2926.03 422.518 2923.43 422.618C2920.63 422.718 2920.13 424.018 2919.33 426.517C2918.53 429.116 2918.63 433.016 2915.23 432.916C2910.03 432.716 2907.54 425.317 2902.44 425.117C2899.04 425.017 2896.24 426.917 2892.74 426.817C2890.14 426.817 2885.84 425.917 2883.84 427.817C2883.14 428.417 2882.84 430.116 2882.24 430.716C2881.14 431.616 2877.34 431.116 2876.24 431.116C2873.84 431.016 2871.44 430.316 2869.04 430.216C2867.84 430.116 2866.74 430.316 2865.55 430.016C2863.75 432.216 2864.85 436.215 2865.05 438.814C2859.75 436.815 2855.65 432.116 2850.75 429.216C2848.25 427.717 2845.65 427.017 2843.05 425.717C2841.55 425.017 2841.05 424.318 2839.25 424.617C2837.15 424.917 2835.05 425.717 2832.85 426.017C2828.55 426.617 2823.55 426.417 2819.16 426.117C2815.56 425.917 2812.36 424.518 2808.76 424.418C2806.16 424.318 2803.16 425.017 2800.66 424.318C2797.66 423.418 2796.66 423.918 2793.96 425.617C2790.56 427.717 2787.46 426.517 2783.66 427.117C2781.26 427.517 2781.46 428.317 2779.96 429.716C2778.66 430.916 2776.07 431.516 2774.37 431.816C2773.37 432.016 2771.97 432.316 2770.97 432.116C2767.97 431.516 2765.47 428.117 2762.97 426.517C2760.67 424.717 2758.07 423.318 2755.17 422.418C2753.77 422.218 2752.47 421.818 2751.17 421.418C2750.67 421.118 2750.17 421.218 2749.67 421.718C2748.87 422.918 2748.17 424.018 2747.37 425.217C2746.07 426.117 2742.97 425.417 2741.27 425.417C2733.58 425.417 2725.88 425.417 2718.18 425.417C2714.38 425.417 2711.28 425.417 2708.48 422.318C2707.58 421.318 2707.08 420.019 2705.78 419.219C2704.78 418.719 2704.38 419.019 2703.28 418.819C2700.28 418.419 2698.68 414.32 2695.38 414.52C2692.58 414.62 2691.38 418.919 2689.89 420.818C2688.19 423.018 2686.79 424.318 2685.89 427.017C2683.29 427.617 2679.89 422.918 2678.09 421.218C2675.79 419.219 2673.69 418.919 2671.09 417.819C2668.39 416.719 2666.39 414.32 2663.49 413.32C2661.29 412.52 2660.79 413.92 2658.79 413.92C2657.59 413.92 2656.09 413.02 2654.99 412.62C2652.39 411.72 2650.49 410.321 2647.69 410.421C2645.4 410.521 2643.1 410.621 2640.9 409.621C2639.2 408.921 2638 409.121 2636.4 409.021C2634.2 408.821 2631.9 407.521 2629.9 406.622C2627.3 405.422 2625.2 404.122 2622.3 404.822C2619.9 405.422 2617.8 407.221 2615.5 408.021C2611.6 409.421 2607.6 410.621 2603.5 411.72C2601.41 412.32 2599.41 411.92 2597.31 412.12C2595.61 412.32 2595.81 413.22 2593.81 413.42C2589.01 413.92 2583.91 413.32 2579.11 413.42C2572.31 413.42 2565.91 406.922 2560.31 410.421C2559.32 411.021 2560.91 413.72 2559.91 414.52C2556.72 417.019 2556.12 420.119 2554.42 422.818C2552.72 425.517 2553.32 425.117 2550.62 424.018C2548.92 423.318 2546.92 421.418 2545.02 421.218C2542.32 420.818 2542.82 423.618 2540.32 423.918C2532.62 424.817 2524.82 407.421 2518.72 413.52C2517.12 415.12 2520.62 421.618 2520.02 424.118C2519.42 426.617 2515.43 419.219 2513.03 420.119C2511.23 420.818 2512.33 421.718 2511.43 422.718C2510.33 424.018 2508.63 424.518 2506.83 424.717C2503.53 425.117 2500.23 423.818 2496.83 423.518C2493.83 423.318 2490.83 423.818 2487.93 424.518C2485.73 425.017 2483.53 425.617 2481.43 426.417C2479.93 427.017 2477.73 428.617 2476.23 428.817C2475.63 428.917 2475.03 429.016 2474.53 429.216C2473.93 429.316 2473.63 429.716 2473.53 430.316C2473.43 431.216 2465.54 432.816 2464.54 432.816C2462.54 432.816 2460.54 431.916 2459.24 434.015C2457.74 436.415 2458.64 443.113 2455.74 444.513C2453.04 445.813 2447.44 442.313 2444.94 441.714C2443.54 441.414 2442.14 440.814 2440.74 440.514C2438.44 439.914 2435.34 440.314 2433.14 440.314C2429.44 440.314 2425.45 439.914 2421.65 440.514C2420.15 440.714 2418.65 441.214 2417.15 441.314C2414.15 441.614 2409.05 442.213 2406.75 439.714C2405.75 438.614 2405.95 437.715 2404.65 436.815C2403.05 435.615 2400.55 434.615 2398.65 434.115C2396.05 433.415 2393.75 431.716 2391.15 431.316C2388.85 430.916 2386.45 431.216 2384.16 430.716C2382.26 430.316 2379.96 430.316 2378.06 430.516C2375.16 430.816 2372.86 431.416 2369.76 431.416C2367.26 431.416 2364.66 431.316 2362.16 431.416C2360.36 431.516 2359.56 431.216 2359.06 433.116C2358.76 434.215 2359.76 436.115 2359.26 437.215C2358.56 438.714 2353.56 438.914 2351.86 439.014C2349.06 439.114 2345.46 439.914 2342.96 438.514C2340.07 436.815 2336.77 434.715 2334.27 432.316C2331.77 430.016 2330.27 427.617 2326.67 426.717C2322.17 425.617 2318.27 426.017 2314.47 428.817C2313.37 429.616 2312.47 430.616 2311.77 431.716C2310.37 433.615 2308.97 434.915 2307.37 436.615C2304.77 439.314 2303.97 441.614 2304.27 445.413C2304.37 447.512 2304.37 449.312 2303.67 451.311C2301.77 451.411 2300.07 448.912 2298.97 447.712C2297.47 446.213 2295.98 444.613 2294.48 443.113C2291.28 439.914 2287.58 437.315 2284.28 434.215C2282.98 433.016 2281.28 430.516 2279.28 430.616C2276.28 430.716 2274.88 433.815 2273.18 435.615C2271.68 437.215 2269.78 436.415 2267.78 436.015C2264.18 435.315 2260.48 436.315 2256.98 435.715C2252.49 435.015 2248.89 431.516 2244.19 431.216C2241.49 431.016 2234.29 431.516 2232.49 433.915C2231.79 434.915 2232.09 435.915 2231.29 436.815C2230.49 437.715 2229.39 437.914 2228.29 438.114C2226.39 438.414 2224.09 438.314 2222.19 438.014C2220.09 437.615 2218.39 436.615 2216.19 436.415C2214.79 436.315 2213.39 436.515 2211.99 436.515C2210.39 436.515 2208.4 436.115 2206.9 436.615C2205.4 437.115 2204.7 438.614 2203.2 439.014C2201.8 439.414 2200.6 438.914 2199.6 438.114C2197.6 436.515 2196.4 435.015 2194.1 433.515C2188.3 429.816 2182.5 426.517 2177.4 421.718C2175.6 420.019 2173.9 418.319 2172 416.719C2166.7 412.32 2160.51 411.421 2153.71 411.72C2149.51 411.82 2145.31 412.42 2141.11 413.32C2137.41 414.22 2133.81 416.119 2130.01 416.519C2123.71 417.319 2117.52 413.22 2111.22 413.32C2108.52 413.32 2105.82 413.32 2103.02 413.32C2100.52 413.32 2098.92 413.52 2096.62 412.32C2095.22 411.52 2094.32 410.921 2092.62 410.821C2088.72 410.521 2083.62 409.021 2080.02 410.721C2078.43 411.421 2076.93 412.02 2075.23 412.72C2071.83 414.02 2068.83 416.319 2065.43 417.619C2064.13 418.119 2062.53 418.719 2061.13 418.919C2057.73 419.519 2053.73 418.819 2050.33 418.819C2045.13 418.819 2039.83 419.119 2034.73 420.418C2028.14 422.118 2024.74 429.316 2017.84 430.716C2015.44 431.216 2012.84 430.716 2010.64 429.916C2005.34 428.017 2000.24 426.317 1994.74 424.817C1991.34 423.918 1988.65 421.818 1985.35 420.918C1982.75 420.219 1980.45 420.518 1977.95 419.319C1970.45 415.82 1961.35 417.319 1953.15 417.319C1951.15 417.319 1949.45 415.42 1948.15 413.82C1947.55 413.02 1947.15 412.32 1946.26 411.82C1945.46 411.321 1945.36 411.021 1944.86 410.421C1944.36 409.821 1943.26 409.521 1942.46 409.221C1941.36 408.721 1940.06 408.721 1938.86 408.721C1937.56 408.721 1936.36 408.621 1935.06 409.021C1933.46 409.521 1931.76 409.321 1930.06 409.521C1928.96 409.621 1927.26 409.321 1926.26 410.021C1925.56 410.521 1924.96 411.421 1924.36 412.02C1923.06 413.22 1921.76 414.62 1919.96 415.12C1918.86 415.42 1917.76 415.32 1916.56 415.32C1913.56 415.32 1910.66 415.62 1907.66 415.62C1907.16 415.62 1906.56 415.52 1906.06 415.62C1905.76 415.72 1905.56 416.019 1905.26 416.219C1903.96 415.72 1903.86 415.32 1902.87 416.019Z" fill="#2C221D"/>
<rect width="3500" height="124" transform="matrix(1 0 0 -1 0 488)" fill="#2C221D"/>
<path d="M5399.87 416.019C5394.27 416.019 5387.67 417.619 5383.67 412.82C5383.07 412.02 5382.17 411.021 5381.67 410.121C5381.27 409.321 5381.47 408.221 5381.07 407.421C5379.87 405.222 5378.07 406.122 5375.47 405.922C5370.27 405.522 5368.47 403.122 5364.27 400.423C5361.27 398.523 5358.57 397.424 5354.88 397.624C5351.08 397.824 5349.08 399.723 5346.48 402.223C5344.88 403.822 5343.18 406.122 5340.78 406.722C5339.38 407.022 5337.88 406.722 5336.48 406.722C5331.58 406.622 5326.68 406.922 5321.78 406.722C5318.08 406.622 5314.48 406.122 5310.89 405.922C5307.09 405.722 5303.39 406.122 5299.79 405.022C5298.49 404.622 5297.39 404.422 5296.19 404.222C5293.69 403.822 5293.79 403.722 5292.09 401.723C5291.29 400.823 5289.69 398.723 5288.39 398.224C5287.39 397.824 5284.49 398.324 5283.49 398.324C5276.19 398.324 5268.99 399.323 5261.7 399.123C5259.2 399.023 5257.5 398.823 5255.8 400.823C5254.2 402.722 5254.5 404.922 5253.2 406.722C5251.1 409.821 5243.3 408.521 5240.3 408.221C5229.7 407.022 5218.51 406.922 5207.91 408.521C5206.41 408.721 5205.41 409.221 5204.01 409.221C5200.91 409.321 5197.21 407.521 5194.21 407.221C5187.91 406.422 5179.82 402.822 5174.92 406.722C5173.82 407.621 5174.82 409.821 5173.52 410.721C5172.82 411.121 5169.92 410.921 5169.32 411.021C5168.42 411.221 5167.62 411.52 5166.62 411.72C5163.82 412.12 5161.72 412.52 5158.52 412.52C5153.32 412.52 5148.22 412.42 5143.02 412.52C5138.72 412.62 5134.63 413.62 5130.43 414.02C5128.33 414.22 5126.83 413.62 5125.33 415.32C5123.63 417.219 5123.83 419.419 5121.03 420.119C5119.53 420.518 5117.23 420.119 5115.73 420.119C5113.33 420.119 5110.93 420.119 5108.63 419.219C5108.13 419.019 5108.13 418.519 5107.53 418.319C5107.03 418.219 5106.43 418.319 5105.83 418.219C5102.23 417.219 5099.33 413.72 5096.13 411.92C5092.54 409.921 5088.34 409.521 5084.44 408.521C5079.04 407.022 5074.14 404.522 5068.44 404.222C5061.54 403.822 5054.54 403.522 5047.85 402.223C5046.05 401.823 5044.35 401.723 5042.55 401.823C5039.05 401.923 5036.75 401.323 5033.55 399.723C5031.45 398.723 5029.55 398.324 5027.45 397.524C5026.95 397.324 5026.35 396.724 5025.75 396.724C5025.25 396.724 5025.05 396.824 5024.55 396.924C5024.15 397.024 5023.85 397.424 5023.45 397.624C5021.65 398.423 5019.65 398.523 5017.75 398.823C5015.85 399.023 5014.15 399.423 5012.45 400.223C5011.85 400.523 5011.45 400.923 5010.75 401.123C5009.45 401.423 5007.75 400.823 5006.36 400.923C5004.16 401.023 5002.76 401.823 5000.86 402.723C4997.36 404.322 4995.06 404.422 4991.36 404.422C4989.76 404.422 4987.76 404.722 4986.26 404.322C4983.96 403.622 4982.56 402.123 4979.86 402.822C4976.36 403.722 4975.66 406.922 4974.16 409.621C4973.36 411.021 4974.26 410.921 4972.46 411.121C4970.76 411.321 4968.76 411.121 4967.06 411.121C4962.46 411.221 4958.57 410.421 4954.07 409.521C4948.67 408.421 4943.07 407.721 4937.67 407.121C4932.57 406.522 4927.47 405.622 4922.17 405.222C4916.88 404.922 4913.48 409.021 4908.28 409.521C4902.08 410.221 4894.58 409.721 4889.08 406.922C4887.68 406.222 4886.38 405.122 4884.88 404.722C4883.28 404.322 4882.28 404.722 4880.78 405.022C4876.58 405.822 4871.79 405.222 4867.59 405.222C4864.69 405.222 4861.89 405.222 4858.99 405.222C4857.29 405.222 4855.09 405.622 4853.39 405.322C4852.29 405.122 4853.59 405.522 4851.69 404.722C4849.39 403.722 4847.89 403.022 4845.29 402.723C4837.49 401.923 4829.9 400.123 4822.2 398.723C4818.6 398.024 4815.4 397.724 4811.7 397.724C4809.3 397.724 4805.7 395.824 4803.5 397.224C4801 398.723 4801.7 403.122 4801 405.622C4799.6 410.121 4796.6 410.421 4792.5 409.121C4788 407.721 4783.61 405.522 4778.71 406.322C4775.61 406.922 4773.11 409.021 4770.01 409.521C4766.51 410.021 4762.91 408.621 4759.51 408.321C4756.91 408.021 4753.91 408.121 4751.41 407.121C4747.21 405.422 4744.21 403.322 4739.52 403.222C4736.42 403.222 4733.32 403.322 4730.22 403.222C4723.62 403.022 4718.92 403.722 4713.02 406.322C4711.12 407.121 4709.82 408.321 4707.72 408.521C4704.02 408.821 4700.22 406.122 4696.93 405.122C4694.63 404.422 4691.83 405.122 4689.53 404.322C4687.43 403.622 4686.73 402.323 4684.43 402.023C4682.23 401.723 4679.93 402.123 4677.73 401.423C4675.83 400.823 4674.53 399.223 4673.13 398.523C4672.13 398.124 4669.53 398.024 4669.13 398.024C4666.43 397.624 4663.73 396.724 4661.03 397.024C4656.04 397.624 4651.84 401.723 4647.94 404.522C4643.34 407.821 4639.74 409.721 4634.24 409.621C4630.64 409.521 4627.04 409.621 4623.44 409.621C4619.54 409.621 4616.04 409.421 4612.35 408.621C4608.55 407.821 4604.85 409.021 4601.35 407.521C4599.05 406.522 4597.35 404.122 4594.95 403.422C4593.25 402.922 4591.45 403.222 4589.75 403.322C4587.25 403.322 4584.75 403.322 4582.25 403.322C4579.85 403.322 4577.35 403.222 4574.95 403.322C4572.15 403.422 4572.05 404.722 4569.75 405.622C4564.36 407.621 4557.76 407.321 4551.66 407.121C4548.76 407.022 4546.36 406.122 4543.56 405.822C4540.96 405.522 4538.06 405.822 4535.36 405.822C4530.26 405.822 4525.26 405.822 4520.17 405.822C4516.97 405.822 4513.67 406.022 4511.07 407.821C4508.57 409.521 4508.07 411.72 4504.67 412.22C4503.17 412.42 4501.37 412.12 4499.77 412.12C4491.87 412.12 4483.07 410.921 4475.28 412.02C4472.88 412.42 4471.68 414.02 4469.38 414.92C4466.98 415.919 4464.68 415.82 4462.18 415.82C4460.08 415.82 4456.88 416.519 4454.98 415.62C4453.58 415.02 4452.08 412.02 4450.68 411.121C4445.58 407.721 4441.38 412.52 4435.99 410.921C4433.39 410.121 4433.09 408.221 4430.69 406.422C4429.29 405.422 4427.89 404.922 4426.29 404.322C4424.49 403.622 4422.89 402.822 4420.49 403.222C4416.79 403.922 4413.79 408.621 4410.79 410.921C4409.69 410.521 4408.69 409.821 4407.89 408.921C4406.39 408.321 4404.89 408.121 4403.29 408.521C4401.59 407.521 4401.49 405.422 4399.69 404.422C4398.99 404.022 4396.39 403.922 4395.39 403.722C4393 403.022 4390.8 402.223 4388.2 402.123C4385.2 401.923 4382 402.123 4378.9 402.123C4377.9 402.123 4374.8 402.623 4373.9 401.923C4373.2 401.423 4373 400.023 4372.4 399.423C4370.9 397.724 4367.8 396.424 4365.8 395.224C4361.4 392.525 4355.9 393.225 4350.9 391.825C4350.21 391.625 4349.51 391.025 4348.51 390.925C4345.81 390.225 4343.01 391.325 4340.81 390.825C4340.31 390.925 4339.81 390.925 4339.31 391.025C4337.41 389.226 4336.01 387.126 4334.91 384.827C4332.51 381.527 4331.41 382.627 4327.31 383.927C4321.61 385.826 4315.51 388.926 4311.41 393.325C4310.31 394.524 4308.91 396.724 4307.11 396.824C4306.22 396.824 4305.62 396.324 4304.92 395.824C4303.62 394.924 4303.12 393.025 4301.92 392.025C4299.02 389.825 4295.02 391.325 4291.62 391.925C4288.02 392.625 4284.72 394.324 4281.22 395.024C4277.52 395.724 4273.52 395.024 4269.82 395.124C4267.22 395.224 4265.52 394.424 4263.02 393.525C4256.33 391.025 4247.83 392.725 4241.03 393.825C4237.33 394.424 4233.73 394.424 4230.13 394.324C4228.13 394.324 4224.03 393.325 4222.33 394.724C4221.63 395.324 4221.13 397.024 4220.53 397.824C4219.43 399.323 4218.14 400.223 4216.44 401.123C4213.64 402.722 4210.64 403.722 4207.54 404.622C4204.04 405.622 4200.44 405.022 4196.84 404.722C4191.44 404.222 4186.04 404.322 4180.64 404.322C4177.84 404.322 4175.54 404.222 4173.05 405.122C4170.85 405.822 4168.95 406.522 4166.65 406.822C4162.15 407.321 4157.55 406.822 4153.05 406.822C4150.05 406.822 4146.45 407.321 4143.45 406.622C4140.65 405.922 4138.55 404.822 4135.75 404.422C4128.66 403.422 4120.46 397.924 4113.06 401.123C4111.56 401.823 4110.46 402.822 4108.86 403.122C4107.66 403.322 4106.06 402.922 4104.86 402.922C4100.66 402.922 4097.96 403.822 4094.36 405.522C4090.66 407.221 4087.27 408.621 4084.27 411.52C4081.57 414.32 4080.07 414.12 4076.07 414.32C4073.37 414.42 4070.87 414.72 4068.27 415.62C4066.77 416.119 4065.47 416.819 4063.87 417.019C4059.77 417.419 4054.57 415.919 4050.47 415.62C4044.27 415.22 4041.88 412.52 4036.78 410.021C4034.58 408.921 4032.38 408.721 4030.18 407.821C4029.08 407.321 4027.88 406.222 4026.88 405.822C4024.38 404.922 4020.08 405.622 4017.48 405.622C4008.78 405.622 3999.49 406.722 3990.99 405.822C3987.09 405.422 3984.09 402.523 3980.39 401.923C3971.69 400.523 3963.09 398.024 3954.3 396.924C3947.2 396.124 3939.9 396.424 3933.7 400.323C3932.1 401.323 3930.3 403.722 3928.6 404.322C3924.5 405.622 3918.8 404.922 3914.6 405.522C3904.41 407.121 3894.71 409.621 3884.31 409.421C3881.01 409.321 3876.81 409.021 3874.21 406.722C3871.01 403.922 3871.31 402.223 3867.12 401.823C3859.82 401.223 3847.62 402.623 3841.92 407.521C3838.92 410.121 3838.12 413.92 3835.82 416.719C3834.62 418.119 3835.62 417.519 3834.22 418.219C3833.02 418.819 3828.02 418.019 3826.42 418.019C3824.13 418.019 3820.63 417.719 3818.33 418.619C3815.03 419.819 3811.03 423.918 3807.23 423.018C3803.63 422.218 3800.53 419.419 3796.53 419.219C3791.33 418.919 3788.23 418.319 3783.13 416.519C3778.64 414.92 3774.44 414.22 3769.74 414.32C3764.14 414.42 3758.44 414.32 3752.84 414.22C3739.84 414.02 3727.75 417.819 3714.95 418.219C3711.75 418.319 3708.95 419.219 3705.85 419.419C3699.55 419.819 3692.76 418.119 3686.46 419.319C3681.36 420.318 3676.96 423.118 3672.46 425.517C3670.26 426.717 3667.76 428.217 3665.26 428.817C3664.36 429.016 3663.36 428.817 3662.56 429.116C3660.86 429.616 3659.66 431.116 3657.96 431.916C3655.46 433.116 3653.36 433.615 3650.56 433.515C3642.57 433.216 3634.57 435.115 3626.57 435.215C3618.97 435.315 3621.57 444.213 3613.97 444.213C3611.07 444.213 3607.77 443.813 3604.98 444.213C3603.28 444.413 3601.78 445.113 3599.98 445.113C3599.08 445.113 3598.18 445.013 3597.38 445.113C3595.88 445.413 3595.78 446.313 3593.58 446.612C3590.98 447.012 3588.18 446.313 3585.58 446.712C3583.78 447.012 3582.98 447.812 3581.28 448.312C3578.58 449.012 3575.18 438.414 3572.38 438.414C3569.48 438.414 3566.58 438.414 3563.78 438.414C3561.39 438.414 3558.49 429.916 3556.49 428.417C3553.69 426.317 3549.79 417.519 3546.29 417.519C3543.69 417.519 3541.09 417.519 3538.39 417.519C3535.89 417.519 3534.29 416.919 3532.49 418.819C3527.69 423.918 3529.69 426.817 3522.79 424.518C3520.89 423.918 3519.09 422.718 3517 422.018C3514.4 421.018 3511.7 420.718 3509 420.318C3507.9 420.119 3497.4 409.221 3497 408.921V338.937C3497.6 339.237 3501 346.135 3501.5 346.335C3504.3 347.435 3507.6 349.935 3510.1 351.734C3512.7 353.634 3514.8 354.334 3517.9 353.634C3523.79 352.234 3525.19 351.534 3531.69 353.734C3533.19 354.134 3534.29 355.033 3535.99 355.233C3539.49 355.633 3542.19 357.133 3545.69 358.033C3550.19 359.232 3549.39 357.633 3552.99 356.733C3557.29 355.733 3562.19 357.833 3566.38 358.333C3568.48 358.633 3572.18 359.132 3574.38 358.533C3576.08 358.133 3576.98 356.633 3578.58 356.133C3580.78 355.433 3583.88 356.033 3586.08 355.633C3590.38 354.933 3594.58 353.034 3599.08 353.334C3603.18 353.634 3608.47 354.633 3612.17 356.533C3613.47 357.233 3614.57 358.233 3615.87 358.933C3617.27 359.632 3618.87 359.732 3620.37 360.132C3622.47 360.732 3623.67 360.932 3625.87 360.932C3627.67 360.932 3631.57 361.732 3632.97 360.432C3634.47 359.032 3634.17 356.333 3635.87 354.933C3637.77 353.334 3642.37 354.334 3644.67 354.134C3652.56 353.434 3661.16 353.034 3668.56 349.835C3670.96 348.835 3677.16 343.936 3680.46 345.036C3681.36 345.336 3682.06 346.335 3682.96 346.835C3685.56 348.235 3688.16 347.435 3690.96 347.635C3696.15 347.935 3701.35 348.835 3706.55 349.135C3710.45 349.335 3715.95 350.135 3719.85 349.235C3722.75 348.535 3724.15 346.635 3725.75 344.536C3727.35 342.436 3728.15 341.137 3731.05 340.937C3733.15 340.737 3735.55 341.037 3737.64 341.037C3739.64 341.037 3742.54 340.237 3744.54 340.237C3746.14 340.237 3748.94 339.637 3750.44 340.537C3751.64 341.237 3751.94 342.236 3752.64 343.536C3753.64 345.536 3753.74 346.635 3755.94 346.935C3758.34 347.235 3760.54 346.135 3762.94 346.035C3764.74 345.935 3766.74 345.836 3768.44 346.235C3770.44 346.735 3769.94 347.435 3772.84 346.535C3774.04 346.135 3775.24 345.436 3776.44 345.036C3779.04 344.136 3781.34 342.936 3783.83 341.936C3786.73 340.837 3789.33 340.937 3792.33 340.937C3797.13 341.037 3801.93 341.037 3806.73 340.937C3810.23 340.837 3814.33 339.637 3817.83 340.037C3818.73 340.137 3819.53 340.937 3820.33 340.837C3821.43 340.837 3822.63 339.637 3823.43 338.937C3824.83 337.737 3826.52 336.238 3827.32 334.638C3827.72 333.838 3827.52 332.139 3828.42 332.239C3830.32 332.339 3830.42 334.338 3831.92 335.338C3834.62 337.137 3834.12 338.037 3837.22 338.537C3839.22 338.837 3841.32 339.237 3843.32 339.637C3847.52 340.437 3851.62 341.536 3855.62 342.936C3858.42 343.936 3860.52 345.436 3863.02 346.535C3865.92 347.935 3868.72 346.035 3871.51 345.036C3874.61 343.936 3877.81 343.436 3881.11 343.236C3888.91 342.736 3898.71 341.536 3905.71 345.236C3909.51 347.235 3910.21 350.135 3914.9 349.235C3920.7 348.135 3924.7 344.536 3930.9 344.336C3933.8 344.236 3936.6 344.236 3939.5 344.236C3941.7 344.236 3945.9 343.536 3947.8 344.336C3950.9 345.636 3950.8 349.735 3954.6 350.334C3955.6 350.434 3956.59 350.434 3957.49 350.135C3958.99 349.635 3959.89 348.435 3960.99 347.435C3964.29 344.336 3969.89 342.036 3974.39 341.936C3976.39 341.636 3977.99 341.337 3980.09 341.337C3982.59 341.337 3985.19 341.437 3987.69 341.337C3988.89 341.437 3990.09 341.237 3991.09 340.737C3991.39 340.537 3991.69 340.237 3991.99 339.837C3993.79 339.237 3997.29 339.337 3999.19 339.837C3999.39 342.836 4002.58 344.436 4004.68 346.035C4005.88 347.035 4005.58 347.135 4007.28 347.135C4010.08 347.135 4013.28 347.335 4015.98 346.335C4018.48 345.436 4020.58 343.736 4022.98 342.436C4028.28 339.637 4027.58 334.738 4032.18 330.839C4033.58 329.639 4034.68 331.639 4036.08 333.538C4038.58 337.038 4042.88 338.837 4046.57 341.037C4051.77 344.036 4056.77 342.536 4062.27 344.036C4067.57 345.536 4072.17 347.035 4077.77 347.035C4079.97 347.035 4082.17 347.235 4084.37 347.035C4085.97 346.935 4087.27 346.235 4088.76 346.135C4090.06 346.035 4091.36 346.435 4092.66 346.035C4092.86 345.236 4092.56 344.436 4092.66 343.636C4092.76 342.636 4093.36 341.836 4093.76 340.937C4094.26 339.637 4094.56 339.037 4095.26 337.937C4095.76 337.137 4096.36 337.437 4096.06 336.038C4097.16 335.338 4098.36 335.038 4099.66 335.038C4101.56 334.638 4102.86 333.138 4105.06 333.038C4110.06 332.639 4113.96 339.337 4117.76 341.736C4120.46 343.536 4122.76 345.736 4125.16 347.835C4128.16 350.534 4129.06 349.935 4130.46 346.335C4131.55 343.236 4132.95 340.237 4134.15 337.137C4134.65 335.738 4134.45 332.938 4135.95 333.038C4137.95 333.238 4139.35 339.837 4141.25 340.637C4143.15 341.437 4146.35 340.737 4148.55 340.737C4152.05 340.737 4154.85 339.437 4158.35 339.037C4161.65 338.637 4164.45 338.337 4167.65 337.337C4168.25 337.137 4170.25 336.838 4170.95 336.238C4171.75 335.638 4172.65 333.838 4173.35 333.038C4174.65 331.539 4176.14 330.039 4176.64 328.14C4177.04 326.74 4177.34 325.34 4178.44 324.54C4181.54 322.241 4187.24 328.639 4189.24 331.039C4191.14 333.338 4191.84 332.938 4194.54 333.638C4202.04 335.838 4209.94 336.338 4217.74 336.538C4220.73 336.638 4222.03 337.437 4223.63 335.638C4223.83 335.438 4223.73 335.138 4223.93 334.938C4224.33 334.538 4224.93 334.838 4225.53 334.838C4228.63 335.138 4231.53 333.938 4234.53 332.539C4236.93 331.439 4238.83 328.939 4241.23 328.04C4243.63 327.24 4244.93 329.439 4247.03 329.739C4250.23 330.139 4253.63 329.539 4256.83 329.839C4259.93 330.139 4262.92 330.439 4266.02 331.039C4271.22 332.039 4275.82 333.038 4281.12 333.038C4285.62 333.038 4290.02 334.338 4294.52 334.638C4296.52 334.738 4300.02 335.338 4302.02 334.738C4303.72 334.238 4303.22 335.838 4303.32 336.838C4303.52 338.237 4304.72 340.437 4306.22 338.437C4306.12 338.237 4306.12 338.137 4306.02 337.937C4308.01 341.237 4309.81 341.636 4313.61 341.736C4317.41 341.836 4319.41 340.837 4322.01 337.937C4324.01 335.738 4325.81 332.639 4328.81 331.839C4331.01 331.239 4333.91 331.739 4336.11 331.739C4339.41 331.739 4342.11 333.038 4345.01 334.438C4346.51 335.138 4347.61 334.938 4349.31 335.038C4352.5 335.138 4351.8 332.738 4351.5 330.539C4351.2 328.14 4352.8 327.24 4355.3 327.64C4360.2 328.439 4364.1 333.438 4367.9 336.338C4370.5 338.337 4373.7 338.937 4376.9 339.537C4379.3 339.937 4382.2 339.237 4384.5 339.737C4388.6 340.637 4388.5 345.336 4390.4 348.235C4393.6 353.334 4399.69 345.136 4405.49 344.836C4407.99 344.736 4410.09 353.434 4412.49 353.234C4417.19 352.834 4421.29 350.834 4421.69 345.436C4422.09 341.536 4419.59 336.238 4422.39 333.638C4424.69 331.439 4429.79 336.338 4432.59 337.937C4435.79 339.837 4436.69 342.736 4439.18 345.336C4441.68 347.935 4442.98 348.335 4445.78 349.635C4448.88 351.134 4451.48 353.334 4454.08 355.533C4456.38 357.533 4458.68 350.135 4461.68 351.234C4463.68 352.034 4465.58 352.834 4467.48 353.634C4471.18 355.233 4473.68 363.032 4475.48 359.932C4476.98 357.233 4478.48 354.334 4479.58 351.434C4480.48 349.035 4480.58 346.335 4481.58 344.136C4482.57 341.936 4481.67 342.636 4483.27 342.836C4483.57 342.836 4483.87 343.136 4484.17 343.336C4486.47 344.236 4489.07 344.436 4491.57 344.636C4493.17 344.736 4494.67 344.336 4495.47 345.436C4495.97 346.135 4496.27 347.135 4497.07 347.535C4498.07 348.035 4499.27 348.335 4500.37 348.635C4507.57 350.934 4516.97 345.136 4522.57 349.935C4524.97 352.034 4520.37 357.033 4522.97 358.833C4528.76 362.932 4536.16 354.933 4543.06 354.633C4546.86 354.434 4550.46 355.133 4554.16 353.934C4555.96 353.334 4557.86 353.434 4559.56 352.734C4561.96 351.834 4564.46 350.434 4566.86 349.435C4567.66 349.135 4569.45 348.935 4569.95 348.135C4570.25 347.635 4569.85 346.835 4570.15 346.335C4571.55 344.236 4573.85 348.035 4575.05 348.935C4575.95 349.535 4576.45 350.234 4577.25 350.934C4580.15 353.434 4583.75 353.834 4587.45 354.434C4589.05 354.633 4593.05 354.733 4594.35 357.133C4595.05 358.333 4597.75 357.333 4599.05 357.333C4602.45 357.333 4605.85 356.933 4609.25 356.633C4614.34 356.333 4619.34 356.533 4624.44 356.533C4627.44 356.533 4634.44 356.733 4636.44 353.634C4637.54 351.934 4637.54 351.234 4639.54 350.135C4641.44 349.035 4642.84 348.835 4645.14 348.935C4647.44 348.935 4650.34 349.435 4652.64 349.035C4654.34 348.735 4656.04 347.535 4657.73 347.035C4660.43 346.135 4663.03 343.736 4665.83 343.136C4667.43 342.836 4667.53 343.336 4668.83 343.736C4671.33 344.536 4673.93 344.736 4676.63 345.536C4680.13 346.635 4681.53 349.735 4684.73 351.134C4686.13 351.734 4689.13 352.234 4690.53 352.634C4694.23 353.534 4697.63 353.934 4701.22 355.433C4705.32 357.133 4710.12 358.733 4714.72 358.833C4715.72 358.833 4716.62 358.733 4717.52 358.333C4720.12 357.233 4722.42 354.833 4724.42 352.934C4725.22 352.134 4726.42 351.434 4726.72 350.334C4727.12 349.135 4726.32 347.935 4726.82 346.735C4727.72 346.535 4728.52 346.535 4729.42 346.535C4732.92 346.635 4736.52 346.835 4740.02 346.935C4741.12 346.935 4745.21 346.335 4746.21 347.135C4746.81 347.635 4746.71 348.335 4746.91 349.035C4747.41 350.334 4748.21 351.434 4749.31 352.134C4751.81 353.734 4755.21 353.234 4757.61 351.734C4759.91 350.434 4761.41 349.835 4764.21 349.835C4765.91 349.835 4767.21 349.135 4768.81 349.435C4770.91 349.835 4773.21 350.334 4775.31 350.734C4776.81 351.034 4778.31 351.934 4780.01 351.534C4780.61 351.434 4780.71 350.834 4781.21 350.734C4782.01 350.534 4783.21 350.934 4784.01 350.534C4785.51 349.735 4784.91 347.935 4784.91 346.535C4785.01 345.036 4785.11 345.436 4785.81 344.036C4786.21 343.036 4786.41 342.136 4786.81 341.137C4787.41 339.937 4788.7 337.937 4790.1 337.437C4794.9 335.838 4800.5 338.837 4804.9 339.937C4807.2 340.437 4808 341.237 4809.5 343.036C4810.7 344.536 4812 345.136 4813.4 346.335C4815.9 348.435 4815.4 349.735 4818.8 350.334C4820.4 350.634 4822 350.634 4823.6 350.934C4825 351.134 4826.4 351.634 4827.8 351.334C4829.4 351.034 4831 349.635 4832.79 349.335C4835.89 348.735 4839.29 349.435 4842.19 348.035C4843.09 347.635 4842.79 347.435 4843.99 347.135C4846.89 346.635 4848.69 347.535 4851.29 348.435C4854.99 349.735 4859.99 348.835 4863.99 348.835C4866.49 348.835 4868.99 348.935 4871.39 348.835C4873.29 348.735 4875.88 348.335 4877.18 347.135C4878.68 345.836 4878.68 344.936 4881.18 345.436C4882.88 345.836 4883.28 346.835 4884.58 347.835C4885.78 348.835 4886.88 349.135 4888.28 349.635C4890.68 350.434 4892.58 350.434 4895.08 350.434C4897.48 350.434 4900.08 350.834 4902.28 349.635C4903.28 349.035 4903.78 348.235 4904.88 347.935C4906.68 347.335 4906.08 348.035 4907.88 346.435C4909.38 345.036 4907.98 345.636 4910.08 345.436C4911.28 345.236 4912.88 345.436 4914.08 345.436C4916.58 345.436 4919.97 344.836 4922.27 345.636C4924.07 346.235 4925.87 347.335 4927.67 347.735C4930.57 348.435 4933.77 348.035 4936.67 347.435C4940.17 346.735 4943.77 346.135 4947.27 345.336C4950.47 344.536 4953.67 343.636 4956.97 342.936C4959.57 342.336 4965.86 340.337 4967.36 342.836C4968.96 345.436 4972.16 346.235 4974.06 346.635C4977.86 347.535 4980.56 344.836 4984.06 343.936C4986.96 343.136 4990.26 343.536 4993.26 343.536C4998.96 343.536 5005.06 342.336 5010.75 343.436C5012.55 343.836 5013.75 344.636 5015.05 345.836C5018.05 348.535 5021.55 351.034 5025.75 351.034C5026.95 351.034 5028.15 351.034 5029.35 351.034C5031.85 351.034 5033.55 350.234 5035.95 349.535C5037.55 349.035 5039.75 348.735 5041.15 347.935C5041.45 347.735 5041.55 347.135 5041.85 346.935C5043.55 346.235 5044.55 347.035 5046.05 345.536C5046.35 345.236 5046.25 344.636 5046.55 344.436C5047.05 344.036 5048.65 343.936 5049.15 343.836C5053.84 343.036 5058.94 344.336 5063.44 342.336C5064.64 341.836 5065.74 340.937 5067.04 340.737C5068.94 340.337 5070.84 341.137 5072.64 341.536C5075.04 342.136 5077.44 341.736 5079.84 342.236C5080.14 346.835 5086.44 345.636 5089.64 345.436C5093.24 345.236 5096.33 341.536 5099.93 341.936C5101.33 342.136 5103.23 343.136 5104.53 343.636C5105.73 344.136 5106.13 344.936 5107.43 345.736C5110.23 347.535 5112.63 347.835 5115.93 347.835C5119.03 347.835 5121.93 347.835 5125.03 347.435C5127.83 347.135 5130.83 347.535 5133.53 347.035C5136.13 346.535 5138.82 345.935 5141.62 345.536C5143.32 345.236 5144.92 345.436 5146.52 344.936C5148.72 344.336 5150.62 344.036 5152.82 343.636C5155.32 343.136 5157.92 341.337 5160.52 340.737C5163.62 339.937 5167.02 340.537 5170.22 340.037C5172.82 339.737 5174.22 339.737 5176.52 340.737C5182.11 343.136 5188.61 341.337 5194.21 343.636C5196.71 344.636 5196.91 346.235 5198.81 347.535C5202.01 349.835 5205.91 349.135 5209.41 349.935C5213.71 350.834 5217.41 350.834 5222.01 350.934C5227.8 351.034 5232.1 346.835 5237.7 345.136C5241.1 344.136 5244.4 345.236 5247.8 344.736C5250.4 344.336 5253.3 342.636 5255.3 341.437C5256.7 340.637 5257.9 339.137 5259.7 338.337C5263.9 336.438 5268.5 337.038 5272.99 336.338C5277.79 335.638 5284.89 332.139 5289.69 335.138C5293.19 337.337 5294.99 342.136 5298.89 343.536C5303.89 345.236 5308.59 346.935 5313.38 349.235C5317.08 351.034 5318.78 350.834 5322.48 350.135C5326.78 349.235 5332.08 351.434 5336.18 349.935C5337.38 349.535 5337.88 348.835 5338.78 347.935C5339.58 347.135 5340.88 346.635 5341.48 345.736C5342.98 343.636 5341.88 343.136 5344.38 342.936C5346.08 342.836 5347.68 342.736 5349.38 342.536C5352.88 342.036 5356.28 341.237 5359.77 341.237C5360.17 341.237 5361.97 340.937 5362.37 341.137C5363.47 341.736 5363.17 343.036 5363.97 343.836C5365.27 345.036 5367.27 344.636 5368.87 344.536C5372.07 344.536 5375.37 344.636 5378.57 344.836C5381.47 345.036 5385.07 345.935 5387.97 345.536C5390.07 345.236 5390.97 343.136 5392.97 344.636C5393.77 345.236 5393.87 345.935 5394.87 346.335C5396.37 346.835 5398.17 346.035 5399.57 345.736C5403.56 345.036 5407.26 345.336 5411.26 345.736C5417.06 346.335 5422.76 345.736 5428.46 344.836C5432.16 344.336 5436.06 344.036 5439.66 342.636C5441.06 342.036 5442.66 340.937 5443.85 341.736C5445.35 342.836 5446.65 343.836 5447.55 345.436C5448.25 346.635 5447.15 348.235 5448.15 349.035C5449.25 349.835 5449.85 350.234 5451.05 350.734C5451.95 351.134 5452.95 350.834 5453.95 351.034C5454.85 351.234 5455.35 351.934 5456.35 351.834C5457.85 351.734 5459.05 349.935 5460.45 349.235C5463.05 347.835 5466.35 347.735 5469.15 346.835C5472.45 345.836 5475.25 343.936 5478.45 342.736C5479.85 342.136 5485.05 341.237 5487.35 340.437C5486.75 342.436 5487.45 347.535 5488.54 348.735C5489.14 349.535 5489.34 348.935 5490.14 349.335C5490.74 349.635 5491.24 350.135 5491.84 350.434C5495.14 351.934 5499.14 350.135 5502.64 351.234C5507.14 352.634 5510.94 353.634 5515.74 353.434C5518.64 353.334 5520.94 352.234 5523.74 351.534C5526.84 350.834 5528.34 348.235 5530.04 345.736C5530.44 345.136 5531.44 342.636 5532.23 342.436C5533.03 342.136 5534.13 342.936 5534.93 343.136C5537.43 343.736 5539.83 342.636 5542.03 344.136C5543.53 345.136 5544.93 346.135 5546.43 347.135C5548.13 348.335 5549.73 349.635 5551.33 350.934C5553.93 353.034 5556.83 352.634 5560.13 352.534C5563.93 352.434 5566.23 348.735 5570.03 348.335C5572.03 348.035 5573.43 348.935 5574.93 346.935C5575.82 345.836 5574.83 344.436 5575.72 343.536C5576.92 342.336 5578.72 342.936 5580.32 342.336C5584.42 341.037 5588.52 340.737 5592.92 340.737C5597.32 340.737 5602.82 341.736 5606.62 338.637C5607.72 337.737 5607.62 336.438 5609.12 335.938C5610.52 335.438 5613.62 336.038 5615.02 336.038C5618.02 336.038 5620.41 336.138 5623.31 337.038C5626.21 337.937 5628.21 340.837 5631.01 341.536C5632.61 341.936 5634.61 341.437 5636.31 341.736C5638.21 342.036 5639.91 342.536 5641.61 343.436C5643.11 344.136 5644.31 345.136 5645.51 346.135C5645.91 346.535 5646.21 347.035 5646.61 347.335C5648.21 348.835 5652.01 345.736 5653.21 347.535C5655.31 350.634 5658.81 349.935 5660.11 351.934C5660.31 352.334 5660.31 352.834 5660.71 353.034C5661.41 353.434 5662.31 353.234 5663.1 353.134C5666.7 352.934 5670.5 353.334 5674.1 353.034C5680.5 352.434 5685.4 348.035 5692 348.135C5694.5 348.135 5697.4 347.735 5699.9 348.135C5701 348.335 5702.1 348.835 5703.3 349.135C5705.1 349.535 5706.59 349.935 5708.49 349.935C5710.89 349.935 5713.69 349.435 5715.89 350.634C5717.69 351.534 5718.19 353.634 5719.79 354.633C5720.39 355.033 5722.49 355.633 5723.19 355.833C5724.89 356.133 5727.19 355.833 5728.89 355.833C5731.79 355.833 5734.69 356.033 5737.59 355.833C5738.49 355.733 5739.09 356.133 5739.99 355.533C5741.49 354.633 5741.39 350.135 5743.19 351.034C5744.19 351.534 5741.99 354.034 5742.49 354.933C5743.39 356.733 5746.59 355.833 5748.39 355.733C5749.49 355.733 5750.88 354.933 5751.68 354.933C5753.38 354.933 5753.88 356.733 5754.98 357.833C5756.38 359.132 5757.08 359.032 5758.78 359.032C5759.88 359.032 5760.78 358.733 5761.88 359.332C5763.28 360.132 5763.78 363.232 5765.58 362.532C5767.48 361.732 5768.28 359.432 5769.98 358.233C5770.78 357.733 5771.68 357.233 5772.58 357.133C5774.08 357.033 5775.78 358.033 5776.78 357.033C5777.38 356.333 5777.48 355.033 5778.38 355.033C5780.18 354.933 5781.18 357.433 5782.88 357.933C5785.18 358.633 5784.18 354.134 5784.18 353.034C5784.18 351.834 5784.38 351.434 5785.18 350.534C5787.18 348.335 5790.08 347.635 5792.98 347.535C5798.37 347.335 5804.07 347.435 5809.47 347.535C5810.97 347.535 5811.97 347.535 5813.37 348.335C5814.97 349.235 5816.17 350.234 5817.97 351.134C5821.37 352.734 5823.97 353.434 5827.57 353.434C5829.67 353.434 5831.77 353.534 5833.87 353.434C5837.47 353.334 5840.26 351.434 5843.46 350.035C5845.16 349.335 5846.66 349.235 5848.46 348.835C5850.06 348.435 5850.86 347.435 5852.36 346.835C5855.56 345.636 5859.76 346.935 5863.06 346.235C5864.36 345.935 5867.06 345.036 5868.36 345.436C5871.56 346.635 5873.06 352.234 5874.76 354.833C5876.16 356.933 5876.96 358.033 5879.36 358.433C5879.86 358.333 5880.46 358.233 5880.96 358.233C5881.45 358.433 5881.95 358.633 5882.35 358.933C5885.15 359.432 5888.15 359.332 5890.95 359.732C5895.35 360.332 5900.05 360.232 5904.35 359.332C5908.55 358.433 5911.95 356.733 5915.85 355.133C5918.25 354.134 5920.85 353.434 5922.95 352.434C5924.05 351.934 5925.05 351.034 5926.24 350.834C5929.14 350.135 5932.64 351.134 5935.54 351.634C5936.94 351.834 5941.04 351.934 5942.64 352.734C5944.44 356.033 5948.24 358.033 5951.84 358.733C5955.94 359.532 5960.64 362.232 5964.84 361.332C5967.34 360.832 5971.43 357.833 5973.93 358.333C5976.03 358.733 5978.63 361.432 5980.33 362.532C5980.93 362.932 5981.43 363.332 5982.03 363.631C5983.03 364.331 5984.03 365.131 5985.13 365.831C5986.73 366.931 5988.53 367.83 5990.53 367.231C5993.13 366.531 5994.33 364.031 5996.13 362.332C5997.93 360.532 6000.53 359.832 6002.43 358.233C6005.03 356.033 6006.53 356.433 6009.83 355.933C6016.52 355.133 6023.12 353.034 6029.82 352.234C6032.12 351.934 6035.32 352.934 6037.42 352.234C6038.82 351.734 6038.92 350.634 6040.32 350.634C6043.12 350.634 6045.72 351.534 6048.52 351.234C6051.92 350.834 6055.32 350.734 6058.71 350.634C6061.71 350.534 6064.71 350.634 6067.71 351.234C6070.31 351.834 6072.91 352.734 6075.41 353.534C6077.51 354.134 6076.81 354.134 6078.41 353.134C6088.61 346.735 6101 348.635 6112.4 345.736C6118 344.336 6123.1 343.036 6128.9 342.436C6132 342.136 6135 341.636 6137.9 340.537C6141.9 339.037 6145.09 340.037 6149.19 341.437C6153.09 342.736 6155.39 346.535 6159.09 347.835C6161.89 348.835 6165.39 348.035 6168.39 348.135C6173.59 348.135 6180.09 348.635 6184.79 345.836C6187.09 344.436 6188.18 342.836 6191.08 343.036C6192.78 344.336 6194.78 344.336 6196.88 344.336C6200.18 344.336 6204.88 345.236 6207.88 343.936C6212.78 341.936 6218.28 342.636 6223.58 342.636C6225.98 342.636 6228.28 342.436 6230.58 342.836C6233.47 343.236 6236.37 343.736 6239.47 343.536C6241.47 343.336 6243.37 342.736 6245.47 342.636C6250.37 342.436 6255.17 342.636 6260.07 342.236C6261.47 342.136 6262.87 342.136 6264.17 342.336C6268.47 343.036 6272.67 344.636 6276.56 346.435C6280.66 348.435 6283.66 351.234 6287.26 353.834C6287.96 353.434 6287.86 352.934 6288.26 352.234C6289.26 350.534 6290.56 349.035 6291.76 347.535C6293.66 345.036 6296.76 340.437 6299.96 339.537C6301.36 339.137 6303.16 339.737 6304.76 339.537C6309.66 338.837 6313.16 336.338 6317.46 334.338C6318.95 333.638 6320.65 333.538 6322.25 333.038C6323.05 332.738 6323.75 332.139 6324.45 331.839C6326.15 331.139 6326.15 331.839 6327.35 333.438C6329.35 336.038 6332.75 337.937 6335.35 340.137C6336.75 341.337 6337.85 341.536 6339.65 342.336C6341.75 343.336 6343.75 344.036 6345.95 344.636C6347.35 345.036 6348.45 345.136 6349.55 346.035C6351.85 347.935 6352.75 349.835 6356.05 350.434C6358.15 350.834 6360.65 350.734 6362.44 349.735C6364.44 348.635 6364.64 347.035 6365.74 345.236C6367.04 343.136 6369.44 343.836 6371.54 343.936C6373.94 344.036 6376.34 342.936 6378.74 343.536C6381.94 344.336 6383.14 347.935 6385.54 349.835C6389.14 352.734 6395.04 353.634 6399.54 353.734C6404.74 353.834 6409.83 352.334 6413.83 348.935C6416.13 346.935 6417.53 348.235 6420.53 349.135C6424.83 350.434 6427.13 352.734 6429.43 356.433C6432.33 361.232 6437.43 360.132 6441.63 363.731C6444.03 365.831 6444.93 365.331 6447.83 363.931C6449.43 363.132 6450.23 362.332 6451.42 360.932C6452.42 359.632 6453.02 357.733 6454.82 357.533C6456.52 357.333 6458.02 359.632 6459.42 358.333C6460.52 357.333 6458.82 355.533 6459.72 354.434C6461.32 352.634 6463.92 355.033 6465.82 356.033C6469.52 358.033 6472.52 357.733 6476.52 357.733C6480.22 357.733 6483.92 357.733 6487.72 357.733C6490.72 357.733 6494.11 357.233 6496.91 358.333C6499.41 359.332 6500.21 361.932 6502.81 362.732C6504.01 363.032 6505.41 363.032 6506.51 362.632C6508.51 361.932 6509.81 360.132 6511.51 358.933C6517.01 355.133 6524.51 360.032 6529.81 356.533C6530.41 356.133 6530.51 355.333 6531.21 354.933C6532.01 354.534 6533.51 354.733 6534.41 354.833C6535.91 354.933 6536.71 354.933 6538.1 354.334C6539.3 353.734 6540.1 352.034 6541.4 351.634C6550 348.735 6556.5 361.632 6564.8 357.333C6567.3 356.033 6569.9 355.233 6572.6 354.134C6574.7 353.234 6576.7 351.834 6578.9 351.534C6580.7 351.334 6581.3 351.234 6583.09 350.434C6584.99 349.535 6587.19 349.135 6589.29 349.035C6591.79 348.935 6592.99 349.635 6595.19 350.534C6596.19 350.934 6596.99 350.934 6597.99 351.534C6598.39 351.834 6599.19 352.834 6599.79 353.134C6600.69 353.434 6601.29 353.034 6602.09 353.234C6603.39 353.434 6604.29 354.034 6605.59 354.434C6606.89 354.833 6608.19 354.733 6609.49 355.133C6610.89 355.533 6611.99 356.333 6613.39 356.633C6617.69 357.533 6621.69 356.233 6625.79 358.133C6627.28 358.833 6628.48 358.933 6630.08 359.332C6632.18 359.832 6633.88 360.732 6636.08 360.832C6639.88 361.032 6643.78 360.832 6647.58 360.832C6649.08 360.832 6651.08 361.232 6652.58 360.732C6654.58 360.132 6655.78 358.033 6657.38 357.133C6659.68 355.933 6663.88 356.633 6666.58 356.633C6668.48 356.633 6669.77 356.833 6671.67 357.233C6674.57 357.933 6675.97 360.332 6678.87 358.233C6679.87 357.533 6680.87 356.433 6681.97 355.833C6683.37 355.033 6684.87 354.633 6686.27 353.734C6689.47 351.634 6689.17 351.134 6692.47 353.034C6694.27 354.134 6696.37 354.833 6698.17 355.833C6698.57 356.033 6700.97 358.033 6701.97 358.233C6703.17 358.533 6705.17 358.433 6706.37 358.233C6710.67 357.233 6712.36 350.334 6717.36 352.034C6721.36 353.434 6725.46 354.034 6729.76 354.234C6733.26 354.434 6732.36 352.834 6733.56 350.135C6734.06 349.035 6734.86 347.435 6735.66 346.635C6736.96 345.236 6739.06 345.836 6740.96 345.836C6743.96 345.836 6746.96 345.836 6749.96 345.836C6752.46 345.836 6753.06 345.935 6755.06 344.736C6759.75 341.836 6764.05 342.236 6769.05 344.336C6773.65 346.335 6779.05 344.336 6781.95 340.437C6782.35 339.937 6782.85 338.737 6783.35 338.437C6785.15 337.237 6786.65 338.737 6787.95 340.137C6788.35 340.537 6788.65 341.037 6789.15 341.237C6789.65 341.437 6790.15 341.237 6790.55 341.536C6791.05 341.836 6791.25 342.836 6791.65 343.336C6793.75 345.536 6797.95 346.035 6800.84 345.836C6807.24 345.436 6812.64 340.637 6818.84 339.037C6819.84 338.737 6820.74 338.837 6821.64 338.337C6822.24 337.937 6822.64 336.938 6823.24 336.638C6824.74 335.938 6827.54 337.737 6829.14 337.937C6831.14 338.237 6834.14 338.437 6836.14 338.037C6839.04 337.537 6840.24 336.038 6843.34 336.238C6845.13 336.338 6846.83 336.738 6848.33 337.837C6849.23 338.537 6849.83 339.437 6850.83 340.037C6853.13 341.337 6856.13 341.237 6858.63 341.337C6864.13 341.536 6872.93 341.736 6876.33 336.438C6877.73 334.238 6878.53 333.638 6881.03 333.738C6882.43 333.738 6884.83 334.338 6885.73 332.938C6886.33 331.939 6885.13 329.739 6885.93 328.839C6888.92 325.54 6892.52 329.939 6895.92 332.039C6899.32 334.138 6902.52 336.538 6905.92 338.637C6907.62 339.737 6912.32 343.536 6914.92 342.036C6916.02 341.437 6917.52 337.737 6917.82 337.038C6919.12 334.338 6918.72 330.039 6921.42 328.639C6923.12 327.74 6925.02 327.94 6927.02 327.84C6929.92 327.74 6933.11 328.539 6936.01 329.239C6938.21 329.839 6940.81 331.439 6942.61 329.639C6943.21 329.039 6942.91 327.94 6944.01 327.94C6944.81 327.94 6946.01 329.539 6946.71 330.039C6950.21 332.738 6955.71 332.339 6960.01 332.239C6963.41 332.239 6966.81 331.939 6970.21 331.539C6973.31 331.139 6976.7 330.039 6979.9 330.539C6985.8 331.439 6991.2 337.837 6997 339.337V409.321C6995.8 409.321 6994.6 406.422 6993.4 406.422C6989.5 406.322 6985.5 406.522 6981.6 406.422C6978.6 406.322 6975.2 406.222 6972.31 405.722C6971.11 405.522 6970.41 404.722 6969.41 404.322C6968.11 403.722 6966.71 404.122 6965.31 404.222C6962.01 404.222 6958.81 404.322 6955.81 405.522C6955.31 405.822 6954.91 406.122 6954.51 406.522C6953.71 406.822 6952.81 407.121 6952.01 407.221C6950.21 408.021 6950.41 409.221 6949.11 410.221C6947.81 411.321 6946.91 410.621 6945.21 410.721C6943.01 410.921 6941.81 412.52 6940.01 413.42C6937.91 414.42 6935.71 413.72 6933.51 414.12C6931.92 414.42 6932.41 414.62 6931.02 415.42C6928.82 416.719 6926.32 416.419 6923.82 416.719C6921.92 416.919 6920.32 417.719 6918.42 418.119C6917.42 418.319 6916.52 418.319 6915.52 418.319C6912.52 418.319 6909.62 418.819 6906.62 418.619C6904.22 418.419 6901.02 418.519 6899.42 416.519C6897.92 414.52 6898.12 411.421 6896.52 409.521C6893.12 405.522 6883.93 405.922 6879.43 407.921C6878.43 408.321 6877.43 408.721 6876.63 409.321C6875.03 410.521 6874.23 412.22 6874.13 414.42C6873.23 416.819 6872.23 419.219 6871.33 421.718C6871.03 422.418 6868.03 429.416 6865.13 428.417C6864.43 428.217 6864.03 426.017 6863.13 425.517C6861.43 424.617 6858.03 425.217 6856.23 425.217C6853.43 425.217 6850.63 425.217 6847.83 425.217C6844.93 425.217 6842.04 425.317 6839.04 425.317C6832.84 425.317 6828.34 421.718 6822.64 419.919C6816.94 418.119 6810.44 419.919 6804.74 420.318C6801.44 420.518 6798.05 419.719 6794.75 420.618C6791.05 421.618 6787.35 423.018 6783.55 423.618C6782.25 423.818 6782.25 423.318 6780.65 423.818C6778.75 424.418 6776.95 426.217 6775.35 427.417C6773.75 428.617 6771.85 429.616 6771.05 431.516C6769.85 434.115 6769.85 437.415 6769.25 440.214C6767.45 440.414 6767.65 437.415 6767.25 436.115C6766.45 433.415 6764.75 430.716 6761.95 430.116C6755.56 428.817 6747.66 428.717 6741.16 429.416C6733.46 430.316 6724.76 431.316 6717.16 429.216C6713.16 428.117 6709.57 427.017 6705.47 426.817C6702.07 426.717 6698.67 426.817 6695.27 426.817C6692.27 426.817 6689.17 425.717 6688.67 429.616C6688.37 431.916 6689.07 433.316 6686.57 434.615C6684.27 435.815 6681.37 434.915 6678.87 435.315C6674.97 435.915 6671.47 437.015 6667.48 436.815C6664.28 436.715 6660.98 436.115 6658.28 434.515C6655.48 432.916 6651.88 431.816 6648.58 431.716C6647.28 431.716 6645.68 432.016 6644.38 431.816C6642.08 431.416 6639.88 430.616 6637.58 430.316C6634.68 429.916 6631.78 430.116 6628.88 430.116C6626.78 430.116 6624.49 429.816 6622.49 430.216C6618.99 431.016 6615.69 433.116 6612.39 434.515C6609.89 435.615 6608.89 436.415 6606.39 435.015C6604.69 434.115 6602.89 432.516 6601.69 431.016C6600.59 429.516 6600.59 427.617 6599.49 426.217C6598.59 425.117 6596.29 424.118 6595.09 423.318C6593.19 422.018 6590.09 422.218 6587.79 421.918C6584.69 421.518 6584.99 421.718 6584.19 418.819C6583.39 415.62 6581.39 416.819 6579.3 418.019C6576.3 419.619 6572.2 420.718 6568.8 421.018C6567 421.118 6565.3 421.618 6563.5 421.818C6562.7 421.918 6562.2 421.718 6561.4 421.918C6560.3 422.318 6559.8 423.218 6558.5 423.518C6556.4 423.918 6553.5 423.418 6551.4 423.418C6542.2 423.318 6533.41 423.718 6525.71 429.216C6523.81 430.516 6523.61 430.316 6522.01 431.116C6521.71 431.316 6521.41 432.216 6521.11 432.416C6519.21 433.515 6517.11 434.915 6515.21 436.015C6513.41 436.915 6512.01 437.215 6509.91 436.315C6508.91 435.915 6507.41 434.415 6506.91 434.015C6504.31 432.016 6501.51 430.116 6498.61 428.517C6497.61 427.917 6496.11 428.017 6495.21 427.517C6494.32 427.017 6493.81 425.217 6493.12 424.518C6490.42 421.818 6486.02 421.818 6482.52 421.818C6479.72 421.818 6476.82 421.318 6474.32 422.618C6473.12 423.218 6471.92 424.418 6470.82 425.217C6469.82 425.817 6468.52 426.317 6467.72 427.017C6467.02 427.617 6466.52 428.317 6466.22 429.216C6465.62 430.916 6466.22 430.716 6464.52 431.516C6459.62 433.815 6452.12 429.416 6447.83 427.217C6446.93 426.817 6445.83 426.417 6445.03 425.917C6444.23 425.417 6443.53 424.418 6442.63 424.218C6441.33 423.918 6440.53 425.117 6439.73 425.917C6437.43 428.217 6435.23 430.016 6432.83 432.016C6430.03 430.916 6428.73 427.317 6426.83 425.217C6425.03 423.218 6423.03 422.518 6420.43 422.618C6417.63 422.718 6417.13 424.018 6416.33 426.517C6415.53 429.116 6415.63 433.016 6412.23 432.916C6407.03 432.716 6404.54 425.317 6399.44 425.117C6396.04 425.017 6393.24 426.917 6389.74 426.817C6387.14 426.817 6382.84 425.917 6380.84 427.817C6380.14 428.417 6379.84 430.116 6379.24 430.716C6378.14 431.616 6374.34 431.116 6373.24 431.116C6370.84 431.016 6368.44 430.316 6366.04 430.216C6364.84 430.116 6363.74 430.316 6362.55 430.016C6360.75 432.216 6361.85 436.215 6362.05 438.814C6356.75 436.815 6352.65 432.116 6347.75 429.216C6345.25 427.717 6342.65 427.017 6340.05 425.717C6338.55 425.017 6338.05 424.318 6336.25 424.617C6334.15 424.917 6332.05 425.717 6329.85 426.017C6325.55 426.617 6320.55 426.417 6316.16 426.117C6312.56 425.917 6309.36 424.518 6305.76 424.418C6303.16 424.318 6300.16 425.017 6297.66 424.318C6294.66 423.418 6293.66 423.918 6290.96 425.617C6287.56 427.717 6284.46 426.517 6280.66 427.117C6278.26 427.517 6278.46 428.317 6276.96 429.716C6275.66 430.916 6273.07 431.516 6271.37 431.816C6270.37 432.016 6268.97 432.316 6267.97 432.116C6264.97 431.516 6262.47 428.117 6259.97 426.517C6257.67 424.717 6255.07 423.318 6252.17 422.418C6250.77 422.218 6249.47 421.818 6248.17 421.418C6247.67 421.118 6247.17 421.218 6246.67 421.718C6245.87 422.918 6245.17 424.018 6244.37 425.217C6243.07 426.117 6239.97 425.417 6238.27 425.417C6230.58 425.417 6222.88 425.417 6215.18 425.417C6211.38 425.417 6208.28 425.417 6205.48 422.318C6204.58 421.318 6204.08 420.019 6202.78 419.219C6201.78 418.719 6201.38 419.019 6200.28 418.819C6197.28 418.419 6195.68 414.32 6192.38 414.52C6189.58 414.62 6188.38 418.919 6186.89 420.818C6185.19 423.018 6183.79 424.318 6182.89 427.017C6180.29 427.617 6176.89 422.918 6175.09 421.218C6172.79 419.219 6170.69 418.919 6168.09 417.819C6165.39 416.719 6163.39 414.32 6160.49 413.32C6158.29 412.52 6157.79 413.92 6155.79 413.92C6154.59 413.92 6153.09 413.02 6151.99 412.62C6149.39 411.72 6147.49 410.321 6144.69 410.421C6142.4 410.521 6140.1 410.621 6137.9 409.621C6136.2 408.921 6135 409.121 6133.4 409.021C6131.2 408.821 6128.9 407.521 6126.9 406.622C6124.3 405.422 6122.2 404.122 6119.3 404.822C6116.9 405.422 6114.8 407.221 6112.5 408.021C6108.6 409.421 6104.6 410.621 6100.5 411.72C6098.41 412.32 6096.41 411.92 6094.31 412.12C6092.61 412.32 6092.81 413.22 6090.81 413.42C6086.01 413.92 6080.91 413.32 6076.11 413.42C6069.31 413.42 6062.91 406.922 6057.31 410.421C6056.32 411.021 6057.91 413.72 6056.91 414.52C6053.72 417.019 6053.12 420.119 6051.42 422.818C6049.72 425.517 6050.32 425.117 6047.62 424.018C6045.92 423.318 6043.92 421.418 6042.02 421.218C6039.32 420.818 6039.82 423.618 6037.32 423.918C6029.62 424.817 6021.82 407.421 6015.72 413.52C6014.12 415.12 6017.62 421.618 6017.02 424.118C6016.42 426.617 6012.43 419.219 6010.03 420.119C6008.23 420.818 6009.33 421.718 6008.43 422.718C6007.33 424.018 6005.63 424.518 6003.83 424.717C6000.53 425.117 5997.23 423.818 5993.83 423.518C5990.83 423.318 5987.83 423.818 5984.93 424.518C5982.73 425.017 5980.53 425.617 5978.43 426.417C5976.93 427.017 5974.73 428.617 5973.23 428.817C5972.63 428.917 5972.03 429.016 5971.53 429.216C5970.93 429.316 5970.63 429.716 5970.53 430.316C5970.43 431.216 5962.54 432.816 5961.54 432.816C5959.54 432.816 5957.54 431.916 5956.24 434.015C5954.74 436.415 5955.64 443.113 5952.74 444.513C5950.04 445.813 5944.44 442.313 5941.94 441.714C5940.54 441.414 5939.14 440.814 5937.74 440.514C5935.44 439.914 5932.34 440.314 5930.14 440.314C5926.44 440.314 5922.45 439.914 5918.65 440.514C5917.15 440.714 5915.65 441.214 5914.15 441.314C5911.15 441.614 5906.05 442.213 5903.75 439.714C5902.75 438.614 5902.95 437.715 5901.65 436.815C5900.05 435.615 5897.55 434.615 5895.65 434.115C5893.05 433.415 5890.75 431.716 5888.15 431.316C5885.85 430.916 5883.45 431.216 5881.16 430.716C5879.26 430.316 5876.96 430.316 5875.06 430.516C5872.16 430.816 5869.86 431.416 5866.76 431.416C5864.26 431.416 5861.66 431.316 5859.16 431.416C5857.36 431.516 5856.56 431.216 5856.06 433.116C5855.76 434.215 5856.76 436.115 5856.26 437.215C5855.56 438.714 5850.56 438.914 5848.86 439.014C5846.06 439.114 5842.46 439.914 5839.96 438.514C5837.07 436.815 5833.77 434.715 5831.27 432.316C5828.77 430.016 5827.27 427.617 5823.67 426.717C5819.17 425.617 5815.27 426.017 5811.47 428.817C5810.37 429.616 5809.47 430.616 5808.77 431.716C5807.37 433.615 5805.97 434.915 5804.37 436.615C5801.77 439.314 5800.97 441.614 5801.27 445.413C5801.37 447.512 5801.37 449.312 5800.67 451.311C5798.77 451.411 5797.07 448.912 5795.97 447.712C5794.47 446.213 5792.98 444.613 5791.48 443.113C5788.28 439.914 5784.58 437.315 5781.28 434.215C5779.98 433.016 5778.28 430.516 5776.28 430.616C5773.28 430.716 5771.88 433.815 5770.18 435.615C5768.68 437.215 5766.78 436.415 5764.78 436.015C5761.18 435.315 5757.48 436.315 5753.98 435.715C5749.49 435.015 5745.89 431.516 5741.19 431.216C5738.49 431.016 5731.29 431.516 5729.49 433.915C5728.79 434.915 5729.09 435.915 5728.29 436.815C5727.49 437.715 5726.39 437.914 5725.29 438.114C5723.39 438.414 5721.09 438.314 5719.19 438.014C5717.09 437.615 5715.39 436.615 5713.19 436.415C5711.79 436.315 5710.39 436.515 5708.99 436.515C5707.39 436.515 5705.4 436.115 5703.9 436.615C5702.4 437.115 5701.7 438.614 5700.2 439.014C5698.8 439.414 5697.6 438.914 5696.6 438.114C5694.6 436.515 5693.4 435.015 5691.1 433.515C5685.3 429.816 5679.5 426.517 5674.4 421.718C5672.6 420.019 5670.9 418.319 5669 416.719C5663.7 412.32 5657.51 411.421 5650.71 411.72C5646.51 411.82 5642.31 412.42 5638.11 413.32C5634.41 414.22 5630.81 416.119 5627.01 416.519C5620.71 417.319 5614.52 413.22 5608.22 413.32C5605.52 413.32 5602.82 413.32 5600.02 413.32C5597.52 413.32 5595.92 413.52 5593.62 412.32C5592.22 411.52 5591.32 410.921 5589.62 410.821C5585.72 410.521 5580.62 409.021 5577.02 410.721C5575.43 411.421 5573.93 412.02 5572.23 412.72C5568.83 414.02 5565.83 416.319 5562.43 417.619C5561.13 418.119 5559.53 418.719 5558.13 418.919C5554.73 419.519 5550.73 418.819 5547.33 418.819C5542.13 418.819 5536.83 419.119 5531.73 420.418C5525.14 422.118 5521.74 429.316 5514.84 430.716C5512.44 431.216 5509.84 430.716 5507.64 429.916C5502.34 428.017 5497.24 426.317 5491.74 424.817C5488.34 423.918 5485.65 421.818 5482.35 420.918C5479.75 420.219 5477.45 420.518 5474.95 419.319C5467.45 415.82 5458.35 417.319 5450.15 417.319C5448.15 417.319 5446.45 415.42 5445.15 413.82C5444.55 413.02 5444.15 412.32 5443.26 411.82C5442.46 411.321 5442.36 411.021 5441.86 410.421C5441.36 409.821 5440.26 409.521 5439.46 409.221C5438.36 408.721 5437.06 408.721 5435.86 408.721C5434.56 408.721 5433.36 408.621 5432.06 409.021C5430.46 409.521 5428.76 409.321 5427.06 409.521C5425.96 409.621 5424.26 409.321 5423.26 410.021C5422.56 410.521 5421.96 411.421 5421.36 412.02C5420.06 413.22 5418.76 414.62 5416.96 415.12C5415.86 415.42 5414.76 415.32 5413.56 415.32C5410.56 415.32 5407.66 415.62 5404.66 415.62C5404.16 415.62 5403.56 415.52 5403.06 415.62C5402.76 415.72 5402.56 416.019 5402.26 416.219C5400.96 415.72 5400.86 415.32 5399.87 416.019Z" fill="#2C221D"/>
<rect width="3500" height="124" transform="matrix(1 0 0 -1 3497 488)" fill="#2C221D"/>
</svg>
