<svg width="153" height="94" viewBox="0 0 153 94" fill="none" xmlns="http://www.w3.org/2000/svg">
<path d="M113.72 4.47451C113.144 5.70114 112.039 7.15081 110.981 8.22256C111.892 8.44559 112.889 8.79868 113.94 9.31287C114.436 9.04029 114.938 8.73676 115.46 8.37744C117.094 7.23754 119.356 4.16475 119.356 3.07441C119.356 3.06202 119.356 3.04963 119.356 3.03724C118.7 2.83899 115.996 3.55144 113.72 4.47451Z" fill="white"/>
<path d="M115.46 11.6387C113.278 10.1271 111.276 9.45188 109.843 9.22266C109.79 9.25983 109.743 9.30319 109.689 9.33416C109.341 9.57577 108.993 9.79261 108.645 10.0032C108.993 10.2077 109.341 10.4307 109.689 10.6723C110.975 11.5582 112.896 13.7761 113.713 15.5355C115.976 16.4462 118.66 17.1586 119.35 16.9727C119.35 16.9666 119.35 16.9541 119.35 16.9479C119.356 15.8514 117.094 12.7724 115.46 11.6387Z" fill="white"/>
<path d="M102.091 7.93158C103.436 7.9006 105.311 8.29091 107.38 9.30691C107.875 9.03433 108.377 8.73076 108.899 8.37144C110.539 7.23154 112.796 4.15875 112.796 3.06841C112.796 3.05602 112.796 3.04363 112.796 3.03124C111.852 2.75246 106.576 4.39416 104.561 5.78187C103.457 6.54387 102.653 7.27489 102.091 7.93158Z" fill="white"/>
<path d="M108.9 11.6394C105.07 8.99411 101.803 8.90121 101.201 9.31009C101.074 9.40302 101 9.60123 101 9.85523C101 10.7783 101.937 12.4014 104.562 14.2228C106.563 15.6043 111.792 17.2336 112.796 16.9672C112.796 16.961 112.796 16.9486 112.796 16.9424C112.796 15.8521 110.533 12.7731 108.9 11.6394Z" fill="white"/>
<path d="M120.287 4.46875C119.712 5.69538 118.6 7.14505 117.542 8.2168C118.453 8.43983 119.45 8.78676 120.502 9.30715C120.997 9.03456 121.499 8.731 122.014 8.37168C123.655 7.23178 125.911 4.15899 125.911 3.06865C125.911 3.05626 125.911 3.04387 125.911 3.03148C125.261 2.83943 122.563 3.55187 120.287 4.46875Z" fill="white"/>
<path d="M122.015 11.6387C119.833 10.1271 117.831 9.45188 116.405 9.22266C116.358 9.25983 116.305 9.30319 116.258 9.33416C115.91 9.57577 115.562 9.79261 115.213 10.0032C115.562 10.2077 115.91 10.4307 116.258 10.6723C117.543 11.5582 119.464 13.7823 120.288 15.5355C122.544 16.4462 125.229 17.1586 125.918 16.9727C125.918 16.9666 125.918 16.9541 125.918 16.9479C125.918 15.8514 123.655 12.7724 122.015 11.6387Z" fill="white"/>
<path d="M113.721 4.47451C113.145 5.70114 112.033 7.15081 110.982 8.22256C111.893 8.44559 112.89 8.79868 113.941 9.31287C114.437 9.04029 114.939 8.73676 115.461 8.37744C117.101 7.23754 119.364 4.16475 119.364 3.07441C119.364 3.06202 119.364 3.04963 119.364 3.03724C118.701 2.83899 115.997 3.55144 113.721 4.47451Z" fill="white"/>
<path d="M115.454 11.6387C113.272 10.1271 111.27 9.45188 109.844 9.22266C109.797 9.25983 109.744 9.30319 109.697 9.33416C109.349 9.57577 109 9.79261 108.652 10.0032C109 10.2077 109.349 10.4307 109.697 10.6723C110.975 11.5582 112.897 13.7761 113.72 15.5355C115.983 16.4462 118.661 17.1586 119.357 16.9727C119.357 16.9666 119.357 16.9541 119.357 16.9479C119.357 15.8514 117.094 12.7724 115.454 11.6387Z" fill="white"/>
<path d="M126.848 4.46875C126.273 5.69538 125.161 7.14505 124.104 8.2168C125.014 8.43983 126.012 8.78676 127.063 9.30715C127.558 9.03456 128.06 8.731 128.576 8.37168C130.216 7.23178 132.472 4.15899 132.472 3.06865C132.472 3.05626 132.472 3.04387 132.472 3.03148C131.822 2.83943 129.125 3.55187 126.848 4.46875Z" fill="white"/>
<path d="M128.582 11.6387C126.4 10.1271 124.398 9.45188 122.972 9.22266C122.925 9.25983 122.871 9.30319 122.825 9.33416C122.477 9.57577 122.128 9.79261 121.78 10.0032C122.128 10.2077 122.477 10.4307 122.825 10.6723C124.11 11.5582 126.031 13.7823 126.855 15.5355C129.111 16.4462 131.795 17.1586 132.485 16.9727C132.485 16.9666 132.485 16.9541 132.485 16.9479C132.478 15.8514 130.216 12.7724 128.582 11.6387Z" fill="white"/>
<path d="M120.281 4.47451C119.705 5.70114 118.594 7.15081 117.542 8.22256C118.453 8.44559 119.45 8.79868 120.501 9.31287C120.997 9.04029 121.499 8.73676 122.021 8.37744C123.661 7.23754 125.924 4.16475 125.924 3.07441C125.924 3.06202 125.924 3.04963 125.917 3.03724C125.261 2.83899 122.557 3.55144 120.281 4.47451Z" fill="white"/>
<path d="M122.021 11.6387C119.839 10.1271 117.837 9.45188 116.411 9.22266C116.364 9.25983 116.311 9.30319 116.264 9.33416C115.916 9.57577 115.568 9.79261 115.22 10.0032C115.568 10.2077 115.916 10.4307 116.264 10.6723C117.543 11.5582 119.464 13.7761 120.288 15.5355C122.55 16.4462 125.228 17.1586 125.924 16.9727C125.924 16.9666 125.924 16.9541 125.924 16.9479C125.918 15.8514 123.655 12.7724 122.021 11.6387Z" fill="white"/>
<path d="M140.063 10.4201H150.246C150.521 10.4201 150.748 10.2157 150.748 9.96786C150.748 9.71386 150.527 9.51562 150.246 9.51562H140.124C140.177 9.64572 140.204 9.77582 140.204 9.90592C140.204 10.0732 140.157 10.2467 140.063 10.4201Z" fill="white"/>
<path d="M142.775 5.03568C143.05 5.03568 143.271 4.83123 143.271 4.57723C143.271 4.32943 143.05 4.125 142.775 4.125H133.563C133.45 4.41617 133.302 4.71973 133.122 5.03568H142.775Z" fill="white"/>
<path d="M146.163 7.86773C146.437 7.86773 146.658 7.6633 146.658 7.4093C146.658 7.1553 146.437 6.95703 146.163 6.95703H135.994C136.77 7.21723 137.54 7.52081 138.196 7.86773H146.163Z" fill="white"/>
<path d="M142.775 15.8052C143.05 15.8052 143.271 15.6008 143.271 15.3468C143.271 15.099 143.05 14.8945 142.775 14.8945H133.082C133.262 15.2105 133.416 15.5141 133.537 15.8052H142.775Z" fill="white"/>
<path d="M146.163 12.9513C146.438 12.9513 146.659 12.7469 146.659 12.4991C146.659 12.2513 146.438 12.0469 146.163 12.0469H138.002C137.299 12.3938 136.496 12.7035 135.686 12.9575H146.163V12.9513Z" fill="white"/>
<path d="M132.003 7.35156C131.816 7.35156 131.635 7.35777 131.454 7.36396C130.745 8.19411 129.995 8.91274 129.386 9.33401C129.038 9.57562 128.689 9.79242 128.341 10.0031C128.689 10.2075 129.038 10.4305 129.386 10.6721C129.941 11.0562 130.617 11.6943 131.274 12.4316C131.508 12.444 131.749 12.4501 132.003 12.4501C134.259 12.4501 138.731 10.6535 138.879 9.89154C138.731 9.14194 134.259 7.35156 132.003 7.35156Z" fill="white"/>
<path d="M126.848 4.46875C126.273 5.69538 125.161 7.14505 124.104 8.2168C125.014 8.43983 126.012 8.78676 127.063 9.30715C127.558 9.03456 128.06 8.731 128.576 8.37168C130.216 7.23178 132.479 4.15899 132.479 3.06865C132.479 3.05626 132.472 3.04387 132.472 3.03148C131.822 2.83943 129.125 3.55187 126.848 4.46875Z" fill="white"/>
<path d="M128.582 11.6387C126.4 10.1271 124.398 9.45188 122.972 9.22266C122.925 9.25983 122.871 9.30319 122.825 9.33416C122.477 9.57577 122.128 9.79261 121.78 10.0032C122.128 10.2077 122.477 10.4307 122.825 10.6723C124.11 11.5582 126.031 13.7823 126.848 15.5355C129.111 16.4462 131.789 17.1586 132.478 16.9727C132.478 16.9666 132.485 16.9541 132.485 16.9479C132.485 15.8514 130.222 12.7724 128.582 11.6387Z" fill="white"/>
<path d="M120.287 4.46875C119.712 5.69538 118.6 7.14505 117.542 8.2168C118.453 8.43983 119.45 8.78676 120.502 9.30715C120.99 9.03456 121.499 8.731 122.014 8.37168C123.655 7.23178 125.917 4.15899 125.917 3.06865C125.917 3.05626 125.917 3.04387 125.917 3.03148C125.261 2.83943 122.563 3.55187 120.287 4.46875Z" fill="white"/>
<path d="M122.015 11.6387C119.833 10.1271 117.838 9.45188 116.405 9.22266C116.358 9.25983 116.305 9.30319 116.258 9.33416C115.91 9.57577 115.562 9.79261 115.213 10.0032C115.562 10.2077 115.91 10.4307 116.258 10.6723C117.536 11.5582 119.464 13.7823 120.281 15.5355C122.537 16.4462 125.222 17.1586 125.911 16.9727C125.911 16.9666 125.911 16.9541 125.911 16.9479C125.918 15.8514 123.662 12.7724 122.015 11.6387Z" fill="white"/>
<path d="M44.0285 3.47451C44.6042 4.70114 45.7088 6.15081 46.7666 7.22256C45.8561 7.44559 44.8586 7.79868 43.8076 8.31287C43.3122 8.04029 42.8101 7.73676 42.2879 7.37744C40.6544 6.23754 38.3916 3.16475 38.3916 2.07441C38.3916 2.06202 38.3916 2.04963 38.3916 2.03724C39.0477 1.83899 41.7523 2.55144 44.0285 3.47451Z" fill="white"/>
<path d="M42.2879 10.6387C44.4703 9.12712 46.472 8.45188 47.9047 8.22266C47.9583 8.25983 48.0051 8.30319 48.0587 8.33416C48.4068 8.57577 48.7549 8.79261 49.103 9.00325C48.7549 9.20769 48.4068 9.43068 48.0587 9.67229C46.7733 10.5582 44.8519 12.7761 44.0352 14.5355C41.7724 15.4462 39.0879 16.1586 38.3983 15.9727C38.3983 15.9666 38.3983 15.9541 38.3983 15.9479C38.3916 14.8514 40.6544 11.7724 42.2879 10.6387Z" fill="white"/>
<path d="M55.6572 6.93158C54.3116 6.9006 52.4371 7.29091 50.3684 8.30691C49.873 8.03433 49.3709 7.73076 48.8487 7.37144C47.2086 6.23154 44.9525 3.15875 44.9525 2.06841C44.9525 2.05602 44.9525 2.04363 44.9525 2.03124C45.8964 1.75246 51.1718 3.39416 53.1869 4.78187C54.2915 5.54387 55.0949 6.27489 55.6572 6.93158Z" fill="white"/>
<path d="M48.8484 10.6394C52.6777 7.99411 55.9447 7.90121 56.5472 8.31009C56.6744 8.40302 56.748 8.60123 56.748 8.85523C56.748 9.7783 55.8108 11.4014 53.1865 13.2228C51.1848 14.6043 45.9563 16.2336 44.9521 15.9672C44.9521 15.961 44.9521 15.9486 44.9521 15.9424C44.9521 14.8521 47.2149 11.7731 48.8484 10.6394Z" fill="white"/>
<path d="M37.4607 3.46875C38.0365 4.69538 39.1478 6.14505 40.2056 7.2168C39.2951 7.43983 38.2976 7.78676 37.2465 8.30715C36.7511 8.03456 36.249 7.731 35.7336 7.37168C34.0934 6.23178 31.8373 3.15899 31.8373 2.06865C31.8373 2.05626 31.8373 2.04387 31.8373 2.03148C32.4866 1.83943 35.1846 2.55187 37.4607 3.46875Z" fill="white"/>
<path d="M35.7329 10.6387C37.9154 9.12712 39.9171 8.45188 41.343 8.22266C41.3899 8.25983 41.4434 8.30319 41.4903 8.33416C41.8384 8.57577 42.1865 8.79261 42.5347 9.00325C42.1865 9.20769 41.8384 9.43068 41.4903 9.67229C40.2049 10.5582 38.2836 12.7823 37.4601 14.5355C35.204 15.4462 32.5195 16.1586 31.8299 15.9727C31.8299 15.9666 31.8299 15.9541 31.8299 15.9479C31.8299 14.8514 34.0927 11.7724 35.7329 10.6387Z" fill="white"/>
<path d="M44.0275 3.47451C44.6032 4.70114 45.7146 6.15081 46.7656 7.22256C45.8552 7.44559 44.8577 7.79868 43.8066 8.31287C43.3112 8.04029 42.8091 7.73676 42.2869 7.37744C40.6467 6.23754 38.3839 3.16475 38.3839 2.07441C38.3839 2.06202 38.3839 2.04963 38.3839 2.03724C39.0467 1.83899 41.7513 2.55144 44.0275 3.47451Z" fill="white"/>
<path d="M42.294 10.6387C44.4764 9.12712 46.4781 8.45188 47.9041 8.22266C47.9509 8.25983 48.0045 8.30319 48.0513 8.33416C48.3995 8.57577 48.7476 8.79261 49.0957 9.00325C48.7476 9.20769 48.3995 9.43068 48.0513 9.67229C46.7727 10.5582 44.8513 12.7761 44.0279 14.5355C41.7651 15.4462 39.0872 16.1586 38.391 15.9727C38.391 15.9666 38.391 15.9541 38.391 15.9479C38.391 14.8514 40.6538 11.7724 42.294 10.6387Z" fill="white"/>
<path d="M30.8997 3.46875C31.4754 4.69538 32.5868 6.14505 33.6445 7.2168C32.7341 7.43983 31.7365 7.78676 30.6855 8.30715C30.1901 8.03456 29.688 7.731 29.1725 7.37168C27.5323 6.23178 25.2762 3.15899 25.2762 2.06865C25.2762 2.05626 25.2762 2.04387 25.2762 2.03148C25.9256 1.83943 28.6235 2.55187 30.8997 3.46875Z" fill="white"/>
<path d="M29.166 10.6387C31.3485 9.12712 33.3502 8.45188 34.7761 8.22266C34.823 8.25983 34.8765 8.30319 34.9234 8.33416C35.2715 8.57577 35.6197 8.79261 35.9678 9.00325C35.6197 9.20769 35.2715 9.43068 34.9234 9.67229C33.638 10.5582 31.7167 12.7823 30.8932 14.5355C28.6371 15.4462 25.9526 16.1586 25.263 15.9727C25.263 15.9666 25.263 15.9541 25.263 15.9479C25.2697 14.8514 27.5325 11.7724 29.166 10.6387Z" fill="white"/>
<path d="M37.4674 3.47451C38.0432 4.70114 39.1545 6.15081 40.2056 7.22256C39.2951 7.44559 38.2976 7.79868 37.2465 8.31287C36.7511 8.04029 36.249 7.73676 35.7269 7.37744C34.0867 6.23754 31.8239 3.16475 31.8239 2.07441C31.8239 2.06202 31.8239 2.04963 31.8306 2.03724C32.4866 1.83899 35.1913 2.55144 37.4674 3.47451Z" fill="white"/>
<path d="M35.7266 10.6387C37.909 9.12712 39.9107 8.45188 41.3367 8.22266C41.3836 8.25983 41.4371 8.30319 41.484 8.33416C41.8321 8.57577 42.1802 8.79261 42.5283 9.00325C42.1802 9.20769 41.8321 9.43068 41.484 9.67229C40.2053 10.5582 38.2839 12.7761 37.4605 14.5355C35.1977 15.4462 32.5198 16.1586 31.8236 15.9727C31.8236 15.9666 31.8236 15.9541 31.8236 15.9479C31.8303 14.8514 34.0931 11.7724 35.7266 10.6387Z" fill="white"/>
<path d="M17.6846 9.42013H7.50201C7.22753 9.42013 6.99991 9.21566 6.99991 8.96786C6.99991 8.71386 7.22083 8.51562 7.50201 8.51562H17.6243C17.5707 8.64572 17.544 8.77582 17.544 8.90592C17.544 9.07319 17.5908 9.24666 17.6846 9.42013Z" fill="white"/>
<path d="M14.9728 4.03568C14.6983 4.03568 14.4774 3.83123 14.4774 3.57723C14.4774 3.32943 14.6983 3.125 14.9728 3.125H24.1846C24.2984 3.41617 24.4457 3.71973 24.6265 4.03568H14.9728Z" fill="white"/>
<path d="M11.5852 6.86773C11.3108 6.86773 11.0898 6.6633 11.0898 6.4093C11.0898 6.1553 11.3108 5.95703 11.5852 5.95703H21.7544C20.9778 6.21723 20.2079 6.52081 19.5518 6.86773H11.5852Z" fill="white"/>
<path d="M14.9727 14.8052C14.6982 14.8052 14.4773 14.6008 14.4773 14.3468C14.4773 14.099 14.6982 13.8945 14.9727 13.8945H24.6665C24.4857 14.2105 24.3318 14.5141 24.2113 14.8052H14.9727Z" fill="white"/>
<path d="M11.5849 11.9513C11.3104 11.9513 11.0895 11.7469 11.0895 11.4991C11.0895 11.2513 11.3104 11.0469 11.5849 11.0469H19.7457C20.4486 11.3938 21.252 11.7035 22.062 11.9575H11.5849V11.9513Z" fill="white"/>
<path d="M25.7447 6.35156C25.9322 6.35156 26.113 6.35777 26.2937 6.36396C27.0033 7.19411 27.7532 7.91274 28.3624 8.33401C28.7105 8.57562 29.0586 8.79242 29.4067 9.00305C29.0586 9.20749 28.7105 9.43052 28.3624 9.67213C27.8067 10.0562 27.1306 10.6943 26.4745 11.4316C26.2402 11.444 25.9991 11.4501 25.7447 11.4501C23.4887 11.4501 19.0167 9.65354 18.8694 8.89154C19.0167 8.14194 23.4887 6.35156 25.7447 6.35156Z" fill="white"/>
<path d="M30.8997 3.46875C31.4754 4.69538 32.5868 6.14505 33.6445 7.2168C32.7341 7.43983 31.7365 7.78676 30.6855 8.30715C30.1901 8.03456 29.688 7.731 29.1725 7.37168C27.5323 6.23178 25.2695 3.15899 25.2695 2.06865C25.2695 2.05626 25.2762 2.04387 25.2762 2.03148C25.9256 1.83943 28.6235 2.55187 30.8997 3.46875Z" fill="white"/>
<path d="M29.166 10.6387C31.3485 9.12712 33.3502 8.45188 34.7761 8.22266C34.823 8.25983 34.8765 8.30319 34.9234 8.33416C35.2715 8.57577 35.6197 8.79261 35.9678 9.00325C35.6197 9.20769 35.2715 9.43068 34.9234 9.67229C33.638 10.5582 31.7167 12.7823 30.8999 14.5355C28.6371 15.4462 25.9593 16.1586 25.2698 15.9727C25.2698 15.9666 25.263 15.9541 25.263 15.9479C25.263 14.8514 27.5258 11.7724 29.166 10.6387Z" fill="white"/>
<path d="M37.4607 3.46875C38.0365 4.69538 39.1478 6.14505 40.2056 7.2168C39.2951 7.43983 38.2976 7.78676 37.2465 8.30715C36.7578 8.03456 36.249 7.731 35.7336 7.37168C34.0934 6.23178 31.8306 3.15899 31.8306 2.06865C31.8306 2.05626 31.8306 2.04387 31.8306 2.03148C32.4866 1.83943 35.1846 2.55187 37.4607 3.46875Z" fill="white"/>
<path d="M35.7329 10.6387C37.9154 9.12712 39.9104 8.45188 41.343 8.22266C41.3899 8.25983 41.4434 8.30319 41.4903 8.33416C41.8384 8.57577 42.1865 8.79261 42.5347 9.00325C42.1865 9.20769 41.8384 9.43068 41.4903 9.67229C40.2116 10.5582 38.2836 12.7823 37.4668 14.5355C35.2107 15.4462 32.5262 16.1586 31.8366 15.9727C31.8366 15.9666 31.8366 15.9541 31.8366 15.9479C31.83 14.8514 34.0861 11.7724 35.7329 10.6387Z" fill="white"/>
<path d="M18.3 62.6C13.3 62.6 9.43333 61.1167 6.7 58.15C4 55.1833 2.65 51.1 2.65 45.9C2.65 40.4333 4.05 36.15 6.85 33.05C9.68333 29.95 13.6333 28.4 18.7 28.4C20.0667 28.4 21.2333 28.5333 22.2 28.8C23.1667 29.0333 24.15 29.35 25.15 29.75C25.9167 30.0833 26.4833 30.25 26.85 30.25C27.45 30.25 27.85 30.0167 28.05 29.55L28.2 29H29.55L30.05 38H28.7C27.3333 32.7333 24.1167 30.1 19.05 30.1C16.2833 30.1 14.0667 30.9167 12.4 32.55C10.7667 34.15 9.61667 36.1167 8.95 38.45C8.28333 40.7833 7.95 43.1167 7.95 45.45C7.95 48.15 8.33333 50.6833 9.1 53.05C9.86667 55.3833 11.0833 57.2833 12.75 58.75C14.4167 60.1833 16.5167 60.9 19.05 60.9C21.0833 60.9 22.75 60.5667 24.05 59.9C25.3833 59.2 26.4 58.3667 27.1 57.4C27.8 56.4 28.4333 55.25 29 53.95L30.25 54.6C29.45 56.8 28.15 58.6833 26.35 60.25C24.5833 61.8167 21.9 62.6 18.3 62.6ZM35.0684 60.55C36.2684 60.55 37.135 60.4833 37.6684 60.35C38.2017 60.1833 38.535 59.9167 38.6684 59.55C38.835 59.1833 38.9184 58.5833 38.9184 57.75V33.3C38.9184 32.4333 38.835 31.8167 38.6684 31.45C38.5017 31.0833 38.1517 30.8333 37.6184 30.7C37.1184 30.5333 36.2684 30.45 35.0684 30.45V29H48.5184C51.8184 29 54.4017 29.6833 56.2684 31.05C58.135 32.4167 59.0684 34.45 59.0684 37.15C59.0684 39.4167 58.4184 41.25 57.1184 42.65C55.8517 44.05 54.135 45 51.9684 45.5V45.6C53.6684 46.1 54.9184 46.9167 55.7184 48.05C56.5517 49.1833 57.1517 50.9167 57.5184 53.25L57.8184 55.1C58.1517 56.9667 58.6184 58.35 59.2184 59.25C59.8184 60.1167 60.7517 60.55 62.0184 60.55V62H55.5184C54.6517 61.2 53.985 59.6667 53.5184 57.4L52.3184 51.25C51.985 49.5833 51.3684 48.3833 50.4684 47.65C49.6017 46.8833 48.3017 46.5 46.5684 46.5H43.5184V57.75C43.5184 58.5833 43.6017 59.2 43.7684 59.6C43.935 59.9667 44.3017 60.2167 44.8684 60.35C45.435 60.4833 46.3517 60.55 47.6184 60.55V62H35.0684V60.55ZM46.6684 44.7C49.2017 44.7 51.0684 44.15 52.2684 43.05C53.4684 41.9167 54.0684 40.15 54.0684 37.75C54.0684 35.35 53.4517 33.5833 52.2184 32.45C50.985 31.3167 49.1017 30.75 46.5684 30.75C45.3017 30.75 44.4684 30.9 44.0684 31.2C43.7017 31.4667 43.5184 31.9333 43.5184 32.6V44.7H46.6684ZM91.0418 57.8C91.4085 58.9667 91.8085 59.7167 92.2418 60.05C92.7085 60.3833 93.5418 60.55 94.7418 60.55V62H83.2918V60.55H85.1918C86.1585 60.55 86.6418 60.1333 86.6418 59.3C86.6418 58.9667 86.5918 58.6333 86.4918 58.3L83.3418 49.5H72.2418L69.0918 58.45C68.9585 58.9167 68.8918 59.25 68.8918 59.45C68.8918 60.1833 69.3585 60.55 70.2918 60.55H72.0918V62H63.1918V60.55C64.0585 60.55 64.7251 60.4667 65.1918 60.3C65.6585 60.1 66.0251 59.8 66.2918 59.4C66.5918 58.9667 66.8918 58.3167 67.1918 57.45L77.7918 29H80.5918L91.0418 57.8ZM82.7418 47.8L77.8418 34.2H77.6918L72.8918 47.8H82.7418ZM97.666 60.55C98.9327 60.55 99.816 60.4833 100.316 60.35C100.849 60.1833 101.183 59.9167 101.316 59.55C101.449 59.15 101.516 58.4833 101.516 57.55V33.45C101.516 32.5167 101.433 31.8667 101.266 31.5C101.133 31.1 100.799 30.8333 100.266 30.7C99.766 30.5333 98.8993 30.45 97.666 30.45V29H121.016V36.85H119.666C119.366 35.1167 118.999 33.8333 118.566 33C118.133 32.1667 117.433 31.5833 116.466 31.25C115.533 30.8833 114.133 30.7 112.266 30.7H107.966C107.199 30.7 106.699 30.8 106.466 31C106.266 31.2 106.166 31.7 106.166 32.5V44.6H112.066C113.333 44.6 114.266 44.4667 114.866 44.2C115.466 43.9333 115.883 43.5333 116.116 43C116.349 42.4667 116.566 41.6 116.766 40.4H117.916V50.75H116.766C116.566 49.55 116.349 48.6833 116.116 48.15C115.883 47.6167 115.466 47.2167 114.866 46.95C114.266 46.6833 113.333 46.55 112.066 46.55H106.166V57.55C106.166 58.4833 106.249 59.15 106.416 59.55C106.583 59.9167 106.966 60.1833 107.566 60.35C108.199 60.4833 109.266 60.55 110.766 60.55V62H97.666V60.55ZM129.909 60.55C131.509 60.55 132.609 60.4833 133.209 60.35C133.842 60.2167 134.242 59.9667 134.409 59.6C134.575 59.2 134.659 58.5167 134.659 57.55V30.65H131.959C130.125 30.65 128.759 30.8333 127.859 31.2C126.959 31.5333 126.309 32.15 125.909 33.05C125.509 33.9167 125.159 35.2667 124.859 37.1H123.559V29H150.359V37.1H149.059C148.759 35.2667 148.392 33.9167 147.959 33.05C147.559 32.15 146.909 31.5333 146.009 31.2C145.142 30.8333 143.809 30.65 142.009 30.65H139.259V57.55C139.259 58.5167 139.342 59.2 139.509 59.6C139.709 59.9667 140.125 60.2167 140.759 60.35C141.392 60.4833 142.475 60.55 144.009 60.55V62H129.909V60.55Z" fill="white"/>
<path d="M6 86.42C6.50667 86.42 6.86 86.3933 7.06 86.34C7.27333 86.2867 7.40667 86.1867 7.46 86.04C7.51333 85.88 7.54 85.6067 7.54 85.22V75.58C7.54 75.2067 7.50667 74.9467 7.44 74.8C7.38667 74.64 7.25333 74.5333 7.04 74.48C6.84 74.4133 6.49333 74.38 6 74.38V73.8H11.02C12.5267 73.8 13.7067 74.0467 14.56 74.54C15.4267 75.0333 15.86 75.8 15.86 76.84C15.86 77.5867 15.6267 78.22 15.16 78.74C14.7067 79.26 14.0667 79.6133 13.24 79.8V79.82C14.2133 79.9933 14.9933 80.3933 15.58 81.02C16.1667 81.6333 16.46 82.44 16.46 83.44C16.46 85.8133 14.76 87 11.36 87H6V86.42ZM10.86 79.56C12.9 79.56 13.92 78.72 13.92 77.04C13.92 75.3333 12.84 74.48 10.68 74.48C10.2933 74.48 10.0067 74.5067 9.82 74.56C9.63333 74.6133 9.51333 74.7067 9.46 74.84C9.40667 74.96 9.38 75.1467 9.38 75.4V79.56H10.86ZM11.02 86.34C12.0733 86.34 12.9 86.1067 13.5 85.64C14.1 85.1733 14.4 84.4333 14.4 83.42C14.4 82.42 14.1 81.6467 13.5 81.1C12.9133 80.54 12.0533 80.26 10.92 80.26H9.38V84.88C9.38 85.44 9.49333 85.8267 9.72 86.04C9.94667 86.24 10.38 86.34 11.02 86.34ZM27.2633 86.42C27.7433 86.42 28.0899 86.3933 28.3033 86.34C28.5166 86.2733 28.6499 86.1667 28.7033 86.02C28.7699 85.8733 28.8033 85.6333 28.8033 85.3V75.52C28.8033 75.1733 28.7699 74.9267 28.7033 74.78C28.6366 74.6333 28.4966 74.5333 28.2833 74.48C28.0833 74.4133 27.7433 74.38 27.2633 74.38V73.8H32.6433C33.9633 73.8 34.9966 74.0733 35.7433 74.62C36.4899 75.1667 36.8633 75.98 36.8633 77.06C36.8633 77.9667 36.6033 78.7 36.0833 79.26C35.5766 79.82 34.8899 80.2 34.0233 80.4V80.44C34.7033 80.64 35.2033 80.9667 35.5233 81.42C35.8566 81.8733 36.0966 82.5667 36.2433 83.5L36.3633 84.24C36.4966 84.9867 36.6833 85.54 36.9233 85.9C37.1633 86.2467 37.5366 86.42 38.0433 86.42V87H35.4433C35.0966 86.68 34.8299 86.0667 34.6433 85.16L34.1633 82.7C34.0299 82.0333 33.7833 81.5533 33.4233 81.26C33.0766 80.9533 32.5566 80.8 31.8633 80.8H30.6433V85.3C30.6433 85.6333 30.6766 85.88 30.7433 86.04C30.8099 86.1867 30.9566 86.2867 31.1833 86.34C31.4099 86.3933 31.7766 86.42 32.2833 86.42V87H27.2633V86.42ZM31.9033 80.08C32.9166 80.08 33.6633 79.86 34.1433 79.42C34.6233 78.9667 34.8633 78.26 34.8633 77.3C34.8633 76.34 34.6166 75.6333 34.1233 75.18C33.6299 74.7267 32.8766 74.5 31.8633 74.5C31.3566 74.5 31.0233 74.56 30.8633 74.68C30.7166 74.7867 30.6433 74.9733 30.6433 75.24V80.08H31.9033ZM48.2727 86.42C48.7793 86.42 49.1327 86.3933 49.3327 86.34C49.546 86.2867 49.6793 86.1867 49.7327 86.04C49.786 85.88 49.8127 85.6067 49.8127 85.22V75.58C49.8127 75.1933 49.7793 74.9267 49.7127 74.78C49.6593 74.62 49.5327 74.5133 49.3327 74.46C49.1327 74.4067 48.7793 74.38 48.2727 74.38V73.8H57.5727V77H57.0527C56.9327 76.2933 56.786 75.7733 56.6127 75.44C56.4393 75.0933 56.166 74.8467 55.7927 74.7C55.4193 74.5533 54.866 74.48 54.1327 74.48H52.3727C52.066 74.48 51.866 74.5267 51.7727 74.62C51.6927 74.7 51.6527 74.8933 51.6527 75.2V79.74H53.9327C54.4393 79.74 54.8127 79.6933 55.0527 79.6C55.2927 79.4933 55.4527 79.3333 55.5327 79.12C55.626 78.9067 55.7127 78.56 55.7927 78.08H56.2727V82.16H55.7927C55.7127 81.6933 55.626 81.3533 55.5327 81.14C55.4527 80.9267 55.2927 80.7667 55.0527 80.66C54.8127 80.5533 54.4393 80.5 53.9327 80.5H51.6527V84.78C51.6527 85.2467 51.7127 85.5867 51.8327 85.8C51.9527 86 52.1727 86.14 52.4927 86.22C52.826 86.3 53.3593 86.34 54.0927 86.34C54.9327 86.34 55.5793 86.2667 56.0327 86.12C56.486 85.9733 56.8393 85.7067 57.0927 85.32C57.346 84.92 57.5593 84.3333 57.7327 83.56H58.2527L58.0327 87H48.2727V86.42ZM69.7309 75.54C69.6376 75.1933 69.5376 74.94 69.4309 74.78C69.3376 74.62 69.1976 74.5133 69.0109 74.46C68.8376 74.4067 68.5643 74.38 68.1909 74.38V73.8H72.6909V74.38H71.8509C71.6909 74.38 71.5709 74.4067 71.4909 74.46C71.4109 74.5 71.3709 74.58 71.3709 74.7C71.3709 74.74 71.3976 74.88 71.4509 75.12L73.9709 84.54H74.0309L76.8109 74.12H77.9109L80.9509 84.56H81.0309L83.3709 75.18C83.4109 75.02 83.4309 74.88 83.4309 74.76C83.4309 74.6267 83.3976 74.5333 83.3309 74.48C83.2643 74.4133 83.1443 74.38 82.9709 74.38H82.0509V73.8H85.9709V74.38C85.5709 74.38 85.2643 74.42 85.0509 74.5C84.8509 74.58 84.6909 74.72 84.5709 74.92C84.4509 75.1067 84.3243 75.4 84.1909 75.8L81.0709 87H79.8909L76.8909 76.8H76.8509L74.0509 87H72.8309L69.7309 75.54ZM95.6625 86.42C96.1692 86.42 96.5225 86.3933 96.7225 86.34C96.9358 86.2867 97.0692 86.1867 97.1225 86.04C97.1758 85.88 97.2025 85.6067 97.2025 85.22V75.58C97.2025 75.1933 97.1692 74.9267 97.1025 74.78C97.0492 74.62 96.9225 74.5133 96.7225 74.46C96.5225 74.4067 96.1692 74.38 95.6625 74.38V73.8H104.962V77H104.442C104.322 76.2933 104.176 75.7733 104.002 75.44C103.829 75.0933 103.556 74.8467 103.182 74.7C102.809 74.5533 102.256 74.48 101.522 74.48H99.7625C99.4558 74.48 99.2558 74.5267 99.1625 74.62C99.0825 74.7 99.0425 74.8933 99.0425 75.2V79.74H101.322C101.829 79.74 102.202 79.6933 102.442 79.6C102.682 79.4933 102.842 79.3333 102.922 79.12C103.016 78.9067 103.102 78.56 103.182 78.08H103.662V82.16H103.182C103.102 81.6933 103.016 81.3533 102.922 81.14C102.842 80.9267 102.682 80.7667 102.442 80.66C102.202 80.5533 101.829 80.5 101.322 80.5H99.0425V84.78C99.0425 85.2467 99.1025 85.5867 99.2225 85.8C99.3425 86 99.5625 86.14 99.8825 86.22C100.216 86.3 100.749 86.34 101.482 86.34C102.322 86.34 102.969 86.2667 103.422 86.12C103.876 85.9733 104.229 85.7067 104.482 85.32C104.736 84.92 104.949 84.3333 105.122 83.56H105.642L105.422 87H95.6625V86.42ZM116.301 86.42C116.781 86.42 117.127 86.3933 117.341 86.34C117.554 86.2733 117.687 86.1667 117.741 86.02C117.807 85.8733 117.841 85.6333 117.841 85.3V75.52C117.841 75.1733 117.807 74.9267 117.741 74.78C117.674 74.6333 117.534 74.5333 117.321 74.48C117.121 74.4133 116.781 74.38 116.301 74.38V73.8H121.681C123.001 73.8 124.034 74.0733 124.781 74.62C125.527 75.1667 125.901 75.98 125.901 77.06C125.901 77.9667 125.641 78.7 125.121 79.26C124.614 79.82 123.927 80.2 123.061 80.4V80.44C123.741 80.64 124.241 80.9667 124.561 81.42C124.894 81.8733 125.134 82.5667 125.281 83.5L125.401 84.24C125.534 84.9867 125.721 85.54 125.961 85.9C126.201 86.2467 126.574 86.42 127.081 86.42V87H124.481C124.134 86.68 123.867 86.0667 123.681 85.16L123.201 82.7C123.067 82.0333 122.821 81.5533 122.461 81.26C122.114 80.9533 121.594 80.8 120.901 80.8H119.681V85.3C119.681 85.6333 119.714 85.88 119.781 86.04C119.847 86.1867 119.994 86.2867 120.221 86.34C120.447 86.3933 120.814 86.42 121.321 86.42V87H116.301V86.42ZM120.941 80.08C121.954 80.08 122.701 79.86 123.181 79.42C123.661 78.9667 123.901 78.26 123.901 77.3C123.901 76.34 123.654 75.6333 123.161 75.18C122.667 74.7267 121.914 74.5 120.901 74.5C120.394 74.5 120.061 74.56 119.901 74.68C119.754 74.7867 119.681 74.9733 119.681 75.24V80.08H120.941ZM146.984 73.8V74.38C146.597 74.38 146.304 74.4133 146.104 74.48C145.904 74.5333 145.737 74.64 145.604 74.8C145.471 74.9467 145.311 75.1933 145.124 75.54L142.124 81.6V85.22C142.124 85.5933 142.157 85.86 142.224 86.02C142.291 86.1667 142.444 86.2733 142.684 86.34C142.937 86.3933 143.364 86.42 143.964 86.42V87H138.504V86.42C139.091 86.42 139.504 86.3933 139.744 86.34C139.997 86.2733 140.157 86.1667 140.224 86.02C140.291 85.86 140.324 85.5933 140.324 85.22V81.84L136.984 75.36C136.784 74.96 136.577 74.7 136.364 74.58C136.151 74.4467 135.804 74.38 135.324 74.38V73.8H140.064V74.38H139.084C138.857 74.38 138.744 74.4733 138.744 74.66C138.744 74.74 138.777 74.8467 138.844 74.98L141.664 80.7H141.704L144.384 75.04C144.451 74.88 144.484 74.76 144.484 74.68C144.484 74.48 144.364 74.38 144.124 74.38H143.104V73.8H146.984Z" fill="white"/>
<path d="M90.0287 3.54675C89.8617 2.93064 89.4126 2.31452 88.9635 1.73295C88.5143 1.15139 88.0307 0.558307 87.4779 0.241612C86.8157 -0.138421 86.142 -0.0693227 85.4798 0.443146C84.737 1.01895 84.3743 2.14178 84.3282 3.16096L84.0115 3.96133C83.7754 4.57169 83.3609 5.06112 82.8541 5.45843L82.8426 5.44116C82.6987 5.25114 82.428 5.21659 82.238 5.3663L82.2208 5.37782C82.0365 5.52177 82.0019 5.78088 82.1344 5.96514L79.0481 8.06684L75.9617 5.96514C76.0942 5.77513 76.0596 5.51601 75.8754 5.37782L75.8581 5.3663C75.6681 5.22235 75.3974 5.2569 75.2535 5.44116L75.242 5.45843C74.7353 5.05537 74.3264 4.56593 74.0846 3.96133L73.7679 3.16096C73.7218 2.14178 73.3591 1.01895 72.6163 0.443146C71.9541 -0.0693227 71.2862 -0.132663 70.6182 0.241612C70.0655 0.558307 69.5818 1.15139 69.1326 1.73295C68.6835 2.31452 68.2286 2.93639 68.0674 3.54675C67.8716 4.28378 68.1019 4.91717 68.7641 5.42964C69.5069 6.00545 70.6816 6.06879 71.6777 5.8615L72.5184 5.9709C73.1575 6.05727 73.7679 6.32214 74.2804 6.70218L74.2688 6.71945C74.1249 6.90947 74.1594 7.1801 74.3437 7.32405L74.361 7.33556C74.5452 7.47952 74.8043 7.44497 74.9541 7.27223L77.263 9.28755L70.4282 13.9458C70.3764 13.9804 70.3188 14.0264 70.2727 14.0668C69.576 14.6714 69.5069 15.7308 70.1115 16.4276C70.7161 17.1243 71.7756 17.1934 72.4723 16.5888L79.0538 10.848L85.6353 16.5888C86.332 17.1934 87.3857 17.1243 87.9961 16.4276C88.6007 15.7308 88.5316 14.6771 87.8349 14.0668C87.7888 14.0264 87.7312 13.9804 87.6794 13.9458L80.8446 9.28755L83.1536 7.27223C83.3033 7.45073 83.5624 7.47952 83.7466 7.33556L83.7639 7.32405C83.9539 7.1801 83.9885 6.90947 83.8388 6.71945L83.8273 6.70218C84.3397 6.32214 84.9443 6.05727 85.5892 5.9709L86.4299 5.8615C87.4261 6.07455 88.6007 6.00545 89.3435 5.42964C89.9884 4.91717 90.2245 4.28378 90.0287 3.54675ZM72.6681 2.87881C72.1787 2.49878 72.1844 3.21278 71.7641 3.7598C71.3437 4.30682 70.647 4.47956 71.1364 4.85959L71.361 5.03233C70.6413 5.16477 69.8006 5.13598 69.2881 4.73867C68.8159 4.37591 68.7814 4.05346 69.1499 3.43159C69.5933 3.40856 70.2439 3.03428 70.4628 2.75213C70.6758 2.47575 70.8773 1.74447 70.791 1.31262C71.2977 0.794388 71.6201 0.748323 72.0923 1.11684C72.6048 1.51415 72.8408 2.32028 72.8984 3.05155L72.6681 2.87881ZM88.8022 4.74443C88.2898 5.14174 87.4491 5.17053 86.7293 5.03809L86.9539 4.86535C87.4433 4.48532 86.7524 4.31258 86.3263 3.76556C85.9059 3.21854 85.9117 2.50454 85.4222 2.88457L85.1977 3.05731C85.2553 2.32604 85.4913 1.51991 86.0038 1.1226C86.476 0.759841 86.7927 0.800147 87.3051 1.31837C87.213 1.75023 87.4145 2.48151 87.6333 2.75789C87.8464 3.03428 88.5028 3.41431 88.9462 3.43735C89.3147 4.05922 89.2744 4.38167 88.8022 4.74443Z" fill="white"/>
</svg>
